JosefinSlab-Thin.ufo
<glyph name="quotedbl" format="2">
  <advance width="293"/>
  <unicode hex="0022"/>
  <outline>
    <contour>
      <point x="210" y="472" type="qcurve"/>
      <point x="196" y="472" type="line"/>
      <point x="196" y="720" type="line"/>
      <point x="214" y="720" type="line"/>
      <point x="213" y="657"/>
      <point x="211" y="535"/>
    </contour>
    <contour>
      <point x="77" y="472" type="qcurve"/>
      <point x="63" y="472" type="line"/>
      <point x="63" y="720" type="line"/>
      <point x="81" y="720" type="line"/>
      <point x="80" y="657"/>
      <point x="78" y="535"/>
    </contour>
  </outline>
</glyph>
<glyph name="numbersign" format="1">
  <advance width="571"/>
  <unicode hex="0023"/>
  <outline>
    <contour>
      <point x="182" y="407" type="line"/>
      <point x="162" y="239" type="line"/>
      <point x="332" y="239" type="line"/>
      <point x="352" y="407" type="line"/>
    </contour>
    <contour>
      <point x="134" y="0" type="line"/>
      <point x="120" y="0" type="line"/>
      <point x="146" y="225" type="line"/>
      <point x="29" y="225" type="line"/>
      <point x="30" y="239" type="line"/>
      <point x="148" y="239" type="line"/>
      <point x="168" y="407" type="line"/>
      <point x="52" y="407" type="line"/>
      <point x="53" y="421" type="line"/>
      <point x="170" y="421" type="line"/>
      <point x="197" y="643" type="line"/>
      <point x="211" y="643" type="line"/>
      <point x="184" y="421" type="line"/>
      <point x="354" y="421" type="line"/>
      <point x="381" y="643" type="line"/>
      <point x="395" y="643" type="line"/>
      <point x="368" y="421" type="line"/>
      <point x="504" y="421" type="line"/>
      <point x="503" y="407" type="line"/>
      <point x="366" y="407" type="line"/>
      <point x="346" y="239" type="line"/>
      <point x="481" y="239" type="line"/>
      <point x="480" y="225" type="line"/>
      <point x="344" y="225" type="line"/>
      <point x="318" y="0" type="line"/>
      <point x="304" y="0" type="line"/>
      <point x="330" y="225" type="line"/>
      <point x="160" y="225" type="line"/>
    </contour>
  </outline>
</glyph>
<glyph name="dollar" format="2">
  <advance width="567"/>
  <unicode hex="0024"/>
  <outline>
    <contour>
      <point x="245" y="-68" type="line"/>
      <point x="232" y="-68" type="line"/>
      <point x="232" y="-8" type="line"/>
      <point x="193" y="-7"/>
      <point x="132" y="9"/>
      <point x="109" y="20" type="qcurve" smooth="yes" name="inserted"/>
      <point x="86" y="31"/>
      <point x="55" y="55"/>
      <point x="46" y="64" type="qcurve"/>
      <point x="46" y="164" type="line"/>
      <point x="60" y="164" type="line"/>
      <point x="60" y="74" type="line"/>
      <point x="88" y="45"/>
      <point x="172" y="7"/>
      <point x="232" y="6" type="qcurve"/>
      <point x="232" y="367" type="line"/>
      <point x="201" y="376"/>
      <point x="143" y="397"/>
      <point x="120" y="413.5" type="qcurve" smooth="yes" name="inserted"/>
      <point x="97" y="430"/>
      <point x="68" y="479"/>
      <point x="66" y="517" type="qcurve" smooth="yes"/>
      <point x="64" y="550"/>
      <point x="82" y="615"/>
      <point x="102" y="642" type="qcurve" smooth="yes" name="inserted"/>
      <point x="122" y="669"/>
      <point x="187" y="703"/>
      <point x="232" y="704" type="qcurve"/>
      <point x="232" y="764" type="line"/>
      <point x="245" y="764" type="line"/>
      <point x="245" y="704" type="line"/>
      <point x="277" y="703"/>
      <point x="356" y="686"/>
      <point x="386" y="660" type="qcurve"/>
      <point x="386" y="546" type="line"/>
      <point x="372" y="546" type="line"/>
      <point x="372" y="653" type="line"/>
      <point x="353" y="667"/>
      <point x="290" y="688"/>
      <point x="245" y="690" type="qcurve"/>
      <point x="245" y="380" type="line"/>
      <point x="281" y="369"/>
      <point x="354" y="345"/>
      <point x="383" y="324.5" type="qcurve" smooth="yes" name="inserted"/>
      <point x="412" y="304"/>
      <point x="449" y="238"/>
      <point x="450" y="186" type="qcurve" smooth="yes"/>
      <point x="451" y="142"/>
      <point x="419" y="72"/>
      <point x="391" y="46.5" type="qcurve" smooth="yes" name="inserted"/>
      <point x="363" y="21"/>
      <point x="288" y="-7"/>
      <point x="245" y="-8" type="qcurve"/>
    </contour>
    <contour>
      <point x="245" y="363" type="qcurve"/>
      <point x="245" y="6" type="line"/>
      <point x="282" y="7"/>
      <point x="351" y="34"/>
      <point x="377.5" y="56.5" type="qcurve" smooth="yes" name="inserted"/>
      <point x="404" y="79"/>
      <point x="436" y="143"/>
      <point x="436" y="182" type="qcurve" smooth="yes"/>
      <point x="436" y="230"/>
      <point x="403" y="292"/>
      <point x="376" y="311.5" type="qcurve" smooth="yes" name="inserted"/>
      <point x="349" y="331"/>
      <point x="280" y="353"/>
    </contour>
    <contour>
      <point x="80" y="530" type="qcurve" smooth="yes"/>
      <point x="80" y="494"/>
      <point x="105" y="446"/>
      <point x="126" y="429.5" type="qcurve" smooth="yes" name="inserted"/>
      <point x="147" y="413"/>
      <point x="202" y="392"/>
      <point x="232" y="383" type="qcurve"/>
      <point x="232" y="690" type="line"/>
      <point x="194" y="689"/>
      <point x="137" y="662"/>
      <point x="118" y="639.5" type="qcurve" smooth="yes" name="inserted"/>
      <point x="99" y="617"/>
      <point x="80" y="560"/>
    </contour>
  </outline>
</glyph>
<glyph name="percent" format="2">
  <advance width="726"/>
  <unicode hex="0025"/>
  <outline>
    <contour>
      <point x="454.0" y="45.5" type="qcurve" smooth="yes" name="inserted"/>
      <point x="467" y="33"/>
      <point x="502" y="18"/>
      <point x="522" y="18" type="qcurve" smooth="yes"/>
      <point x="542" y="18"/>
      <point x="577" y="33"/>
      <point x="590.0" y="45.5" type="qcurve" smooth="yes" name="inserted"/>
      <point x="603" y="58"/>
      <point x="618" y="92"/>
      <point x="618" y="112" type="qcurve" smooth="yes"/>
      <point x="618" y="131"/>
      <point x="603" y="166"/>
      <point x="590.0" y="179.0" type="qcurve" smooth="yes" name="inserted"/>
      <point x="577" y="192"/>
      <point x="542" y="207"/>
      <point x="522" y="207" type="qcurve" smooth="yes"/>
      <point x="502" y="207"/>
      <point x="467" y="192"/>
      <point x="454.0" y="179.0" type="qcurve" smooth="yes" name="inserted"/>
      <point x="441" y="166"/>
      <point x="426" y="131"/>
      <point x="426" y="112" type="qcurve" smooth="yes"/>
      <point x="426" y="92"/>
      <point x="441" y="58"/>
    </contour>
    <contour>
      <point x="599.0" y="35.5" type="qcurve" smooth="yes" name="inserted"/>
      <point x="584" y="21"/>
      <point x="544" y="4"/>
      <point x="522" y="4" type="qcurve" smooth="yes"/>
      <point x="499" y="4"/>
      <point x="459" y="21"/>
      <point x="444.0" y="35.5" type="qcurve" smooth="yes" name="inserted"/>
      <point x="429" y="50"/>
      <point x="412" y="90"/>
      <point x="412" y="113" type="qcurve" smooth="yes"/>
      <point x="412" y="135"/>
      <point x="429" y="175"/>
      <point x="444.0" y="189.5" type="qcurve" smooth="yes" name="inserted"/>
      <point x="459" y="204"/>
      <point x="499" y="221"/>
      <point x="522" y="221" type="qcurve" smooth="yes"/>
      <point x="544" y="221"/>
      <point x="584" y="204"/>
      <point x="599.0" y="189.5" type="qcurve" smooth="yes" name="inserted"/>
      <point x="614" y="175"/>
      <point x="632" y="135"/>
      <point x="632" y="113" type="qcurve" smooth="yes"/>
      <point x="632" y="90"/>
      <point x="614" y="50"/>
    </contour>
    <contour>
      <point x="150.0" y="321.5" type="qcurve" smooth="yes" name="inserted"/>
      <point x="163" y="309"/>
      <point x="198" y="294"/>
      <point x="218" y="294" type="qcurve" smooth="yes"/>
      <point x="238" y="294"/>
      <point x="273" y="309"/>
      <point x="286.0" y="321.5" type="qcurve" smooth="yes" name="inserted"/>
      <point x="299" y="334"/>
      <point x="314" y="368"/>
      <point x="314" y="388" type="qcurve" smooth="yes"/>
      <point x="314" y="407"/>
      <point x="299" y="442"/>
      <point x="286.0" y="455.0" type="qcurve" smooth="yes" name="inserted"/>
      <point x="273" y="468"/>
      <point x="238" y="483"/>
      <point x="218" y="483" type="qcurve" smooth="yes"/>
      <point x="198" y="483"/>
      <point x="163" y="468"/>
      <point x="150.0" y="455.0" type="qcurve" smooth="yes" name="inserted"/>
      <point x="137" y="442"/>
      <point x="122" y="407"/>
      <point x="122" y="388" type="qcurve" smooth="yes"/>
      <point x="122" y="368"/>
      <point x="137" y="334"/>
    </contour>
    <contour>
      <point x="295.0" y="311.5" type="qcurve" smooth="yes" name="inserted"/>
      <point x="280" y="297"/>
      <point x="240" y="280"/>
      <point x="218" y="280" type="qcurve" smooth="yes"/>
      <point x="195" y="280"/>
      <point x="155" y="297"/>
      <point x="140.0" y="311.5" type="qcurve" smooth="yes" name="inserted"/>
      <point x="125" y="326"/>
      <point x="108" y="366"/>
      <point x="108" y="389" type="qcurve" smooth="yes"/>
      <point x="108" y="411"/>
      <point x="125" y="451"/>
      <point x="140.0" y="465.5" type="qcurve" smooth="yes" name="inserted"/>
      <point x="155" y="480"/>
      <point x="195" y="497"/>
      <point x="218" y="497" type="qcurve" smooth="yes"/>
      <point x="240" y="497"/>
      <point x="280" y="480"/>
      <point x="295.0" y="465.5" type="qcurve" smooth="yes" name="inserted"/>
      <point x="310" y="451"/>
      <point x="328" y="411"/>
      <point x="328" y="389" type="qcurve" smooth="yes"/>
      <point x="328" y="366"/>
      <point x="310" y="326"/>
    </contour>
    <contour>
      <point x="224" y="0" type="qcurve"/>
      <point x="208" y="0" type="line"/>
      <point x="283" y="126"/>
      <point x="431" y="374"/>
      <point x="506" y="500" type="qcurve"/>
      <point x="522" y="500" type="line"/>
      <point x="447" y="374"/>
      <point x="299" y="126"/>
    </contour>
  </outline>
</glyph>
<glyph name="ampersand" format="2">
  <advance width="700"/>
  <unicode hex="0026"/>
  <outline>
    <contour>
      <point x="300" y="-7" type="qcurve" smooth="yes"/>
      <point x="259" y="-7"/>
      <point x="189" y="23"/>
      <point x="162.5" y="49.5" type="qcurve" smooth="yes" name="inserted"/>
      <point x="136" y="76"/>
      <point x="106" y="146"/>
      <point x="106" y="187" type="qcurve" smooth="yes"/>
      <point x="106" y="223"/>
      <point x="131" y="288"/>
      <point x="152.5" y="313.5" type="qcurve" smooth="yes" name="inserted"/>
      <point x="174" y="339"/>
      <point x="234" y="373"/>
      <point x="269" y="379" type="qcurve"/>
      <point x="197" y="496" type="line" smooth="yes"/>
      <point x="179" y="526"/>
      <point x="164" y="590"/>
      <point x="169.0" y="621.0" type="qcurve" smooth="yes" name="inserted"/>
      <point x="174" y="652"/>
      <point x="210" y="706"/>
      <point x="243" y="726" type="qcurve" smooth="yes"/>
      <point x="271" y="743"/>
      <point x="330" y="750"/>
      <point x="358.0" y="745.0" type="qcurve" smooth="yes" name="inserted"/>
      <point x="386" y="740"/>
      <point x="435" y="718"/>
      <point x="454" y="706" type="qcurve"/>
      <point x="448" y="693" type="line"/>
      <point x="425" y="706"/>
      <point x="377" y="728"/>
      <point x="352.0" y="733.0" type="qcurve" smooth="yes" name="inserted"/>
      <point x="327" y="738"/>
      <point x="276" y="731"/>
      <point x="251" y="715" type="qcurve" smooth="yes"/>
      <point x="220" y="695"/>
      <point x="186" y="645"/>
      <point x="181.5" y="617.5" type="qcurve" smooth="yes" name="inserted"/>
      <point x="177" y="590"/>
      <point x="191" y="531"/>
      <point x="208" y="504" type="qcurve" smooth="yes"/>
      <point x="457" y="98" type="line"/>
      <point x="468" y="118"/>
      <point x="481" y="162"/>
      <point x="481" y="187" type="qcurve" smooth="yes"/>
      <point x="481" y="375" type="line"/>
      <point x="601" y="375" type="line"/>
      <point x="601" y="361" type="line"/>
      <point x="495" y="361" type="line"/>
      <point x="495" y="274" type="line" smooth="yes"/>
      <point x="495" y="249"/>
      <point x="496" y="200"/>
      <point x="493.5" y="176.0" type="qcurve" smooth="yes" name="inserted"/>
      <point x="491" y="152"/>
      <point x="479" y="106"/>
      <point x="466" y="84" type="qcurve"/>
      <point x="525" y="-11" type="line"/>
      <point x="514" y="-19" type="line"/>
      <point x="457" y="72" type="line"/>
      <point x="431" y="36"/>
      <point x="349" y="-7"/>
    </contour>
    <contour>
      <point x="300" y="7" type="qcurve" smooth="yes"/>
      <point x="347" y="7"/>
      <point x="425" y="50"/>
      <point x="449" y="85" type="qcurve"/>
      <point x="277" y="366" type="line"/>
      <point x="244" y="362"/>
      <point x="186" y="331"/>
      <point x="165.0" y="307.0" type="qcurve" smooth="yes" name="inserted"/>
      <point x="144" y="283"/>
      <point x="120" y="221"/>
      <point x="120" y="187" type="qcurve" smooth="yes"/>
      <point x="120" y="149"/>
      <point x="148" y="84"/>
      <point x="172.5" y="59.5" type="qcurve" smooth="yes" name="inserted"/>
      <point x="197" y="35"/>
      <point x="262" y="7"/>
    </contour>
  </outline>
</glyph>
<glyph name="quotesingle" format="1">
  <advance width="147"/>
  <unicode hex="0027"/>
  <outline>
    <contour>
      <point x="81" y="472" type="qcurve"/>
      <point x="67" y="472" type="line"/>
      <point x="67" y="720" type="line"/>
      <point x="85" y="720" type="line"/>
      <point x="84" y="657"/>
      <point x="82" y="535"/>
    </contour>
  </outline>
</glyph>
<glyph name="parenleft" format="1">
  <advance width="394"/>
  <unicode hex="0028"/>
  <outline>
    <contour>
      <point x="315" y="-140" type="qcurve"/>
      <point x="314" y="-146"/>
      <point x="313" y="-157"/>
      <point x="312" y="-163" type="qcurve"/>
      <point x="280" y="-130"/>
      <point x="221" y="-35"/>
      <point x="198.0" y="23.0" type="qcurve" smooth="yes" name="inserted"/>
      <point x="175" y="81"/>
      <point x="147" y="217"/>
      <point x="147" y="292" type="qcurve" smooth="yes"/>
      <point x="147" y="367"/>
      <point x="175" y="503"/>
      <point x="198.0" y="561.0" type="qcurve" smooth="yes" name="inserted"/>
      <point x="221" y="619"/>
      <point x="280" y="714"/>
      <point x="312" y="747" type="qcurve"/>
      <point x="313" y="741"/>
      <point x="314" y="730"/>
      <point x="315" y="724" type="qcurve"/>
      <point x="286" y="691"/>
      <point x="231" y="601"/>
      <point x="209.0" y="546.0" type="qcurve" smooth="yes" name="inserted"/>
      <point x="187" y="491"/>
      <point x="161" y="363"/>
      <point x="161" y="292" type="qcurve" smooth="yes"/>
      <point x="161" y="221"/>
      <point x="187" y="93"/>
      <point x="209.0" y="38.0" type="qcurve" smooth="yes" name="inserted"/>
      <point x="231" y="-17"/>
      <point x="286" y="-107"/>
    </contour>
  </outline>
</glyph>
<glyph name="parenright" format="2">
  <advance width="400"/>
  <unicode hex="0029"/>
  <outline>
    <contour>
      <point x="228.0" y="23.0" type="qcurve" smooth="yes" name="inserted"/>
      <point x="205" y="-35"/>
      <point x="145" y="-130"/>
      <point x="114" y="-163" type="qcurve"/>
      <point x="113" y="-157"/>
      <point x="112" y="-146"/>
      <point x="111" y="-140" type="qcurve"/>
      <point x="140" y="-107"/>
      <point x="195" y="-17"/>
      <point x="217.0" y="38.0" type="qcurve" smooth="yes" name="inserted"/>
      <point x="239" y="93"/>
      <point x="265" y="221"/>
      <point x="265" y="292" type="qcurve" smooth="yes"/>
      <point x="265" y="363"/>
      <point x="239" y="491"/>
      <point x="217.0" y="546.0" type="qcurve" smooth="yes" name="inserted"/>
      <point x="195" y="601"/>
      <point x="140" y="691"/>
      <point x="111" y="724" type="qcurve"/>
      <point x="112" y="730"/>
      <point x="113" y="741"/>
      <point x="114" y="747" type="qcurve"/>
      <point x="145" y="714"/>
      <point x="205" y="619"/>
      <point x="228.0" y="561.0" type="qcurve" smooth="yes" name="inserted"/>
      <point x="251" y="503"/>
      <point x="279" y="367"/>
      <point x="279" y="292" type="qcurve" smooth="yes"/>
      <point x="279" y="217"/>
      <point x="251" y="81"/>
    </contour>
  </outline>
</glyph>
<glyph name="asterisk" format="2">
  <advance width="335"/>
  <unicode hex="002A"/>
  <outline>
    <contour>
      <point x="172" y="434" type="qcurve"/>
      <point x="158" y="434" type="line"/>
      <point x="158" y="561" type="line"/>
      <point x="130" y="545"/>
      <point x="76" y="514"/>
      <point x="48" y="498" type="qcurve"/>
      <point x="39" y="513" type="line"/>
      <point x="76" y="534"/>
      <point x="113" y="555"/>
      <point x="150" y="576" type="qcurve"/>
      <point x="113" y="598"/>
      <point x="76" y="620"/>
      <point x="39" y="642" type="qcurve"/>
      <point x="46" y="654" type="line"/>
      <point x="74" y="637"/>
      <point x="130" y="606"/>
      <point x="158" y="589" type="qcurve"/>
      <point x="158" y="720" type="line"/>
      <point x="176" y="720" type="line"/>
      <point x="175" y="687"/>
      <point x="175" y="622"/>
      <point x="174" y="589" type="qcurve"/>
      <point x="203" y="605"/>
      <point x="259" y="637"/>
      <point x="288" y="653" type="qcurve"/>
      <point x="295" y="641" type="line"/>
      <point x="266" y="624"/>
      <point x="211" y="592"/>
      <point x="182" y="575" type="qcurve"/>
      <point x="294" y="511" type="line"/>
      <point x="285" y="496" type="line"/>
      <point x="248" y="518"/>
      <point x="211" y="540"/>
      <point x="174" y="562" type="qcurve"/>
      <point x="173" y="530"/>
      <point x="173" y="466"/>
    </contour>
  </outline>
</glyph>
<glyph name="plus" format="2">
  <advance width="543"/>
  <unicode hex="002B"/>
  <outline>
    <contour>
      <point x="273" y="51" type="line"/>
      <point x="259" y="51" type="line"/>
      <point x="259" y="225" type="line"/>
      <point x="86" y="225" type="line"/>
      <point x="86" y="239" type="line"/>
      <point x="259" y="239" type="line"/>
      <point x="259" y="411" type="line"/>
      <point x="273" y="411" type="line"/>
      <point x="273" y="239" type="line"/>
      <point x="446" y="239" type="line"/>
      <point x="446" y="225" type="line"/>
      <point x="273" y="225" type="line"/>
    </contour>
  </outline>
</glyph>
<glyph name="comma" format="1">
  <advance width="200"/>
  <unicode hex="002C"/>
  <outline>
    <contour>
      <point x="41" y="-120" type="qcurve"/>
      <point x="27" y="-120" type="line"/>
      <point x="47" y="-68"/>
      <point x="84" y="34"/>
      <point x="104" y="86" type="qcurve"/>
      <point x="127" y="86" type="line"/>
      <point x="105" y="34"/>
      <point x="63" y="-68"/>
    </contour>
  </outline>
</glyph>
<glyph name="hyphen" format="2">
  <advance width="300"/>
  <unicode hex="002D"/>
  <outline>
    <contour>
      <point x="237" y="184" type="line"/>
      <point x="53" y="184" type="line"/>
      <point x="53" y="198" type="line"/>
      <point x="237" y="198" type="line"/>
    </contour>
  </outline>
</glyph>
<glyph name="slash" format="1">
  <advance width="322"/>
  <unicode hex="002F"/>
  <outline>
    <contour>
      <point x="31" y="-19" type="qcurve"/>
      <point x="17" y="-19" type="line"/>
      <point x="87" y="171"/>
      <point x="225" y="546"/>
      <point x="295" y="736" type="qcurve"/>
      <point x="309" y="736" type="line"/>
      <point x="239" y="546"/>
      <point x="101" y="171"/>
    </contour>
  </outline>
</glyph>
<glyph name="zero" format="2">
  <advance width="616"/>
  <unicode hex="0030"/>
  <outline>
    <contour>
      <point x="492" y="89" type="qcurve" smooth="yes" name="inserted"/>
      <point x="455" y="44"/>
      <point x="356" y="-7"/>
      <point x="301" y="-7" type="qcurve" smooth="yes"/>
      <point x="246" y="-7"/>
      <point x="149" y="46"/>
      <point x="113" y="91" type="qcurve" smooth="yes" name="inserted"/>
      <point x="77" y="136"/>
      <point x="36" y="257"/>
      <point x="36" y="327" type="qcurve" smooth="yes"/>
      <point x="36" y="375"/>
      <point x="65" y="490"/>
      <point x="97" y="540.5" type="qcurve" smooth="yes" name="inserted"/>
      <point x="129" y="591"/>
      <point x="233" y="658"/>
      <point x="308" y="658" type="qcurve" smooth="yes"/>
      <point x="382" y="658"/>
      <point x="484" y="589"/>
      <point x="515" y="538.5" type="qcurve" smooth="yes" name="inserted"/>
      <point x="546" y="488"/>
      <point x="573" y="372"/>
      <point x="573" y="324" type="qcurve" smooth="yes"/>
      <point x="573" y="255"/>
      <point x="529" y="134"/>
    </contour>
    <contour>
      <point x="128" y="95" type="qcurve" smooth="yes" name="inserted"/>
      <point x="163" y="53"/>
      <point x="255" y="7"/>
      <point x="303" y="7" type="qcurve" smooth="yes"/>
      <point x="351" y="7"/>
      <point x="443" y="51"/>
      <point x="479" y="92" type="qcurve" smooth="yes" name="inserted"/>
      <point x="515" y="133"/>
      <point x="559" y="251"/>
      <point x="559" y="323" type="qcurve" smooth="yes"/>
      <point x="559" y="396"/>
      <point x="521" y="515"/>
      <point x="487" y="556.5" type="qcurve" smooth="yes" name="inserted"/>
      <point x="453" y="598"/>
      <point x="361" y="644"/>
      <point x="307" y="644" type="qcurve" smooth="yes"/>
      <point x="253" y="644"/>
      <point x="160" y="601"/>
      <point x="125.5" y="559.5" type="qcurve" smooth="yes" name="inserted"/>
      <point x="91" y="518"/>
      <point x="51" y="401"/>
      <point x="51" y="328" type="qcurve" smooth="yes"/>
      <point x="51" y="255"/>
      <point x="93" y="137"/>
    </contour>
  </outline>
</glyph>
<glyph name="three" format="2">
  <advance width="515"/>
  <unicode hex="0033"/>
  <outline>
    <contour>
      <point x="386.0" y="51.5" type="qcurve" smooth="yes" name="inserted"/>
      <point x="358" y="24"/>
      <point x="284" y="-8"/>
      <point x="242" y="-8" type="qcurve" smooth="yes"/>
      <point x="197" y="-8"/>
      <point x="121" y="28"/>
      <point x="93" y="58" type="qcurve"/>
      <point x="103" y="71" type="line"/>
      <point x="127" y="42"/>
      <point x="197" y="6"/>
      <point x="239" y="6" type="qcurve" smooth="yes"/>
      <point x="278" y="6"/>
      <point x="349" y="36"/>
      <point x="375.0" y="62.0" type="qcurve" smooth="yes" name="inserted"/>
      <point x="401" y="88"/>
      <point x="432" y="157"/>
      <point x="432" y="195" type="qcurve" smooth="yes"/>
      <point x="432" y="234"/>
      <point x="401" y="303"/>
      <point x="375.0" y="328.5" type="qcurve" smooth="yes" name="inserted"/>
      <point x="349" y="354"/>
      <point x="278" y="384"/>
      <point x="239" y="384" type="qcurve" smooth="yes"/>
      <point x="223" y="384"/>
      <point x="192" y="372"/>
      <point x="178" y="361" type="qcurve"/>
      <point x="390" y="636" type="line"/>
      <point x="117" y="636" type="line"/>
      <point x="117" y="568" type="line"/>
      <point x="103" y="568" type="line"/>
      <point x="103" y="650" type="line"/>
      <point x="422" y="650" type="line"/>
      <point x="223" y="398" type="line"/>
      <point x="268" y="400"/>
      <point x="349" y="371"/>
      <point x="379.5" y="344.0" type="qcurve" smooth="yes" name="inserted"/>
      <point x="410" y="317"/>
      <point x="446" y="240"/>
      <point x="446" y="195" type="qcurve" smooth="yes"/>
      <point x="446" y="153"/>
      <point x="414" y="79"/>
    </contour>
  </outline>
</glyph>
<glyph name="four" format="2">
  <advance width="505"/>
  <unicode hex="0034"/>
  <outline>
    <contour>
      <point x="486" y="0" type="line"/>
      <point x="312" y="0" type="line"/>
      <point x="312" y="14" type="line"/>
      <point x="389" y="14" type="line"/>
      <point x="389" y="183" type="line"/>
      <point x="37" y="183" type="line"/>
      <point x="403" y="658" type="line"/>
      <point x="403" y="197" type="line"/>
      <point x="500" y="197" type="line"/>
      <point x="500" y="183" type="line"/>
      <point x="403" y="183" type="line"/>
      <point x="403" y="14" type="line"/>
      <point x="486" y="14" type="line"/>
    </contour>
    <contour>
      <point x="389" y="617" type="line"/>
      <point x="67" y="197" type="line"/>
      <point x="389" y="197" type="line"/>
    </contour>
  </outline>
</glyph>
<glyph name="five" format="1">
  <advance width="543"/>
  <unicode hex="0035"/>
  <outline>
    <contour>
      <point x="399.5" y="51.5" type="qcurve" smooth="yes" name="inserted"/>
      <point x="372" y="24"/>
      <point x="297" y="-8"/>
      <point x="255" y="-8" type="qcurve" smooth="yes"/>
      <point x="214" y="-8"/>
      <point x="143" y="22"/>
      <point x="115" y="48" type="qcurve"/>
      <point x="126" y="58" type="line"/>
      <point x="150" y="33"/>
      <point x="215" y="6"/>
      <point x="253" y="6" type="qcurve" smooth="yes"/>
      <point x="293" y="6"/>
      <point x="363" y="36"/>
      <point x="389.0" y="62.0" type="qcurve" smooth="yes" name="inserted"/>
      <point x="415" y="88"/>
      <point x="446" y="157"/>
      <point x="446" y="195" type="qcurve" smooth="yes"/>
      <point x="446" y="234"/>
      <point x="415" y="301"/>
      <point x="389.0" y="326.5" type="qcurve" smooth="yes" name="inserted"/>
      <point x="363" y="352"/>
      <point x="293" y="381"/>
      <point x="253" y="381" type="qcurve" smooth="yes"/>
      <point x="218" y="381"/>
      <point x="160" y="358"/>
      <point x="143" y="341" type="qcurve"/>
      <point x="143" y="650" type="line"/>
      <point x="430" y="650" type="line"/>
      <point x="430" y="568" type="line"/>
      <point x="416" y="568" type="line"/>
      <point x="416" y="636" type="line"/>
      <point x="157" y="636" type="line"/>
      <point x="157" y="372" type="line"/>
      <point x="180" y="383"/>
      <point x="229" y="395"/>
      <point x="255" y="395" type="qcurve" smooth="yes"/>
      <point x="297" y="395"/>
      <point x="372" y="364"/>
      <point x="399.5" y="337.0" type="qcurve" smooth="yes" name="inserted"/>
      <point x="427" y="310"/>
      <point x="460" y="237"/>
      <point x="460" y="195" type="qcurve" smooth="yes"/>
      <point x="460" y="153"/>
      <point x="427" y="79"/>
    </contour>
  </outline>
</glyph>
<glyph name="six" format="2">
  <advance width="520"/>
  <unicode hex="0036"/>
  <outline>
    <contour>
      <point x="118.5" y="60.5" type="qcurve" smooth="yes" name="inserted"/>
      <point x="144" y="35"/>
      <point x="214" y="6"/>
      <point x="253" y="6" type="qcurve" smooth="yes"/>
      <point x="292" y="6"/>
      <point x="362" y="35"/>
      <point x="388.0" y="60.5" type="qcurve" smooth="yes" name="inserted"/>
      <point x="414" y="86"/>
      <point x="444" y="154"/>
      <point x="444" y="193" type="qcurve" smooth="yes"/>
      <point x="444" y="232"/>
      <point x="414" y="300"/>
      <point x="388.0" y="325.5" type="qcurve" smooth="yes" name="inserted"/>
      <point x="362" y="351"/>
      <point x="292" y="381"/>
      <point x="253" y="381" type="qcurve" smooth="yes"/>
      <point x="214" y="381"/>
      <point x="144" y="351"/>
      <point x="118.5" y="325.5" type="qcurve" smooth="yes" name="inserted"/>
      <point x="93" y="300"/>
      <point x="63" y="232"/>
      <point x="63" y="193" type="qcurve" smooth="yes"/>
      <point x="63" y="154"/>
      <point x="93" y="86"/>
    </contour>
    <contour>
      <point x="398.5" y="51.0" type="qcurve" smooth="yes" name="inserted"/>
      <point x="371" y="24"/>
      <point x="296" y="-8"/>
      <point x="254" y="-8" type="qcurve" smooth="yes"/>
      <point x="212" y="-8"/>
      <point x="137" y="24"/>
      <point x="109.5" y="51.0" type="qcurve" smooth="yes" name="inserted"/>
      <point x="82" y="78"/>
      <point x="50" y="151"/>
      <point x="50" y="193" type="qcurve" smooth="yes"/>
      <point x="50" y="266"/>
      <point x="112" y="391"/>
      <point x="160.0" y="445.0" type="qcurve" smooth="yes" name="inserted"/>
      <point x="208" y="499"/>
      <point x="326" y="592"/>
      <point x="382" y="633" type="qcurve"/>
      <point x="384" y="630"/>
      <point x="390" y="623"/>
      <point x="392" y="620" type="qcurve"/>
      <point x="325" y="576"/>
      <point x="223" y="490"/>
      <point x="186.5" y="450.5" type="qcurve" smooth="yes" name="inserted"/>
      <point x="150" y="411"/>
      <point x="103" y="342"/>
      <point x="91" y="314" type="qcurve"/>
      <point x="119" y="351"/>
      <point x="203" y="395"/>
      <point x="254" y="395" type="qcurve" smooth="yes"/>
      <point x="296" y="395"/>
      <point x="371" y="363"/>
      <point x="398.5" y="335.5" type="qcurve" smooth="yes" name="inserted"/>
      <point x="426" y="308"/>
      <point x="458" y="235"/>
      <point x="458" y="193" type="qcurve" smooth="yes"/>
      <point x="458" y="151"/>
      <point x="426" y="78"/>
    </contour>
  </outline>
</glyph>
<glyph name="seven" format="1">
  <advance width="469"/>
  <unicode hex="0037"/>
  <outline>
    <contour>
      <point x="123" y="0" type="line"/>
      <point x="105" y="0" type="line"/>
      <point x="392" y="636" type="line"/>
      <point x="28" y="636" type="line"/>
      <point x="28" y="568" type="line"/>
      <point x="14" y="568" type="line"/>
      <point x="14" y="650" type="line"/>
      <point x="415" y="650" type="line"/>
    </contour>
  </outline>
</glyph>
<glyph name="eight" format="2">
  <advance width="510"/>
  <unicode hex="0038"/>
  <outline>
    <contour>
      <point x="160" y="428.5" type="qcurve" smooth="yes" name="inserted"/>
      <point x="178" y="413"/>
      <point x="226" y="396"/>
      <point x="254" y="396" type="qcurve" smooth="yes"/>
      <point x="281" y="396"/>
      <point x="328" y="413"/>
      <point x="345.5" y="428.5" type="qcurve" smooth="yes" name="inserted"/>
      <point x="363" y="444"/>
      <point x="382" y="486"/>
      <point x="382" y="511" type="qcurve" smooth="yes"/>
      <point x="382" y="538"/>
      <point x="363" y="586"/>
      <point x="345.5" y="604" type="qcurve" smooth="yes" name="inserted"/>
      <point x="328" y="622"/>
      <point x="281" y="644"/>
      <point x="254" y="644" type="qcurve" smooth="yes"/>
      <point x="226" y="644"/>
      <point x="178" y="622"/>
      <point x="160" y="604" type="qcurve" smooth="yes" name="inserted"/>
      <point x="142" y="586"/>
      <point x="122" y="538"/>
      <point x="122" y="511" type="qcurve" smooth="yes"/>
      <point x="122" y="486"/>
      <point x="142" y="444"/>
    </contour>
    <contour>
      <point x="121" y="62" type="qcurve" smooth="yes" name="inserted"/>
      <point x="146" y="36"/>
      <point x="214" y="5"/>
      <point x="253" y="5" type="qcurve" smooth="yes"/>
      <point x="293" y="5"/>
      <point x="363" y="36"/>
      <point x="389" y="62" type="qcurve" smooth="yes" name="inserted"/>
      <point x="415" y="88"/>
      <point x="446" y="157"/>
      <point x="446" y="195" type="qcurve" smooth="yes"/>
      <point x="446" y="234"/>
      <point x="415" y="301"/>
      <point x="389" y="326.5" type="qcurve" smooth="yes" name="inserted"/>
      <point x="363" y="352"/>
      <point x="293" y="381"/>
      <point x="253" y="381" type="qcurve" smooth="yes"/>
      <point x="214" y="381"/>
      <point x="146" y="352"/>
      <point x="121" y="326.5" type="qcurve" smooth="yes" name="inserted"/>
      <point x="96" y="301"/>
      <point x="67" y="234"/>
      <point x="67" y="195" type="qcurve" smooth="yes"/>
      <point x="67" y="157"/>
      <point x="96" y="88"/>
    </contour>
    <contour>
      <point x="399.5" y="51.5" type="qcurve" smooth="yes" name="inserted"/>
      <point x="372" y="24"/>
      <point x="297" y="-8"/>
      <point x="255" y="-8" type="qcurve" smooth="yes"/>
      <point x="213" y="-8"/>
      <point x="140" y="24"/>
      <point x="112.5" y="51.5" type="qcurve" smooth="yes" name="inserted"/>
      <point x="85" y="79"/>
      <point x="53" y="153"/>
      <point x="53" y="195" type="qcurve" smooth="yes"/>
      <point x="53" y="230"/>
      <point x="76" y="293"/>
      <point x="96" y="318.5" type="qcurve" smooth="yes" name="inserted"/>
      <point x="116" y="344"/>
      <point x="171" y="381"/>
      <point x="204" y="389" type="qcurve"/>
      <point x="162" y="403"/>
      <point x="108" y="472"/>
      <point x="108" y="518" type="qcurve" smooth="yes"/>
      <point x="108" y="547"/>
      <point x="131" y="598"/>
      <point x="150.5" y="617" type="qcurve" smooth="yes" name="inserted"/>
      <point x="170" y="636"/>
      <point x="222" y="658"/>
      <point x="252" y="658" type="qcurve" smooth="yes"/>
      <point x="282" y="658"/>
      <point x="334" y="635"/>
      <point x="353.5" y="615.5" type="qcurve" smooth="yes" name="inserted"/>
      <point x="373" y="596"/>
      <point x="396" y="544"/>
      <point x="396" y="514" type="qcurve" smooth="yes"/>
      <point x="396" y="470"/>
      <point x="345" y="403"/>
      <point x="304" y="389" type="qcurve"/>
      <point x="337" y="381"/>
      <point x="394" y="345"/>
      <point x="415" y="319.5" type="qcurve" smooth="yes" name="inserted"/>
      <point x="436" y="294"/>
      <point x="460" y="231"/>
      <point x="460" y="195" type="qcurve" smooth="yes"/>
      <point x="460" y="153"/>
      <point x="427" y="79"/>
    </contour>
  </outline>
</glyph>
<glyph name="nine" format="2">
  <advance width="525"/>
  <unicode hex="0039"/>
  <outline>
    <contour>
      <point x="125" y="298.5" type="qcurve" smooth="yes" name="inserted"/>
      <point x="151" y="273"/>
      <point x="221" y="244"/>
      <point x="260" y="244" type="qcurve" smooth="yes"/>
      <point x="299" y="244"/>
      <point x="369" y="273"/>
      <point x="394.5" y="298.5" type="qcurve" smooth="yes" name="inserted"/>
      <point x="420" y="324"/>
      <point x="450" y="393"/>
      <point x="450" y="432" type="qcurve" smooth="yes"/>
      <point x="450" y="471"/>
      <point x="420" y="539"/>
      <point x="394.5" y="564.5" type="qcurve" smooth="yes" name="inserted"/>
      <point x="369" y="590"/>
      <point x="299" y="619"/>
      <point x="260" y="619" type="qcurve" smooth="yes"/>
      <point x="221" y="619"/>
      <point x="151" y="590"/>
      <point x="125" y="564.5" type="qcurve" smooth="yes" name="inserted"/>
      <point x="99" y="539"/>
      <point x="69" y="471"/>
      <point x="69" y="432" type="qcurve" smooth="yes"/>
      <point x="69" y="393"/>
      <point x="99" y="324"/>
    </contour>
    <contour>
      <point x="353" y="180" type="qcurve" smooth="yes" name="inserted"/>
      <point x="305" y="126"/>
      <point x="187" y="33"/>
      <point x="131" y="-8" type="qcurve"/>
      <point x="129" y="-5"/>
      <point x="123" y="2"/>
      <point x="121" y="5" type="qcurve"/>
      <point x="188" y="49"/>
      <point x="290" y="135"/>
      <point x="326.5" y="174.5" type="qcurve" smooth="yes" name="inserted"/>
      <point x="363" y="214"/>
      <point x="410" y="283"/>
      <point x="422" y="311" type="qcurve"/>
      <point x="394" y="274"/>
      <point x="310" y="230"/>
      <point x="259" y="230" type="qcurve" smooth="yes"/>
      <point x="217" y="230"/>
      <point x="142" y="262"/>
      <point x="114.5" y="289.5" type="qcurve" smooth="yes" name="inserted"/>
      <point x="87" y="317"/>
      <point x="55" y="390"/>
      <point x="55" y="432" type="qcurve" smooth="yes"/>
      <point x="55" y="474"/>
      <point x="87" y="547"/>
      <point x="114.5" y="574" type="qcurve" smooth="yes" name="inserted"/>
      <point x="142" y="601"/>
      <point x="217" y="633"/>
      <point x="259" y="633" type="qcurve" smooth="yes"/>
      <point x="301" y="633"/>
      <point x="376" y="601"/>
      <point x="403.5" y="574" type="qcurve" smooth="yes" name="inserted"/>
      <point x="431" y="547"/>
      <point x="463" y="474"/>
      <point x="463" y="432" type="qcurve" smooth="yes"/>
      <point x="463" y="359"/>
      <point x="401" y="234"/>
    </contour>
  </outline>
</glyph>
<glyph name="colon" format="1">
  <advance width="175"/>
  <unicode hex="003A"/>
  <outline>
    <contour>
      <point x="105" y="270" type="qcurve" smooth="yes"/>
      <point x="105" y="262"/>
      <point x="93" y="250"/>
      <point x="85" y="250" type="qcurve" smooth="yes"/>
      <point x="77" y="250"/>
      <point x="65" y="262"/>
      <point x="65" y="270" type="qcurve" smooth="yes"/>
      <point x="65" y="278"/>
      <point x="77" y="290"/>
      <point x="85" y="290" type="qcurve" smooth="yes"/>
      <point x="93" y="290"/>
      <point x="105" y="278"/>
    </contour>
    <contour>
      <point x="105" y="20" type="qcurve" smooth="yes"/>
      <point x="105" y="12"/>
      <point x="93" y="0"/>
      <point x="85" y="0" type="qcurve" smooth="yes"/>
      <point x="77" y="0"/>
      <point x="65" y="12"/>
      <point x="65" y="20" type="qcurve" smooth="yes"/>
      <point x="65" y="28"/>
      <point x="77" y="40"/>
      <point x="85" y="40" type="qcurve" smooth="yes"/>
      <point x="93" y="40"/>
      <point x="105" y="28"/>
    </contour>
  </outline>
</glyph>
<glyph name="semicolon" format="1">
  <advance width="201"/>
  <unicode hex="003B"/>
  <outline>
    <contour>
      <point x="128" y="270" type="qcurve" smooth="yes"/>
      <point x="128" y="262"/>
      <point x="116" y="250"/>
      <point x="108" y="250" type="qcurve" smooth="yes"/>
      <point x="100" y="250"/>
      <point x="88" y="262"/>
      <point x="88" y="270" type="qcurve" smooth="yes"/>
      <point x="88" y="278"/>
      <point x="100" y="290"/>
      <point x="108" y="290" type="qcurve" smooth="yes"/>
      <point x="116" y="290"/>
      <point x="128" y="278"/>
    </contour>
    <contour>
      <point x="26" y="-120" type="qcurve"/>
      <point x="12" y="-120" type="line"/>
      <point x="32" y="-68"/>
      <point x="69" y="34"/>
      <point x="89" y="86" type="qcurve"/>
      <point x="112" y="86" type="line"/>
      <point x="90" y="34"/>
      <point x="48" y="-68"/>
    </contour>
  </outline>
</glyph>
<glyph name="less" format="2">
  <advance width="680"/>
  <unicode hex="003C"/>
  <outline>
    <contour>
      <point x="553" y="1" type="qcurve"/>
      <point x="553" y="-15" type="line"/>
      <point x="443" y="48"/>
      <point x="225" y="175"/>
      <point x="115" y="238" type="qcurve"/>
      <point x="225" y="301"/>
      <point x="443" y="428"/>
      <point x="553" y="491" type="qcurve"/>
      <point x="553" y="475" type="line"/>
      <point x="450" y="415"/>
      <point x="244" y="298"/>
      <point x="141" y="238" type="qcurve"/>
      <point x="244" y="178"/>
      <point x="450" y="61"/>
    </contour>
  </outline>
</glyph>
<glyph name="greater" format="2">
  <advance width="650"/>
  <unicode hex="003E"/>
  <outline>
    <contour>
      <point x="553" y="238" type="qcurve"/>
      <point x="443" y="175"/>
      <point x="225" y="48"/>
      <point x="115" y="-15" type="qcurve"/>
      <point x="115" y="1" type="line"/>
      <point x="218" y="61"/>
      <point x="424" y="178"/>
      <point x="527" y="238" type="qcurve"/>
      <point x="424" y="298"/>
      <point x="218" y="415"/>
      <point x="115" y="475" type="qcurve"/>
      <point x="115" y="491" type="line"/>
      <point x="225" y="428"/>
      <point x="443" y="301"/>
    </contour>
  </outline>
</glyph>
<glyph name="question" format="1">
  <advance width="452"/>
  <unicode hex="003F"/>
  <outline>
    <contour>
      <point x="222" y="164" type="line"/>
      <point x="208" y="164" type="line"/>
      <point x="208" y="261" type="line" smooth="yes"/>
      <point x="208" y="292"/>
      <point x="231" y="329"/>
      <point x="249.5" y="343.5" type="qcurve" smooth="yes" name="inserted"/>
      <point x="268" y="358"/>
      <point x="315" y="387"/>
      <point x="339" y="408" type="qcurve" smooth="yes"/>
      <point x="370" y="435"/>
      <point x="398" y="500"/>
      <point x="398" y="537" type="qcurve" smooth="yes"/>
      <point x="398" y="576"/>
      <point x="370" y="642"/>
      <point x="345.5" y="666.5" type="qcurve" smooth="yes" name="inserted"/>
      <point x="321" y="691"/>
      <point x="254" y="718"/>
      <point x="216" y="718" type="qcurve" smooth="yes"/>
      <point x="186" y="718"/>
      <point x="132" y="700"/>
      <point x="109.0" y="684.0" type="qcurve" smooth="yes" name="inserted"/>
      <point x="86" y="668"/>
      <point x="53" y="623"/>
      <point x="44" y="596" type="qcurve"/>
      <point x="41" y="597"/>
      <point x="34" y="598"/>
      <point x="31" y="599" type="qcurve"/>
      <point x="51" y="657"/>
      <point x="151" y="732"/>
      <point x="216" y="732" type="qcurve" smooth="yes"/>
      <point x="257" y="732"/>
      <point x="329" y="701"/>
      <point x="355.5" y="674.5" type="qcurve" smooth="yes" name="inserted"/>
      <point x="382" y="648"/>
      <point x="412" y="577"/>
      <point x="412" y="537" type="qcurve" smooth="yes"/>
      <point x="412" y="483"/>
      <point x="359" y="402"/>
      <point x="314" y="370" type="qcurve" smooth="yes"/>
      <point x="294" y="356"/>
      <point x="261" y="337"/>
      <point x="248.5" y="325.0" type="qcurve" smooth="yes" name="inserted"/>
      <point x="236" y="313"/>
      <point x="222" y="275"/>
      <point x="222" y="242" type="qcurve" smooth="yes"/>
    </contour>
    <contour>
      <point x="235" y="45" type="qcurve" smooth="yes"/>
      <point x="235" y="37"/>
      <point x="223" y="25"/>
      <point x="215" y="25" type="qcurve" smooth="yes"/>
      <point x="208" y="25"/>
      <point x="196" y="37"/>
      <point x="196" y="45" type="qcurve" smooth="yes"/>
      <point x="196" y="54"/>
      <point x="208" y="65"/>
      <point x="215" y="65" type="qcurve" smooth="yes"/>
      <point x="223" y="65"/>
      <point x="235" y="54"/>
    </contour>
  </outline>
</glyph>
<glyph name="at" format="2">
  <advance width="990"/>
  <unicode hex="0040"/>
  <outline>
    <contour>
      <point x="362.5" y="60.5" type="qcurve" smooth="yes" name="inserted"/>
      <point x="387" y="36"/>
      <point x="452" y="8"/>
      <point x="490" y="8" type="qcurve" smooth="yes"/>
      <point x="527" y="8"/>
      <point x="593" y="36"/>
      <point x="618.0" y="60.5" type="qcurve" smooth="yes" name="inserted"/>
      <point x="643" y="85"/>
      <point x="671" y="150"/>
      <point x="671" y="188" type="qcurve" smooth="yes"/>
      <point x="671" y="225"/>
      <point x="643" y="291"/>
      <point x="618.0" y="316.0" type="qcurve" smooth="yes" name="inserted"/>
      <point x="593" y="341"/>
      <point x="527" y="369"/>
      <point x="490" y="369" type="qcurve" smooth="yes"/>
      <point x="452" y="369"/>
      <point x="387" y="341"/>
      <point x="362.5" y="316.0" type="qcurve" smooth="yes" name="inserted"/>
      <point x="338" y="291"/>
      <point x="310" y="225"/>
      <point x="310" y="188" type="qcurve" smooth="yes"/>
      <point x="310" y="150"/>
      <point x="338" y="85"/>
    </contour>
    <contour>
      <point x="717" y="-134" type="qcurve"/>
      <point x="667" y="-168"/>
      <point x="555" y="-207"/>
      <point x="489" y="-207" type="qcurve" smooth="yes"/>
      <point x="407" y="-207"/>
      <point x="263" y="-145"/>
      <point x="210" y="-91" type="qcurve" smooth="yes" name="inserted"/>
      <point x="156" y="-37"/>
      <point x="94" y="107"/>
      <point x="94" y="189" type="qcurve" smooth="yes"/>
      <point x="94" y="271"/>
      <point x="156" y="415"/>
      <point x="210" y="469" type="qcurve" smooth="yes" name="inserted"/>
      <point x="263" y="523"/>
      <point x="407" y="585"/>
      <point x="489" y="585" type="qcurve" smooth="yes"/>
      <point x="571" y="585"/>
      <point x="715" y="523"/>
      <point x="769" y="469" type="qcurve" smooth="yes" name="inserted"/>
      <point x="823" y="415"/>
      <point x="885" y="270"/>
      <point x="885" y="188" type="qcurve"/>
      <point x="883" y="129"/>
      <point x="859" y="55"/>
      <point x="840" y="34" type="qcurve" smooth="yes" name="inserted"/>
      <point x="821" y="14"/>
      <point x="774" y="0"/>
      <point x="749" y="0" type="qcurve" smooth="yes"/>
      <point x="671" y="0" type="line"/>
      <point x="671" y="54" type="line"/>
      <point x="672" y="117" type="line"/>
      <point x="661" y="90"/>
      <point x="625" y="45"/>
      <point x="602" y="28" type="qcurve" smooth="yes" name="inserted"/>
      <point x="578" y="12"/>
      <point x="521" y="-6"/>
      <point x="490" y="-6" type="qcurve" smooth="yes"/>
      <point x="449" y="-6"/>
      <point x="379" y="24"/>
      <point x="352" y="50" type="qcurve" smooth="yes" name="inserted"/>
      <point x="326" y="77"/>
      <point x="296" y="147"/>
      <point x="296" y="188" type="qcurve" smooth="yes"/>
      <point x="296" y="228"/>
      <point x="326" y="300"/>
      <point x="352" y="326" type="qcurve" smooth="yes" name="inserted"/>
      <point x="379" y="352"/>
      <point x="449" y="383"/>
      <point x="490" y="383" type="qcurve" smooth="yes"/>
      <point x="530" y="383"/>
      <point x="599" y="354"/>
      <point x="625" y="328" type="qcurve" smooth="yes"/>
      <point x="640" y="314"/>
      <point x="663" y="279"/>
      <point x="671" y="260" type="qcurve"/>
      <point x="671" y="289"/>
      <point x="673" y="346"/>
      <point x="675" y="375" type="qcurve"/>
      <point x="685" y="375" type="line"/>
      <point x="685" y="13" type="line"/>
      <point x="756" y="13" type="line" smooth="yes"/>
      <point x="781" y="13"/>
      <point x="820" y="30"/>
      <point x="834" y="47" type="qcurve" smooth="yes"/>
      <point x="851" y="68"/>
      <point x="870" y="138"/>
      <point x="871" y="188" type="qcurve" smooth="yes"/>
      <point x="871" y="267"/>
      <point x="811" y="407"/>
      <point x="759" y="459" type="qcurve" smooth="yes" name="inserted"/>
      <point x="707" y="511"/>
      <point x="568" y="571"/>
      <point x="489" y="571" type="qcurve" smooth="yes"/>
      <point x="410" y="571"/>
      <point x="271" y="511"/>
      <point x="220" y="459" type="qcurve" smooth="yes" name="inserted"/>
      <point x="168" y="407"/>
      <point x="108" y="267"/>
      <point x="108" y="188" type="qcurve" smooth="yes"/>
      <point x="108" y="109"/>
      <point x="168" y="-30"/>
      <point x="220" y="-82" type="qcurve" smooth="yes" name="inserted"/>
      <point x="271" y="-133"/>
      <point x="410" y="-193"/>
      <point x="489" y="-193" type="qcurve" smooth="yes"/>
      <point x="551" y="-193"/>
      <point x="661" y="-155"/>
      <point x="708" y="-123" type="qcurve"/>
      <point x="710" y="-126"/>
      <point x="715" y="-131"/>
    </contour>
  </outline>
</glyph>
<glyph name="B" format="2">
  <advance width="516"/>
  <unicode hex="0042"/>
  <outline>
    <contour>
      <point x="269" y="0" type="qcurve" smooth="yes"/>
      <point x="35" y="0" type="line"/>
      <point x="35" y="14" type="line"/>
      <point x="106" y="14" type="line"/>
      <point x="106" y="686" type="line"/>
      <point x="35" y="686" type="line"/>
      <point x="35" y="700" type="line"/>
      <point x="251" y="700" type="line" smooth="yes"/>
      <point x="296" y="700"/>
      <point x="371" y="680"/>
      <point x="398.0" y="659.0" type="qcurve" smooth="yes" name="inserted"/>
      <point x="425" y="638"/>
      <point x="454" y="571"/>
      <point x="454" y="525" type="qcurve" smooth="yes"/>
      <point x="454" y="463"/>
      <point x="392" y="369"/>
      <point x="327" y="352" type="qcurve"/>
      <point x="357" y="346"/>
      <point x="413" y="318"/>
      <point x="434.5" y="296.0" type="qcurve" smooth="yes" name="inserted"/>
      <point x="456" y="274"/>
      <point x="481" y="216"/>
      <point x="481" y="180" type="qcurve" smooth="yes"/>
      <point x="481" y="135"/>
      <point x="445" y="68"/>
      <point x="415.5" y="45.5" type="qcurve" smooth="yes" name="inserted"/>
      <point x="386" y="23"/>
      <point x="310" y="0"/>
    </contour>
    <contour>
      <point x="120" y="344" type="line"/>
      <point x="120" y="14" type="line"/>
      <point x="268" y="14" type="line" smooth="yes"/>
      <point x="308" y="14"/>
      <point x="381" y="34"/>
      <point x="408.0" y="54.5" type="qcurve" smooth="yes" name="inserted"/>
      <point x="435" y="75"/>
      <point x="467" y="136"/>
      <point x="467" y="177" type="qcurve" smooth="yes"/>
      <point x="467" y="220"/>
      <point x="430" y="284"/>
      <point x="399.5" y="304.0" type="qcurve" smooth="yes" name="inserted"/>
      <point x="369" y="324"/>
      <point x="291" y="344"/>
      <point x="249" y="344" type="qcurve" smooth="yes"/>
    </contour>
    <contour>
      <point x="120" y="686" type="line"/>
      <point x="120" y="358" type="line"/>
      <point x="267" y="358" type="line" smooth="yes"/>
      <point x="347" y="358"/>
      <point x="440" y="452"/>
      <point x="440" y="528" type="qcurve" smooth="yes"/>
      <point x="440" y="570"/>
      <point x="414" y="630"/>
      <point x="390.5" y="649.0" type="qcurve" smooth="yes" name="inserted"/>
      <point x="367" y="668"/>
      <point x="302" y="686"/>
      <point x="263" y="686" type="qcurve" smooth="yes"/>
    </contour>
  </outline>
</glyph>
<glyph name="C" format="2">
  <advance width="610"/>
  <unicode hex="0043"/>
  <outline>
    <contour>
      <point x="574" y="42" type="line"/>
      <point x="534" y="19"/>
      <point x="443" y="-8"/>
      <point x="392" y="-8" type="qcurve" smooth="yes"/>
      <point x="318" y="-8"/>
      <point x="188" y="48"/>
      <point x="139.5" y="96.5" type="qcurve" smooth="yes" name="inserted"/>
      <point x="91" y="145"/>
      <point x="35" y="275"/>
      <point x="35" y="349" type="qcurve" smooth="yes"/>
      <point x="35" y="423"/>
      <point x="91" y="554"/>
      <point x="139.5" y="602.5" type="qcurve" smooth="yes" name="inserted"/>
      <point x="188" y="651"/>
      <point x="318" y="708"/>
      <point x="392" y="708" type="qcurve" smooth="yes"/>
      <point x="443" y="708"/>
      <point x="534" y="682"/>
      <point x="575" y="658" type="qcurve"/>
      <point x="575" y="546" type="line"/>
      <point x="561" y="546" type="line"/>
      <point x="561" y="649" type="line"/>
      <point x="523" y="671"/>
      <point x="437" y="694"/>
      <point x="392" y="694" type="qcurve" smooth="yes"/>
      <point x="321" y="694"/>
      <point x="196" y="639"/>
      <point x="149.5" y="592" type="qcurve" smooth="yes" name="inserted"/>
      <point x="103" y="545"/>
      <point x="49" y="419"/>
      <point x="49" y="348" type="qcurve" smooth="yes"/>
      <point x="49" y="277"/>
      <point x="103" y="153"/>
      <point x="149" y="106.5" type="qcurve" smooth="yes" name="inserted"/>
      <point x="195" y="60"/>
      <point x="319" y="6"/>
      <point x="389" y="6" type="qcurve" smooth="yes"/>
      <point x="437" y="6"/>
      <point x="526" y="31"/>
      <point x="565" y="54" type="qcurve"/>
    </contour>
  </outline>
</glyph>
<glyph name="D" format="2">
  <advance width="632"/>
  <unicode hex="0044"/>
  <outline>
    <contour>
      <point x="211" y="0" type="qcurve" smooth="yes"/>
      <point x="35" y="0" type="line"/>
      <point x="35" y="14" type="line"/>
      <point x="108" y="14" type="line"/>
      <point x="108" y="686" type="line"/>
      <point x="35" y="686" type="line"/>
      <point x="35" y="700" type="line"/>
      <point x="245" y="700" type="line" smooth="yes"/>
      <point x="317" y="700"/>
      <point x="445" y="651"/>
      <point x="493.0" y="605.5" type="qcurve" smooth="yes" name="inserted"/>
      <point x="541" y="560"/>
      <point x="597" y="430"/>
      <point x="597" y="350" type="qcurve" smooth="yes"/>
      <point x="597" y="291"/>
      <point x="556" y="167"/>
      <point x="510.0" y="116.0" type="qcurve" smooth="yes" name="inserted"/>
      <point x="464" y="65"/>
      <point x="317" y="0"/>
    </contour>
    <contour>
      <point x="122" y="686" type="line"/>
      <point x="122" y="14" type="line"/>
      <point x="220" y="14" type="line" smooth="yes"/>
      <point x="319" y="14"/>
      <point x="458" y="77"/>
      <point x="501.5" y="125.5" type="qcurve" smooth="yes" name="inserted"/>
      <point x="545" y="174"/>
      <point x="584" y="293"/>
      <point x="584" y="350" type="qcurve" smooth="yes"/>
      <point x="584" y="427"/>
      <point x="531" y="552"/>
      <point x="485.0" y="595.5" type="qcurve" smooth="yes" name="inserted"/>
      <point x="439" y="639"/>
      <point x="318" y="686"/>
      <point x="251" y="686" type="qcurve" smooth="yes"/>
    </contour>
  </outline>
</glyph>
<glyph name="E" format="2">
  <advance width="571"/>
  <unicode hex="0045"/>
  <outline>
    <contour>
      <point x="536" y="0" type="line"/>
      <point x="35" y="0" type="line"/>
      <point x="35" y="14" type="line"/>
      <point x="117" y="14" type="line"/>
      <point x="117" y="686" type="line"/>
      <point x="35" y="686" type="line"/>
      <point x="35" y="700" type="line"/>
      <point x="522" y="700" type="line"/>
      <point x="522" y="546" type="line"/>
      <point x="508" y="546" type="line"/>
      <point x="508" y="686" type="line"/>
      <point x="131" y="686" type="line"/>
      <point x="131" y="360" type="line"/>
      <point x="483" y="360" type="line"/>
      <point x="483" y="346" type="line"/>
      <point x="131" y="346" type="line"/>
      <point x="131" y="14" type="line"/>
      <point x="522" y="14" type="line"/>
      <point x="522" y="154" type="line"/>
      <point x="536" y="154" type="line"/>
    </contour>
  </outline>
</glyph>
<glyph name="F" format="2">
  <advance width="557"/>
  <unicode hex="0046"/>
  <outline>
    <contour>
      <point x="209" y="0" type="line"/>
      <point x="35" y="0" type="line"/>
      <point x="35" y="14" type="line"/>
      <point x="117" y="14" type="line"/>
      <point x="117" y="686" type="line"/>
      <point x="35" y="686" type="line"/>
      <point x="35" y="700" type="line"/>
      <point x="522" y="700" type="line"/>
      <point x="522" y="546" type="line"/>
      <point x="508" y="546" type="line"/>
      <point x="508" y="686" type="line"/>
      <point x="131" y="686" type="line"/>
      <point x="131" y="360" type="line"/>
      <point x="483" y="360" type="line"/>
      <point x="483" y="346" type="line"/>
      <point x="131" y="346" type="line"/>
      <point x="131" y="14" type="line"/>
      <point x="209" y="14" type="line"/>
    </contour>
  </outline>
</glyph>
<glyph name="G" format="2">
  <advance width="609"/>
  <unicode hex="0047"/>
  <outline>
    <contour>
      <point x="574" y="40" type="line"/>
      <point x="534" y="17"/>
      <point x="443" y="-10"/>
      <point x="392" y="-10" type="qcurve" smooth="yes"/>
      <point x="318" y="-10"/>
      <point x="188" y="46"/>
      <point x="139.5" y="94.5" type="qcurve" smooth="yes" name="inserted"/>
      <point x="91" y="143"/>
      <point x="35" y="273"/>
      <point x="35" y="347" type="qcurve" smooth="yes"/>
      <point x="35" y="421"/>
      <point x="91" y="552"/>
      <point x="139.5" y="600.5" type="qcurve" smooth="yes" name="inserted"/>
      <point x="188" y="649"/>
      <point x="318" y="706"/>
      <point x="392" y="706" type="qcurve" smooth="yes"/>
      <point x="443" y="706"/>
      <point x="534" y="680"/>
      <point x="575" y="656" type="qcurve"/>
      <point x="567" y="644" type="line"/>
      <point x="529" y="667"/>
      <point x="440" y="692"/>
      <point x="392" y="692" type="qcurve" smooth="yes"/>
      <point x="321" y="692"/>
      <point x="196" y="637"/>
      <point x="149.5" y="590" type="qcurve" smooth="yes" name="inserted"/>
      <point x="103" y="543"/>
      <point x="49" y="417"/>
      <point x="49" y="346" type="qcurve" smooth="yes"/>
      <point x="49" y="275"/>
      <point x="103" y="151"/>
      <point x="149" y="104.5" type="qcurve" smooth="yes" name="inserted"/>
      <point x="195" y="58"/>
      <point x="319" y="4"/>
      <point x="389" y="4" type="qcurve" smooth="yes"/>
      <point x="436" y="4"/>
      <point x="522" y="27"/>
      <point x="560" y="49" type="qcurve"/>
      <point x="560" y="284" type="line"/>
      <point x="388" y="284" type="line"/>
      <point x="388" y="298" type="line"/>
      <point x="574" y="298" type="line"/>
    </contour>
  </outline>
</glyph>
<glyph name="H" format="1">
  <advance width="716"/>
  <unicode hex="0048"/>
  <outline>
    <contour>
      <point x="209" y="0" type="line"/>
      <point x="35" y="0" type="line"/>
      <point x="35" y="14" type="line"/>
      <point x="112" y="14" type="line"/>
      <point x="112" y="686" type="line"/>
      <point x="35" y="686" type="line"/>
      <point x="35" y="700" type="line"/>
      <point x="209" y="700" type="line"/>
      <point x="209" y="686" type="line"/>
      <point x="126" y="686" type="line"/>
      <point x="126" y="360" type="line"/>
      <point x="590" y="360" type="line"/>
      <point x="590" y="686" type="line"/>
      <point x="507" y="686" type="line"/>
      <point x="507" y="700" type="line"/>
      <point x="681" y="700" type="line"/>
      <point x="681" y="686" type="line"/>
      <point x="604" y="686" type="line"/>
      <point x="604" y="14" type="line"/>
      <point x="681" y="14" type="line"/>
      <point x="681" y="0" type="line"/>
      <point x="507" y="0" type="line"/>
      <point x="507" y="14" type="line"/>
      <point x="590" y="14" type="line"/>
      <point x="590" y="346" type="line"/>
      <point x="126" y="346" type="line"/>
      <point x="126" y="14" type="line"/>
      <point x="209" y="14" type="line"/>
    </contour>
  </outline>
</glyph>
<glyph name="K" format="2">
  <advance width="686"/>
  <unicode hex="004B"/>
  <outline>
    <contour>
      <point x="209" y="0" type="line"/>
      <point x="35" y="0" type="line"/>
      <point x="35" y="14" type="line"/>
      <point x="112" y="14" type="line"/>
      <point x="112" y="686" type="line"/>
      <point x="35" y="686" type="line"/>
      <point x="35" y="700" type="line"/>
      <point x="209" y="700" type="line"/>
      <point x="209" y="686" type="line"/>
      <point x="126" y="686" type="line"/>
      <point x="126" y="360" type="line" smooth="yes"/>
      <point x="126" y="352"/>
      <point x="125" y="339"/>
      <point x="125" y="331" type="qcurve"/>
      <point x="143" y="351" type="line"/>
      <point x="493" y="686" type="line"/>
      <point x="429" y="686" type="line"/>
      <point x="429" y="700" type="line"/>
      <point x="603" y="700" type="line"/>
      <point x="603" y="686" type="line"/>
      <point x="515" y="686" type="line"/>
      <point x="240" y="424" type="line"/>
      <point x="321" y="321"/>
      <point x="482" y="117"/>
      <point x="563" y="14" type="qcurve"/>
      <point x="651" y="14" type="line"/>
      <point x="651" y="0" type="line"/>
      <point x="477" y="0" type="line"/>
      <point x="477" y="14" type="line"/>
      <point x="543" y="14" type="line"/>
      <point x="465" y="114"/>
      <point x="308" y="314"/>
      <point x="229" y="414" type="qcurve"/>
      <point x="126" y="316" type="line"/>
      <point x="126" y="14" type="line"/>
      <point x="209" y="14" type="line"/>
    </contour>
  </outline>
</glyph>
<glyph name="L" format="1">
  <advance width="566"/>
  <unicode hex="004C"/>
  <outline>
    <contour>
      <point x="531" y="0" type="line"/>
      <point x="35" y="0" type="line"/>
      <point x="35" y="14" type="line"/>
      <point x="112" y="14" type="line"/>
      <point x="112" y="686" type="line"/>
      <point x="35" y="686" type="line"/>
      <point x="35" y="700" type="line"/>
      <point x="209" y="700" type="line"/>
      <point x="209" y="686" type="line"/>
      <point x="126" y="686" type="line"/>
      <point x="126" y="14" type="line"/>
      <point x="517" y="14" type="line"/>
      <point x="517" y="154" type="line"/>
      <point x="531" y="154" type="line"/>
    </contour>
  </outline>
</glyph>
<glyph name="M" format="1">
  <advance width="961"/>
  <unicode hex="004D"/>
  <outline>
    <contour>
      <point x="209" y="0" type="line"/>
      <point x="35" y="0" type="line"/>
      <point x="35" y="14" type="line"/>
      <point x="112" y="14" type="line"/>
      <point x="112" y="686" type="line"/>
      <point x="35" y="686" type="line"/>
      <point x="35" y="700" type="line"/>
      <point x="135" y="700" type="line"/>
      <point x="168.0" y="657.0" name="inserted"/>
      <point x="232.5" y="573.0"/>
      <point x="264" y="532" type="qcurve" smooth="yes"/>
      <point x="291" y="497"/>
      <point x="348" y="422"/>
      <point x="376.0" y="385.0" type="qcurve" smooth="yes" name="inserted"/>
      <point x="404" y="348"/>
      <point x="457" y="280"/>
      <point x="478" y="253" type="qcurve"/>
      <point x="564" y="364"/>
      <point x="735" y="589"/>
      <point x="821" y="700" type="qcurve"/>
      <point x="921" y="700" type="line"/>
      <point x="921" y="686" type="line"/>
      <point x="844" y="686" type="line"/>
      <point x="844" y="14" type="line"/>
      <point x="926" y="14" type="line"/>
      <point x="926" y="0" type="line"/>
      <point x="752" y="0" type="line"/>
      <point x="752" y="14" type="line"/>
      <point x="830" y="14" type="line"/>
      <point x="830" y="645" type="line"/>
      <point x="831" y="690" type="line"/>
      <point x="822" y="678" type="line" smooth="yes"/>
      <point x="811" y="663"/>
      <point x="765" y="604"/>
      <point x="735.5" y="565.5" type="qcurve" smooth="yes" name="inserted"/>
      <point x="706" y="527"/>
      <point x="638" y="437"/>
      <point x="603.5" y="392.0" type="qcurve" smooth="yes" name="inserted"/>
      <point x="569" y="347"/>
      <point x="504" y="262"/>
      <point x="478" y="228" type="qcurve"/>
      <point x="383" y="352"/>
      <point x="216" y="570"/>
      <point x="134" y="677" type="qcurve" smooth="yes"/>
      <point x="125" y="690" type="line"/>
      <point x="125" y="679"/>
      <point x="126" y="656"/>
      <point x="126" y="645" type="qcurve" smooth="yes"/>
      <point x="126" y="14" type="line"/>
      <point x="209" y="14" type="line"/>
    </contour>
  </outline>
</glyph>
<glyph name="N" format="2">
  <advance width="840"/>
  <unicode hex="004E"/>
  <outline>
    <contour>
      <point x="723" y="686" type="line"/>
      <point x="723" y="-32" type="line"/>
      <point x="142" y="670" type="line"/>
      <point x="124" y="690" type="line"/>
      <point x="126" y="664" type="line"/>
      <point x="126" y="14" type="line"/>
      <point x="209" y="14" type="line"/>
      <point x="209" y="0" type="line"/>
      <point x="35" y="0" type="line"/>
      <point x="35" y="14" type="line"/>
      <point x="112" y="14" type="line"/>
      <point x="112" y="686" type="line"/>
      <point x="35" y="686" type="line"/>
      <point x="35" y="700" type="line"/>
      <point x="138" y="700" type="line"/>
      <point x="693" y="28" type="line"/>
      <point x="712" y="2" type="line"/>
      <point x="709" y="34" type="line"/>
      <point x="709" y="686" type="line"/>
      <point x="631" y="686" type="line"/>
      <point x="631" y="700" type="line"/>
      <point x="805" y="700" type="line"/>
      <point x="805" y="686" type="line"/>
    </contour>
  </outline>
</glyph>
<glyph name="O" format="1">
  <advance width="786"/>
  <unicode hex="004F"/>
  <outline>
    <contour>
      <point x="645.5" y="96.5" type="qcurve" smooth="yes" name="inserted"/>
      <point x="597" y="48"/>
      <point x="466" y="-8"/>
      <point x="392" y="-8" type="qcurve" smooth="yes"/>
      <point x="318" y="-8"/>
      <point x="188" y="48"/>
      <point x="139.5" y="96.5" type="qcurve" smooth="yes" name="inserted"/>
      <point x="91" y="145"/>
      <point x="35" y="275"/>
      <point x="35" y="349" type="qcurve" smooth="yes"/>
      <point x="35" y="423"/>
      <point x="91" y="554"/>
      <point x="139.5" y="602.5" type="qcurve" smooth="yes" name="inserted"/>
      <point x="188" y="651"/>
      <point x="318" y="708"/>
      <point x="392" y="708" type="qcurve" smooth="yes"/>
      <point x="466" y="708"/>
      <point x="597" y="651"/>
      <point x="645.5" y="602.5" type="qcurve" smooth="yes" name="inserted"/>
      <point x="694" y="554"/>
      <point x="751" y="423"/>
      <point x="751" y="349" type="qcurve" smooth="yes"/>
      <point x="751" y="275"/>
      <point x="694" y="145"/>
    </contour>
    <contour>
      <point x="149.0" y="106.5" type="qcurve" smooth="yes" name="inserted"/>
      <point x="195" y="60"/>
      <point x="319" y="6"/>
      <point x="389" y="6" type="qcurve" smooth="yes"/>
      <point x="460" y="6"/>
      <point x="587" y="60"/>
      <point x="634.5" y="106.5" type="qcurve" smooth="yes" name="inserted"/>
      <point x="682" y="153"/>
      <point x="737" y="278"/>
      <point x="737" y="349" type="qcurve" smooth="yes"/>
      <point x="737" y="420"/>
      <point x="682" y="545"/>
      <point x="635.0" y="592.0" type="qcurve" smooth="yes" name="inserted"/>
      <point x="588" y="639"/>
      <point x="463" y="694"/>
      <point x="392" y="694" type="qcurve" smooth="yes"/>
      <point x="321" y="694"/>
      <point x="196" y="639"/>
      <point x="149.5" y="592.0" type="qcurve" smooth="yes" name="inserted"/>
      <point x="103" y="545"/>
      <point x="49" y="419"/>
      <point x="49" y="348" type="qcurve" smooth="yes"/>
      <point x="49" y="277"/>
      <point x="103" y="153"/>
    </contour>
  </outline>
</glyph>
<glyph name="P" format="2">
  <advance width="481"/>
  <unicode hex="0050"/>
  <outline>
    <contour>
      <point x="209" y="0" type="line"/>
      <point x="35" y="0" type="line"/>
      <point x="35" y="14" type="line"/>
      <point x="106" y="14" type="line"/>
      <point x="106" y="686" type="line"/>
      <point x="35" y="686" type="line"/>
      <point x="35" y="700" type="line"/>
      <point x="246" y="700" type="line" smooth="yes"/>
      <point x="275" y="700"/>
      <point x="345" y="680"/>
      <point x="375.0" y="659.0" type="qcurve" smooth="yes" name="inserted"/>
      <point x="405" y="638"/>
      <point x="446" y="570"/>
      <point x="446" y="522" type="qcurve" smooth="yes"/>
      <point x="446" y="439"/>
      <point x="335" y="341"/>
      <point x="232" y="341" type="qcurve" smooth="yes"/>
      <point x="120" y="341" type="line"/>
      <point x="120" y="14" type="line"/>
      <point x="209" y="14" type="line"/>
    </contour>
    <contour>
      <point x="120" y="686" type="line"/>
      <point x="120" y="355" type="line"/>
      <point x="235" y="355" type="line" smooth="yes"/>
      <point x="293" y="355"/>
      <point x="369" y="387"/>
      <point x="391.5" y="411.5" type="qcurve" smooth="yes" name="inserted"/>
      <point x="414" y="436"/>
      <point x="432" y="495"/>
      <point x="432" y="522" type="qcurve" smooth="yes"/>
      <point x="432" y="555"/>
      <point x="402" y="614"/>
      <point x="375.5" y="636.5" type="qcurve" smooth="yes" name="inserted"/>
      <point x="349" y="659"/>
      <point x="278" y="686"/>
      <point x="236" y="686" type="qcurve" smooth="yes"/>
    </contour>
  </outline>
</glyph>
<glyph name="R" format="2">
  <advance width="569"/>
  <unicode hex="0052"/>
  <outline>
    <contour>
      <point x="209" y="0" type="line"/>
      <point x="35" y="0" type="line"/>
      <point x="35" y="14" type="line"/>
      <point x="106" y="14" type="line"/>
      <point x="106" y="686" type="line"/>
      <point x="35" y="686" type="line"/>
      <point x="35" y="700" type="line"/>
      <point x="246" y="700" type="line" smooth="yes"/>
      <point x="275" y="700"/>
      <point x="345" y="680"/>
      <point x="375" y="659" type="qcurve" smooth="yes" name="inserted"/>
      <point x="405" y="638"/>
      <point x="446" y="570"/>
      <point x="446" y="522" type="qcurve" smooth="yes"/>
      <point x="446" y="453"/>
      <point x="368" y="360"/>
      <point x="294" y="346" type="qcurve"/>
      <point x="450" y="14" type="line"/>
      <point x="534" y="14" type="line"/>
      <point x="534" y="0" type="line"/>
      <point x="442" y="0" type="line"/>
      <point x="279" y="344" type="line"/>
      <point x="267.5" y="342.5" name="inserted"/>
      <point x="244" y="341"/>
      <point x="232" y="341" type="qcurve" smooth="yes"/>
      <point x="120" y="341" type="line"/>
      <point x="120" y="14" type="line"/>
      <point x="209" y="14" type="line"/>
    </contour>
    <contour>
      <point x="120" y="686" type="line"/>
      <point x="120" y="355" type="line"/>
      <point x="235" y="355" type="line" smooth="yes"/>
      <point x="293" y="355"/>
      <point x="369" y="387"/>
      <point x="391.5" y="411.5" type="qcurve" smooth="yes" name="inserted"/>
      <point x="414" y="436"/>
      <point x="432" y="495"/>
      <point x="432" y="522" type="qcurve" smooth="yes"/>
      <point x="432" y="555"/>
      <point x="402" y="614"/>
      <point x="375.5" y="636.5" type="qcurve" smooth="yes" name="inserted"/>
      <point x="349" y="659"/>
      <point x="278" y="686"/>
      <point x="236" y="686" type="qcurve" smooth="yes"/>
    </contour>
  </outline>
</glyph>
<glyph name="S" format="1">
  <advance width="478"/>
  <unicode hex="0053"/>
  <outline>
    <contour>
      <point x="389.0" y="44.5" type="qcurve" smooth="yes" name="inserted"/>
      <point x="360" y="19"/>
      <point x="282" y="-8"/>
      <point x="238" y="-8" type="qcurve" smooth="yes"/>
      <point x="198" y="-8"/>
      <point x="135" y="8"/>
      <point x="111.5" y="19.5" type="qcurve" smooth="yes" name="inserted"/>
      <point x="88" y="31"/>
      <point x="55" y="55"/>
      <point x="46" y="64" type="qcurve"/>
      <point x="46" y="164" type="line"/>
      <point x="60" y="164" type="line"/>
      <point x="60" y="74" type="line"/>
      <point x="89" y="45"/>
      <point x="174" y="6"/>
      <point x="236" y="6" type="qcurve" smooth="yes"/>
      <point x="275" y="6"/>
      <point x="347" y="31"/>
      <point x="374.5" y="54.0" type="qcurve" smooth="yes" name="inserted"/>
      <point x="402" y="77"/>
      <point x="436" y="142"/>
      <point x="436" y="182" type="qcurve" smooth="yes"/>
      <point x="436" y="228"/>
      <point x="405" y="289"/>
      <point x="380.0" y="308.5" type="qcurve" smooth="yes" name="inserted"/>
      <point x="355" y="328"/>
      <point x="290" y="351"/>
      <point x="256.0" y="360.5" type="qcurve" smooth="yes" name="inserted"/>
      <point x="222" y="370"/>
      <point x="156" y="391"/>
      <point x="129.5" y="407.5" type="qcurve" smooth="yes" name="inserted"/>
      <point x="103" y="424"/>
      <point x="68" y="476"/>
      <point x="66" y="517" type="qcurve" smooth="yes"/>
      <point x="64" y="550"/>
      <point x="83" y="617"/>
      <point x="104.0" y="644.0" type="qcurve" smooth="yes" name="inserted"/>
      <point x="125" y="671"/>
      <point x="191" y="704"/>
      <point x="238" y="704" type="qcurve" smooth="yes"/>
      <point x="254" y="704"/>
      <point x="293" y="700"/>
      <point x="312.5" y="695.5" type="qcurve" smooth="yes" name="inserted"/>
      <point x="332" y="691"/>
      <point x="370" y="673"/>
      <point x="386" y="660" type="qcurve"/>
      <point x="386" y="546" type="line"/>
      <point x="372" y="546" type="line"/>
      <point x="372" y="653" type="line"/>
      <point x="352" y="668"/>
      <point x="284" y="690"/>
      <point x="236" y="690" type="qcurve" smooth="yes"/>
      <point x="197" y="690"/>
      <point x="138" y="663"/>
      <point x="118.5" y="640.5" type="qcurve" smooth="yes" name="inserted"/>
      <point x="99" y="618"/>
      <point x="80" y="561"/>
      <point x="80" y="530" type="qcurve" smooth="yes"/>
      <point x="80" y="476"/>
      <point x="134" y="419"/>
      <point x="174.5" y="402.5" type="qcurve" smooth="yes" name="inserted"/>
      <point x="215" y="386"/>
      <point x="310" y="364"/>
      <point x="351.5" y="343.5" type="qcurve" smooth="yes" name="inserted"/>
      <point x="393" y="323"/>
      <point x="449" y="251"/>
      <point x="450" y="186" type="qcurve" smooth="yes"/>
      <point x="451" y="142"/>
      <point x="418" y="70"/>
    </contour>
  </outline>
</glyph>
<glyph name="T" format="1">
  <advance width="623"/>
  <unicode hex="0054"/>
  <outline>
    <contour>
      <point x="399" y="0" type="line"/>
      <point x="225" y="0" type="line"/>
      <point x="225" y="14" type="line"/>
      <point x="304" y="14" type="line"/>
      <point x="304" y="686" type="line"/>
      <point x="49" y="686" type="line"/>
      <point x="49" y="546" type="line"/>
      <point x="35" y="546" type="line"/>
      <point x="35" y="700" type="line"/>
      <point x="588" y="700" type="line"/>
      <point x="588" y="546" type="line"/>
      <point x="574" y="546" type="line"/>
      <point x="574" y="686" type="line"/>
      <point x="318" y="686" type="line"/>
      <point x="318" y="14" type="line"/>
      <point x="399" y="14" type="line"/>
    </contour>
  </outline>
</glyph>
<glyph name="U" format="2">
  <advance width="674"/>
  <unicode hex="0055"/>
  <outline>
    <contour>
      <point x="497" y="51.5" type="qcurve" smooth="yes" name="inserted"/>
      <point x="467" y="22"/>
      <point x="385" y="-8"/>
      <point x="337" y="-8" type="qcurve" smooth="yes"/>
      <point x="289" y="-8"/>
      <point x="206" y="22"/>
      <point x="176" y="51.5" type="qcurve" smooth="yes" name="inserted"/>
      <point x="146" y="81"/>
      <point x="112" y="169"/>
      <point x="112" y="226" type="qcurve" smooth="yes"/>
      <point x="112" y="686" type="line"/>
      <point x="35" y="686" type="line"/>
      <point x="35" y="700" type="line"/>
      <point x="209" y="700" type="line"/>
      <point x="209" y="686" type="line"/>
      <point x="126" y="686" type="line"/>
      <point x="126" y="229" type="line" smooth="yes"/>
      <point x="126" y="175"/>
      <point x="157" y="92"/>
      <point x="185" y="63.5" type="qcurve" smooth="yes" name="inserted"/>
      <point x="213" y="35"/>
      <point x="291" y="6"/>
      <point x="337" y="6" type="qcurve" smooth="yes"/>
      <point x="382" y="6"/>
      <point x="460" y="35"/>
      <point x="488" y="63.5" type="qcurve" smooth="yes" name="inserted"/>
      <point x="516" y="92"/>
      <point x="548" y="175"/>
      <point x="548" y="229" type="qcurve" smooth="yes"/>
      <point x="548" y="686" type="line"/>
      <point x="465" y="686" type="line"/>
      <point x="465" y="700" type="line"/>
      <point x="639" y="700" type="line"/>
      <point x="639" y="686" type="line"/>
      <point x="562" y="686" type="line"/>
      <point x="562" y="226" type="line" smooth="yes"/>
      <point x="562" y="169"/>
      <point x="527" y="81"/>
    </contour>
  </outline>
</glyph>
<glyph name="V" format="2">
  <advance width="844"/>
  <unicode hex="0056"/>
  <outline>
    <contour>
      <point x="726" y="686" type="line"/>
      <point x="650" y="505"/>
      <point x="498" y="148"/>
      <point x="422" y="-32" type="qcurve"/>
      <point x="346" y="148"/>
      <point x="193" y="505"/>
      <point x="117" y="686" type="qcurve"/>
      <point x="35" y="686" type="line"/>
      <point x="35" y="700" type="line"/>
      <point x="209" y="700" type="line"/>
      <point x="209" y="686" type="line"/>
      <point x="133" y="686" type="line"/>
      <point x="203" y="519"/>
      <point x="343" y="191"/>
      <point x="413" y="25" type="qcurve"/>
      <point x="422" y="0" type="line"/>
      <point x="431" y="25" type="line"/>
      <point x="501" y="191"/>
      <point x="641" y="519"/>
      <point x="711" y="686" type="qcurve"/>
      <point x="635" y="686" type="line"/>
      <point x="635" y="700" type="line"/>
      <point x="809" y="700" type="line"/>
      <point x="809" y="686" type="line"/>
    </contour>
  </outline>
</glyph>
<glyph name="W" format="2">
  <advance width="1220"/>
  <unicode hex="0057"/>
  <outline>
    <contour>
      <point x="491" y="132" type="qcurve" smooth="yes"/>
      <point x="474" y="92"/>
      <point x="440" y="9"/>
      <point x="422" y="-32" type="qcurve"/>
      <point x="346" y="148"/>
      <point x="193" y="505"/>
      <point x="117" y="686" type="qcurve"/>
      <point x="35" y="686" type="line"/>
      <point x="35" y="700" type="line"/>
      <point x="209" y="700" type="line"/>
      <point x="209" y="686" type="line"/>
      <point x="133" y="686" type="line"/>
      <point x="202" y="519"/>
      <point x="341" y="190"/>
      <point x="413" y="25" type="qcurve"/>
      <point x="422" y="0" type="line"/>
      <point x="435" y="35"/>
      <point x="464" y="106"/>
      <point x="479" y="141" type="qcurve" smooth="yes"/>
      <point x="508" y="212"/>
      <point x="570" y="354"/>
      <point x="600" y="425" type="qcurve"/>
      <point x="573" y="490"/>
      <point x="518" y="620"/>
      <point x="490" y="686" type="qcurve"/>
      <point x="411" y="686" type="line"/>
      <point x="411" y="700" type="line"/>
      <point x="585" y="700" type="line"/>
      <point x="585" y="686" type="line"/>
      <point x="505" y="686" type="line"/>
      <point x="574" y="519"/>
      <point x="713" y="190"/>
      <point x="785" y="25" type="qcurve"/>
      <point x="794" y="0" type="line"/>
      <point x="803" y="25" type="line"/>
      <point x="873" y="191"/>
      <point x="1013" y="519"/>
      <point x="1083" y="686" type="qcurve"/>
      <point x="1011" y="686" type="line"/>
      <point x="1011" y="700" type="line"/>
      <point x="1185" y="700" type="line"/>
      <point x="1185" y="686" type="line"/>
      <point x="1098" y="686" type="line"/>
      <point x="1022" y="505"/>
      <point x="870" y="148"/>
      <point x="794" y="-32" type="qcurve"/>
      <point x="617" y="385" type="line"/>
      <point x="608" y="407" type="line"/>
      <point x="578" y="338"/>
      <point x="520" y="200"/>
    </contour>
  </outline>
</glyph>
<glyph name="Y" format="2">
  <advance width="718"/>
  <unicode hex="0059"/>
  <outline>
    <contour>
      <point x="447" y="0" type="line"/>
      <point x="273" y="0" type="line"/>
      <point x="273" y="14" type="line"/>
      <point x="352" y="14" type="line"/>
      <point x="352" y="262" type="line"/>
      <point x="288" y="368"/>
      <point x="161" y="580"/>
      <point x="97" y="686" type="qcurve"/>
      <point x="35" y="686" type="line"/>
      <point x="35" y="700" type="line"/>
      <point x="209" y="700" type="line"/>
      <point x="209" y="686" type="line"/>
      <point x="114" y="686" type="line"/>
      <point x="173" y="588"/>
      <point x="290" y="396"/>
      <point x="347" y="298" type="qcurve"/>
      <point x="359" y="272" type="line"/>
      <point x="360" y="272" type="line"/>
      <point x="371" y="298" type="line"/>
      <point x="602" y="686" type="line"/>
      <point x="509" y="686" type="line"/>
      <point x="509" y="700" type="line"/>
      <point x="683" y="700" type="line"/>
      <point x="683" y="686" type="line"/>
      <point x="619" y="686" type="line"/>
      <point x="556" y="579"/>
      <point x="429" y="368"/>
      <point x="366" y="262" type="qcurve"/>
      <point x="366" y="14" type="line"/>
      <point x="447" y="14" type="line"/>
    </contour>
  </outline>
</glyph>
<glyph name="Z" format="1">
  <advance width="629"/>
  <unicode hex="005A"/>
  <outline>
    <contour>
      <point x="594" y="0" type="line"/>
      <point x="35" y="0" type="line"/>
      <point x="35" y="14" type="line"/>
      <point x="545" y="686" type="line"/>
      <point x="52" y="686" type="line"/>
      <point x="52" y="735" type="line"/>
      <point x="68" y="735" type="line"/>
      <point x="68" y="700" type="line"/>
      <point x="565" y="700" type="line"/>
      <point x="565" y="686" type="line"/>
      <point x="55" y="14" type="line"/>
      <point x="580" y="14" type="line"/>
      <point x="580" y="174" type="line"/>
      <point x="594" y="174" type="line"/>
    </contour>
  </outline>
</glyph>
<glyph name="bracketleft" format="2">
  <advance width="338"/>
  <unicode hex="005B"/>
  <outline>
    <contour>
      <point x="246" y="-149" type="line"/>
      <point x="83" y="-149" type="line"/>
      <point x="83" y="746" type="line"/>
      <point x="246" y="746" type="line"/>
      <point x="246" y="732" type="line"/>
      <point x="99" y="732" type="line"/>
      <point x="99" y="-135" type="line"/>
      <point x="246" y="-135" type="line"/>
    </contour>
  </outline>
</glyph>
<glyph name="bracketright" format="2">
  <advance width="342"/>
  <unicode hex="005D"/>
  <outline>
    <contour>
      <point x="251" y="-149" type="line"/>
      <point x="88" y="-149" type="line"/>
      <point x="88" y="-135" type="line"/>
      <point x="235" y="-135" type="line"/>
      <point x="235" y="732" type="line"/>
      <point x="88" y="732" type="line"/>
      <point x="88" y="746" type="line"/>
      <point x="251" y="746" type="line"/>
    </contour>
  </outline>
</glyph>
<glyph name="asciicircum" format="2">
  <advance width="470"/>
  <unicode hex="005E"/>
  <outline>
    <contour>
      <point x="128" y="479" type="qcurve"/>
      <point x="112" y="479" type="line"/>
      <point x="142" y="524"/>
      <point x="202" y="615"/>
      <point x="232" y="660" type="qcurve"/>
      <point x="262" y="615"/>
      <point x="322" y="524"/>
      <point x="352" y="479" type="qcurve"/>
      <point x="336" y="479" type="line"/>
      <point x="310" y="517"/>
      <point x="258" y="595"/>
      <point x="232" y="633" type="qcurve"/>
      <point x="206" y="595"/>
      <point x="154" y="517"/>
    </contour>
  </outline>
</glyph>
<glyph name="underscore" format="2">
  <advance width="600"/>
  <unicode hex="005F"/>
  <outline>
    <contour>
      <point x="500" y="0" type="line"/>
      <point x="100" y="0" type="line"/>
      <point x="100" y="14" type="line"/>
      <point x="500" y="14" type="line"/>
    </contour>
  </outline>
</glyph>
<glyph name="grave" format="2">
  <advance width="200"/>
  <unicode hex="0060"/>
  <outline>
    <contour>
      <point x="92" y="479" type="qcurve"/>
      <point x="76" y="479" type="line"/>
      <point x="53" y="512"/>
      <point x="9" y="579"/>
      <point x="-14" y="612" type="qcurve"/>
      <point x="2" y="612" type="line"/>
      <point x="25" y="579"/>
      <point x="69" y="512"/>
    </contour>
  </outline>
</glyph>
<glyph name="b" format="1">
  <advance width="532"/>
  <unicode hex="0062"/>
  <outline>
    <contour>
      <point x="440.5" y="50.5" type="qcurve" smooth="yes" name="inserted"/>
      <point x="414" y="24"/>
      <point x="343" y="-6"/>
      <point x="303" y="-6" type="qcurve" smooth="yes"/>
      <point x="272" y="-6"/>
      <point x="215" y="12"/>
      <point x="191.5" y="28.5" type="qcurve" smooth="yes" name="inserted"/>
      <point x="168" y="45"/>
      <point x="131" y="90"/>
      <point x="121" y="117" type="qcurve"/>
      <point x="121" y="101"/>
      <point x="122" y="70"/>
      <point x="122" y="54" type="qcurve" smooth="yes"/>
      <point x="122" y="0" type="line"/>
      <point x="35" y="0" type="line"/>
      <point x="35" y="14" type="line"/>
      <point x="108" y="14" type="line"/>
      <point x="108" y="736" type="line"/>
      <point x="35" y="736" type="line"/>
      <point x="35" y="750" type="line"/>
      <point x="122" y="750" type="line"/>
      <point x="122" y="321" type="line"/>
      <point x="122" y="260" type="line"/>
      <point x="132" y="287"/>
      <point x="168" y="332"/>
      <point x="191.5" y="348.5" type="qcurve" smooth="yes" name="inserted"/>
      <point x="215" y="365"/>
      <point x="272" y="383"/>
      <point x="303" y="383" type="qcurve" smooth="yes"/>
      <point x="343" y="383"/>
      <point x="414" y="352"/>
      <point x="440.5" y="326.0" type="qcurve" smooth="yes" name="inserted"/>
      <point x="467" y="300"/>
      <point x="497" y="228"/>
      <point x="497" y="188" type="qcurve" smooth="yes"/>
      <point x="497" y="147"/>
      <point x="467" y="77"/>
    </contour>
    <contour>
      <point x="175.0" y="60.5" type="qcurve" smooth="yes" name="inserted"/>
      <point x="200" y="36"/>
      <point x="265" y="8"/>
      <point x="303" y="8" type="qcurve" smooth="yes"/>
      <point x="340" y="8"/>
      <point x="406" y="36"/>
      <point x="430.5" y="60.5" type="qcurve" smooth="yes" name="inserted"/>
      <point x="455" y="85"/>
      <point x="483" y="150"/>
      <point x="483" y="188" type="qcurve" smooth="yes"/>
      <point x="483" y="225"/>
      <point x="455" y="291"/>
      <point x="430.5" y="316.0" type="qcurve" smooth="yes" name="inserted"/>
      <point x="406" y="341"/>
      <point x="340" y="369"/>
      <point x="303" y="369" type="qcurve" smooth="yes"/>
      <point x="265" y="369"/>
      <point x="200" y="341"/>
      <point x="175.0" y="316.0" type="qcurve" smooth="yes" name="inserted"/>
      <point x="150" y="291"/>
      <point x="122" y="225"/>
      <point x="122" y="188" type="qcurve" smooth="yes"/>
      <point x="122" y="150"/>
      <point x="150" y="85"/>
    </contour>
  </outline>
</glyph>
<glyph name="f" format="1">
  <advance width="281"/>
  <unicode hex="0066"/>
  <outline>
    <contour>
      <point x="209" y="0" type="line"/>
      <point x="35" y="0" type="line"/>
      <point x="35" y="14" type="line"/>
      <point x="96" y="14" type="line"/>
      <point x="96" y="361" type="line"/>
      <point x="35" y="361" type="line"/>
      <point x="35" y="375" type="line"/>
      <point x="96" y="375" type="line"/>
      <point x="96" y="518" type="line" smooth="yes"/>
      <point x="96" y="573"/>
      <point x="125" y="659"/>
      <point x="150.5" y="688.0" type="qcurve" smooth="yes" name="inserted"/>
      <point x="176" y="717"/>
      <point x="243" y="748"/>
      <point x="281" y="750" type="qcurve"/>
      <point x="281" y="736" type="line"/>
      <point x="247" y="736"/>
      <point x="185" y="706"/>
      <point x="161.5" y="678.0" type="qcurve" smooth="yes" name="inserted"/>
      <point x="138" y="650"/>
      <point x="110" y="571"/>
      <point x="110" y="522" type="qcurve" smooth="yes"/>
      <point x="110" y="375" type="line"/>
      <point x="240" y="375" type="line"/>
      <point x="240" y="361" type="line"/>
      <point x="110" y="361" type="line"/>
      <point x="110" y="14" type="line"/>
      <point x="209" y="14" type="line"/>
    </contour>
  </outline>
</glyph>
<glyph name="g" format="2">
  <advance width="533"/>
  <unicode hex="0067"/>
  <outline>
    <contour>
      <point x="90" y="-193" type="qcurve"/>
      <point x="101" y="-183" type="line"/>
      <point x="124" y="-210"/>
      <point x="198" y="-236"/>
      <point x="239" y="-236" type="qcurve" smooth="yes"/>
      <point x="273" y="-236"/>
      <point x="336" y="-206"/>
      <point x="359" y="-178" type="qcurve" smooth="yes" name="inserted"/>
      <point x="382" y="-150"/>
      <point x="410" y="-71"/>
      <point x="410" y="-22" type="qcurve" smooth="yes"/>
      <point x="410" y="54" type="line" smooth="yes"/>
      <point x="410" y="70"/>
      <point x="411" y="101"/>
      <point x="411" y="117" type="qcurve"/>
      <point x="400" y="90"/>
      <point x="364" y="45"/>
      <point x="340.5" y="28.5" type="qcurve" smooth="yes" name="inserted"/>
      <point x="317" y="12"/>
      <point x="260" y="-6"/>
      <point x="229" y="-6" type="qcurve" smooth="yes"/>
      <point x="188" y="-6"/>
      <point x="118" y="24"/>
      <point x="91.5" y="50.5" type="qcurve" smooth="yes" name="inserted"/>
      <point x="65" y="77"/>
      <point x="35" y="147"/>
      <point x="35" y="188" type="qcurve" smooth="yes"/>
      <point x="35" y="228"/>
      <point x="65" y="300"/>
      <point x="91.5" y="326" type="qcurve" smooth="yes" name="inserted"/>
      <point x="118" y="352"/>
      <point x="188" y="383"/>
      <point x="229" y="383" type="qcurve" smooth="yes"/>
      <point x="291" y="383"/>
      <point x="388" y="314"/>
      <point x="410" y="260" type="qcurve"/>
      <point x="410" y="289"/>
      <point x="412" y="346"/>
      <point x="414" y="375" type="qcurve"/>
      <point x="498" y="375" type="line"/>
      <point x="498" y="361" type="line"/>
      <point x="424" y="361" type="line"/>
      <point x="424" y="-18" type="line" smooth="yes"/>
      <point x="424" y="-74"/>
      <point x="395" y="-159"/>
      <point x="369.5" y="-188" type="qcurve" smooth="yes" name="inserted"/>
      <point x="344" y="-217"/>
      <point x="277" y="-249"/>
      <point x="239" y="-250" type="qcurve"/>
      <point x="189" y="-250"/>
      <point x="116" y="-224"/>
    </contour>
    <contour>
      <point x="229" y="369" type="qcurve" smooth="yes"/>
      <point x="191" y="369"/>
      <point x="126" y="341"/>
      <point x="101.5" y="316" type="qcurve" smooth="yes" name="inserted"/>
      <point x="77" y="291"/>
      <point x="49" y="225"/>
      <point x="49" y="188" type="qcurve" smooth="yes"/>
      <point x="49" y="150"/>
      <point x="77" y="85"/>
      <point x="101.5" y="60.5" type="qcurve" smooth="yes" name="inserted"/>
      <point x="126" y="36"/>
      <point x="191" y="8"/>
      <point x="229" y="8" type="qcurve" smooth="yes"/>
      <point x="266" y="8"/>
      <point x="332" y="36"/>
      <point x="357" y="60.5" type="qcurve" smooth="yes" name="inserted"/>
      <point x="382" y="85"/>
      <point x="410" y="150"/>
      <point x="410" y="188" type="qcurve" smooth="yes"/>
      <point x="410" y="225"/>
      <point x="382" y="291"/>
      <point x="357" y="316" type="qcurve" smooth="yes" name="inserted"/>
      <point x="332" y="341"/>
      <point x="266" y="369"/>
    </contour>
  </outline>
</glyph>
<glyph name="h" format="1">
  <advance width="522"/>
  <unicode hex="0068"/>
  <outline>
    <contour>
      <point x="209" y="0" type="line"/>
      <point x="35" y="0" type="line"/>
      <point x="35" y="14" type="line"/>
      <point x="114" y="14" type="line"/>
      <point x="114" y="736" type="line"/>
      <point x="41" y="736" type="line"/>
      <point x="41" y="750" type="line"/>
      <point x="128" y="750" type="line"/>
      <point x="128" y="322" type="line"/>
      <point x="125" y="277" type="line"/>
      <point x="145" y="324"/>
      <point x="233" y="382"/>
      <point x="290" y="382" type="qcurve" smooth="yes"/>
      <point x="343" y="382"/>
      <point x="404" y="320"/>
      <point x="406" y="270" type="qcurve" smooth="yes"/>
      <point x="406" y="14" type="line"/>
      <point x="487" y="14" type="line"/>
      <point x="487" y="0" type="line"/>
      <point x="313" y="0" type="line"/>
      <point x="313" y="14" type="line"/>
      <point x="392" y="14" type="line"/>
      <point x="392" y="277" type="line"/>
      <point x="390" y="313"/>
      <point x="341" y="366"/>
      <point x="297" y="368" type="qcurve" smooth="yes"/>
      <point x="263" y="368"/>
      <point x="202" y="346"/>
      <point x="178.5" y="326.5" type="qcurve" smooth="yes" name="inserted"/>
      <point x="155" y="307"/>
      <point x="128" y="252"/>
      <point x="128" y="220" type="qcurve" smooth="yes"/>
      <point x="128" y="14" type="line"/>
      <point x="209" y="14" type="line"/>
    </contour>
  </outline>
</glyph>
<glyph name="k" format="2">
  <advance width="487"/>
  <unicode hex="006B"/>
  <outline>
    <contour>
      <point x="35" y="0" type="line"/>
      <point x="35" y="14" type="line"/>
      <point x="107" y="14" type="line"/>
      <point x="107" y="736" type="line"/>
      <point x="34" y="736" type="line"/>
      <point x="34" y="750" type="line"/>
      <point x="121" y="750" type="line"/>
      <point x="121" y="176" type="line"/>
      <point x="319" y="361" type="line"/>
      <point x="243" y="361" type="line"/>
      <point x="243" y="375" type="line"/>
      <point x="417" y="375" type="line"/>
      <point x="417" y="361" type="line"/>
      <point x="338" y="361" type="line"/>
      <point x="302.0" y="325.0"/>
      <point x="245.0" y="271.0"/>
      <point x="207" y="235" type="qcurve"/>
      <point x="247" y="179"/>
      <point x="328" y="69"/>
      <point x="369" y="14" type="qcurve"/>
      <point x="452" y="14" type="line"/>
      <point x="452" y="0" type="line"/>
      <point x="278" y="0" type="line"/>
      <point x="278" y="14" type="line"/>
      <point x="351" y="14" type="line"/>
      <point x="312" y="67"/>
      <point x="233" y="171"/>
      <point x="195" y="225" type="qcurve"/>
      <point x="121" y="155" type="line"/>
      <point x="121" y="14" type="line"/>
      <point x="209" y="14" type="line"/>
      <point x="209" y="0" type="line"/>
    </contour>
  </outline>
</glyph>
<glyph name="l" format="1">
  <advance width="244"/>
  <unicode hex="006C"/>
  <outline>
    <contour>
      <point x="209" y="0" type="line"/>
      <point x="35" y="0" type="line"/>
      <point x="35" y="14" type="line"/>
      <point x="107" y="14" type="line"/>
      <point x="107" y="736" type="line"/>
      <point x="34" y="736" type="line"/>
      <point x="34" y="750" type="line"/>
      <point x="121" y="750" type="line"/>
      <point x="121" y="14" type="line"/>
      <point x="209" y="14" type="line"/>
    </contour>
  </outline>
</glyph>
<glyph name="m" format="2">
  <advance width="800"/>
  <unicode hex="006D"/>
  <outline>
    <contour>
      <point x="209" y="0" type="line"/>
      <point x="35" y="0" type="line"/>
      <point x="35" y="14" type="line"/>
      <point x="114" y="14" type="line"/>
      <point x="114" y="361" type="line"/>
      <point x="39" y="361" type="line"/>
      <point x="39" y="375" type="line"/>
      <point x="122" y="375" type="line"/>
      <point x="124" y="322" type="line" smooth="yes"/>
      <point x="124" y="309"/>
      <point x="125" y="290"/>
      <point x="125" y="277" type="qcurve"/>
      <point x="145" y="324"/>
      <point x="233" y="382"/>
      <point x="290" y="382" type="qcurve" smooth="yes"/>
      <point x="339" y="382"/>
      <point x="400" y="327"/>
      <point x="405" y="282" type="qcurve"/>
      <point x="426" y="327"/>
      <point x="513" y="382"/>
      <point x="568" y="382" type="qcurve" smooth="yes"/>
      <point x="621" y="382"/>
      <point x="682" y="320"/>
      <point x="684" y="270" type="qcurve" smooth="yes"/>
      <point x="684" y="14" type="line"/>
      <point x="765" y="14" type="line"/>
      <point x="765" y="0" type="line"/>
      <point x="591" y="0" type="line"/>
      <point x="591" y="14" type="line"/>
      <point x="670" y="14" type="line"/>
      <point x="670" y="277" type="line"/>
      <point x="668" y="313"/>
      <point x="619" y="366"/>
      <point x="575" y="368" type="qcurve" smooth="yes"/>
      <point x="542" y="368"/>
      <point x="482" y="347"/>
      <point x="459" y="328" type="qcurve" smooth="yes" name="inserted"/>
      <point x="436" y="309"/>
      <point x="407" y="257"/>
      <point x="406" y="226" type="qcurve"/>
      <point x="406" y="14" type="line"/>
      <point x="487" y="14" type="line"/>
      <point x="487" y="0" type="line"/>
      <point x="313" y="0" type="line"/>
      <point x="313" y="14" type="line"/>
      <point x="392" y="14" type="line"/>
      <point x="392" y="277" type="line"/>
      <point x="390" y="313"/>
      <point x="341" y="366"/>
      <point x="297" y="368" type="qcurve" smooth="yes"/>
      <point x="263" y="368"/>
      <point x="202" y="346"/>
      <point x="178.5" y="326.5" type="qcurve" smooth="yes" name="inserted"/>
      <point x="155" y="307"/>
      <point x="128" y="252"/>
      <point x="128" y="220" type="qcurve" smooth="yes"/>
      <point x="128" y="14" type="line"/>
      <point x="209" y="14" type="line"/>
    </contour>
  </outline>
</glyph>
<glyph name="o" format="2">
  <advance width="461"/>
  <unicode hex="006F"/>
  <outline>
    <contour>
      <point x="368.5" y="50.5" type="qcurve" smooth="yes" name="inserted"/>
      <point x="342" y="24"/>
      <point x="270" y="-6"/>
      <point x="230" y="-6" type="qcurve" smooth="yes"/>
      <point x="189" y="-6"/>
      <point x="119" y="24"/>
      <point x="92.5" y="50.5" type="qcurve" smooth="yes" name="inserted"/>
      <point x="66" y="77"/>
      <point x="36" y="147"/>
      <point x="36" y="188" type="qcurve" smooth="yes"/>
      <point x="36" y="228"/>
      <point x="66" y="300"/>
      <point x="92.5" y="326.5" type="qcurve" smooth="yes" name="inserted"/>
      <point x="119" y="353"/>
      <point x="189" y="384"/>
      <point x="230" y="384" type="qcurve" smooth="yes"/>
      <point x="270" y="384"/>
      <point x="342" y="353"/>
      <point x="368.5" y="326.5" type="qcurve" smooth="yes" name="inserted"/>
      <point x="395" y="300"/>
      <point x="426" y="228"/>
      <point x="426" y="188" type="qcurve" smooth="yes"/>
      <point x="426" y="147"/>
      <point x="395" y="77"/>
    </contour>
    <contour>
      <point x="102.5" y="60.5" type="qcurve" smooth="yes" name="inserted"/>
      <point x="127" y="36"/>
      <point x="192" y="8"/>
      <point x="230" y="8" type="qcurve" smooth="yes"/>
      <point x="267" y="8"/>
      <point x="333" y="36"/>
      <point x="358" y="60.5" type="qcurve" smooth="yes" name="inserted"/>
      <point x="383" y="85"/>
      <point x="411" y="150"/>
      <point x="411" y="188" type="qcurve" smooth="yes"/>
      <point x="411" y="225"/>
      <point x="383" y="291"/>
      <point x="358" y="316" type="qcurve" smooth="yes" name="inserted"/>
      <point x="333" y="341"/>
      <point x="267" y="369"/>
      <point x="230" y="369" type="qcurve" smooth="yes"/>
      <point x="192" y="369"/>
      <point x="127" y="341"/>
      <point x="102.5" y="316" type="qcurve" smooth="yes" name="inserted"/>
      <point x="78" y="291"/>
      <point x="50" y="225"/>
      <point x="50" y="188" type="qcurve" smooth="yes"/>
      <point x="50" y="150"/>
      <point x="78" y="85"/>
    </contour>
  </outline>
</glyph>
<glyph name="p" format="1">
  <advance width="532"/>
  <unicode hex="0070"/>
  <outline>
    <contour>
      <point x="216" y="-250" type="line"/>
      <point x="42" y="-250" type="line"/>
      <point x="42" y="-236" type="line"/>
      <point x="108" y="-236" type="line"/>
      <point x="108" y="361" type="line"/>
      <point x="35" y="361" type="line"/>
      <point x="35" y="375" type="line"/>
      <point x="118" y="375" type="line"/>
      <point x="118" y="346"/>
      <point x="121" y="286"/>
      <point x="121" y="257" type="qcurve"/>
      <point x="142" y="312"/>
      <point x="240" y="381"/>
      <point x="303" y="381" type="qcurve" smooth="yes"/>
      <point x="343" y="381"/>
      <point x="414" y="351"/>
      <point x="440.5" y="324.5" type="qcurve" smooth="yes" name="inserted"/>
      <point x="467" y="298"/>
      <point x="497" y="227"/>
      <point x="497" y="187" type="qcurve" smooth="yes"/>
      <point x="497" y="146"/>
      <point x="467" y="75"/>
      <point x="440.5" y="49.0" type="qcurve" smooth="yes" name="inserted"/>
      <point x="414" y="23"/>
      <point x="343" y="-8"/>
      <point x="303" y="-8" type="qcurve" smooth="yes"/>
      <point x="272" y="-8"/>
      <point x="215" y="10"/>
      <point x="191.5" y="26.5" type="qcurve" smooth="yes" name="inserted"/>
      <point x="168" y="43"/>
      <point x="132" y="88"/>
      <point x="122" y="115" type="qcurve"/>
      <point x="122" y="101"/>
      <point x="123" y="75"/>
      <point x="123" y="61" type="qcurve" smooth="yes"/>
      <point x="123" y="-236" type="line"/>
      <point x="216" y="-236" type="line"/>
    </contour>
    <contour>
      <point x="175.0" y="59.0" type="qcurve" smooth="yes" name="inserted"/>
      <point x="200" y="34"/>
      <point x="265" y="6"/>
      <point x="303" y="6" type="qcurve" smooth="yes"/>
      <point x="340" y="6"/>
      <point x="406" y="34"/>
      <point x="430.5" y="59.0" type="qcurve" smooth="yes" name="inserted"/>
      <point x="455" y="84"/>
      <point x="483" y="149"/>
      <point x="483" y="187" type="qcurve" smooth="yes"/>
      <point x="483" y="224"/>
      <point x="455" y="290"/>
      <point x="430.5" y="314.5" type="qcurve" smooth="yes" name="inserted"/>
      <point x="406" y="339"/>
      <point x="340" y="367"/>
      <point x="303" y="367" type="qcurve" smooth="yes"/>
      <point x="265" y="367"/>
      <point x="200" y="339"/>
      <point x="175.0" y="314.5" type="qcurve" smooth="yes" name="inserted"/>
      <point x="150" y="290"/>
      <point x="122" y="224"/>
      <point x="122" y="187" type="qcurve" smooth="yes"/>
      <point x="122" y="149"/>
      <point x="150" y="84"/>
    </contour>
  </outline>
</glyph>
<glyph name="q" format="2">
  <advance width="532"/>
  <unicode hex="0071"/>
  <outline>
    <contour>
      <point x="495" y="-250" type="line"/>
      <point x="321" y="-250" type="line"/>
      <point x="321" y="-236" type="line"/>
      <point x="409" y="-236" type="line"/>
      <point x="409" y="61" type="line" smooth="yes"/>
      <point x="409" y="75"/>
      <point x="410" y="101"/>
      <point x="410" y="115" type="qcurve"/>
      <point x="399" y="88"/>
      <point x="364" y="43"/>
      <point x="340.5" y="26.5" type="qcurve" smooth="yes" name="inserted"/>
      <point x="317" y="10"/>
      <point x="260" y="-8"/>
      <point x="229" y="-8" type="qcurve" smooth="yes"/>
      <point x="188" y="-8"/>
      <point x="118" y="23"/>
      <point x="91.5" y="49" type="qcurve" smooth="yes" name="inserted"/>
      <point x="65" y="75"/>
      <point x="35" y="146"/>
      <point x="35" y="187" type="qcurve" smooth="yes"/>
      <point x="35" y="227"/>
      <point x="65" y="298"/>
      <point x="91.5" y="324.5" type="qcurve" smooth="yes" name="inserted"/>
      <point x="118" y="351"/>
      <point x="188" y="381"/>
      <point x="229" y="381" type="qcurve" smooth="yes"/>
      <point x="292" y="381"/>
      <point x="390" y="312"/>
      <point x="411" y="257" type="qcurve"/>
      <point x="411" y="286"/>
      <point x="414" y="346"/>
      <point x="414" y="375" type="qcurve"/>
      <point x="497" y="375" type="line"/>
      <point x="497" y="361" type="line"/>
      <point x="424" y="361" type="line"/>
      <point x="424" y="-236" type="line"/>
      <point x="495" y="-236" type="line"/>
    </contour>
    <contour>
      <point x="229" y="367" type="qcurve" smooth="yes"/>
      <point x="191" y="367"/>
      <point x="126" y="339"/>
      <point x="101.5" y="314.5" type="qcurve" smooth="yes" name="inserted"/>
      <point x="77" y="290"/>
      <point x="49" y="224"/>
      <point x="49" y="187" type="qcurve" smooth="yes"/>
      <point x="49" y="149"/>
      <point x="77" y="84"/>
      <point x="101.5" y="59" type="qcurve" smooth="yes" name="inserted"/>
      <point x="126" y="34"/>
      <point x="191" y="6"/>
      <point x="229" y="6" type="qcurve" smooth="yes"/>
      <point x="266" y="6"/>
      <point x="332" y="34"/>
      <point x="357" y="59" type="qcurve" smooth="yes" name="inserted"/>
      <point x="382" y="84"/>
      <point x="410" y="149"/>
      <point x="410" y="187" type="qcurve" smooth="yes"/>
      <point x="410" y="224"/>
      <point x="382" y="290"/>
      <point x="357" y="314.5" type="qcurve" smooth="yes" name="inserted"/>
      <point x="332" y="339"/>
      <point x="266" y="367"/>
    </contour>
  </outline>
</glyph>
<glyph name="r" format="2">
  <advance width="326"/>
  <unicode hex="0072"/>
  <outline>
    <contour>
      <point x="209" y="0" type="line"/>
      <point x="35" y="0" type="line"/>
      <point x="35" y="14" type="line"/>
      <point x="114" y="14" type="line"/>
      <point x="114" y="361" type="line"/>
      <point x="39" y="361" type="line"/>
      <point x="39" y="375" type="line"/>
      <point x="122" y="375" type="line"/>
      <point x="124" y="322" type="line" smooth="yes"/>
      <point x="124" y="309"/>
      <point x="125" y="290"/>
      <point x="125" y="277" type="qcurve"/>
      <point x="136" y="302"/>
      <point x="170" y="341"/>
      <point x="193" y="354" type="qcurve" smooth="yes"/>
      <point x="214" y="367"/>
      <point x="263" y="381"/>
      <point x="291" y="382" type="qcurve"/>
      <point x="291" y="368" type="line"/>
      <point x="258" y="367"/>
      <point x="199" y="344"/>
      <point x="176" y="324" type="qcurve" smooth="yes" name="inserted"/>
      <point x="154" y="305"/>
      <point x="128" y="251"/>
      <point x="128" y="220" type="qcurve" smooth="yes"/>
      <point x="128" y="14" type="line"/>
      <point x="209" y="14" type="line"/>
    </contour>
  </outline>
</glyph>
<glyph name="s" format="2">
  <advance width="315"/>
  <unicode hex="0073"/>
  <outline>
    <contour>
      <point x="256" y="28" type="qcurve" smooth="yes" name="inserted"/>
      <point x="241" y="12"/>
      <point x="195" y="-8"/>
      <point x="165" y="-8" type="qcurve" smooth="yes"/>
      <point x="137" y="-8"/>
      <point x="80" y="5"/>
      <point x="55" y="26" type="qcurve"/>
      <point x="55" y="91" type="line"/>
      <point x="69" y="91" type="line"/>
      <point x="69" y="32" type="line"/>
      <point x="92" y="15"/>
      <point x="143" y="6"/>
      <point x="168" y="6" type="qcurve" smooth="yes"/>
      <point x="188" y="6"/>
      <point x="223" y="18"/>
      <point x="238" y="30" type="qcurve" smooth="yes" name="inserted"/>
      <point x="252" y="41"/>
      <point x="270" y="75"/>
      <point x="270" y="98" type="qcurve" smooth="yes"/>
      <point x="270" y="129"/>
      <point x="240" y="163"/>
      <point x="218" y="172" type="qcurve" smooth="yes" name="inserted"/>
      <point x="196" y="182"/>
      <point x="143" y="196"/>
      <point x="121" y="206" type="qcurve" smooth="yes" name="inserted"/>
      <point x="99" y="215"/>
      <point x="69" y="249"/>
      <point x="69" y="280" type="qcurve" smooth="yes"/>
      <point x="69" y="304"/>
      <point x="86" y="340"/>
      <point x="100" y="353" type="qcurve" smooth="yes" name="inserted"/>
      <point x="115" y="366"/>
      <point x="157" y="379"/>
      <point x="176" y="379" type="qcurve" smooth="yes"/>
      <point x="191" y="379"/>
      <point x="211" y="376"/>
      <point x="228" y="371" type="qcurve" smooth="yes"/>
      <point x="240" y="367"/>
      <point x="261" y="356"/>
      <point x="269" y="349" type="qcurve"/>
      <point x="269" y="284" type="line"/>
      <point x="255" y="284" type="line"/>
      <point x="255" y="343" type="line"/>
      <point x="237" y="355"/>
      <point x="196" y="365"/>
      <point x="173" y="365" type="qcurve" smooth="yes"/>
      <point x="160" y="365"/>
      <point x="126" y="357"/>
      <point x="113" y="348" type="qcurve" smooth="yes" name="inserted"/>
      <point x="100" y="338"/>
      <point x="83" y="307"/>
      <point x="83" y="285" type="qcurve"/>
      <point x="82" y="256"/>
      <point x="112" y="225"/>
      <point x="134" y="216" type="qcurve" smooth="yes" name="inserted"/>
      <point x="157" y="206"/>
      <point x="209" y="193"/>
      <point x="232" y="182" type="qcurve" smooth="yes" name="inserted"/>
      <point x="254" y="171"/>
      <point x="284" y="134"/>
      <point x="284" y="101" type="qcurve" smooth="yes"/>
      <point x="284" y="82"/>
      <point x="270" y="43"/>
    </contour>
  </outline>
</glyph>
<glyph name="x" format="2">
  <advance width="488"/>
  <unicode hex="0078"/>
  <outline>
    <contour>
      <point x="209" y="0" type="line"/>
      <point x="35" y="0" type="line"/>
      <point x="35" y="14" type="line"/>
      <point x="107" y="14" type="line"/>
      <point x="139" y="57"/>
      <point x="199" y="143"/>
      <point x="231" y="187" type="qcurve"/>
      <point x="199" y="231"/>
      <point x="135" y="316"/>
      <point x="103" y="361" type="qcurve"/>
      <point x="35" y="361" type="line"/>
      <point x="35" y="375" type="line"/>
      <point x="209" y="375" type="line"/>
      <point x="209" y="361" type="line"/>
      <point x="121" y="361" type="line"/>
      <point x="240" y="198" type="line"/>
      <point x="357" y="361" type="line"/>
      <point x="279" y="361" type="line"/>
      <point x="279" y="375" type="line"/>
      <point x="453" y="375" type="line"/>
      <point x="453" y="361" type="line"/>
      <point x="374" y="361" type="line"/>
      <point x="248" y="186" type="line"/>
      <point x="280" y="142"/>
      <point x="342" y="58"/>
      <point x="374" y="14" type="qcurve"/>
      <point x="453" y="14" type="line"/>
      <point x="453" y="0" type="line"/>
      <point x="279" y="0" type="line"/>
      <point x="279" y="14" type="line"/>
      <point x="358" y="14" type="line"/>
      <point x="328" y="56"/>
      <point x="269" y="135"/>
      <point x="240" y="175" type="qcurve"/>
      <point x="211" y="134"/>
      <point x="154" y="54"/>
      <point x="125" y="14" type="qcurve"/>
      <point x="209" y="14" type="line"/>
    </contour>
  </outline>
</glyph>
<glyph name="y" format="2">
  <advance width="590"/>
  <unicode hex="0079"/>
  <outline>
    <contour>
      <point x="266" y="-250" type="line"/>
      <point x="92" y="-250" type="line"/>
      <point x="92" y="-236" type="line"/>
      <point x="173" y="-236" type="line"/>
      <point x="202" y="-178"/>
      <point x="260" y="-61"/>
      <point x="289" y="-4" type="qcurve"/>
      <point x="243" y="87"/>
      <point x="152" y="269"/>
      <point x="107" y="361" type="qcurve"/>
      <point x="35" y="361" type="line"/>
      <point x="35" y="375" type="line"/>
      <point x="196" y="375" type="line"/>
      <point x="196" y="361" type="line"/>
      <point x="125" y="361" type="line"/>
      <point x="168" y="273"/>
      <point x="254" y="101"/>
      <point x="298" y="14" type="qcurve"/>
      <point x="340" y="97"/>
      <point x="427" y="273"/>
      <point x="471" y="361" type="qcurve"/>
      <point x="416" y="361" type="line"/>
      <point x="416" y="375" type="line"/>
      <point x="555" y="375" type="line"/>
      <point x="555" y="361" type="line"/>
      <point x="489" y="361" type="line"/>
      <point x="414" y="211"/>
      <point x="267" y="-86"/>
      <point x="192" y="-236" type="qcurve"/>
      <point x="266" y="-236" type="line"/>
    </contour>
  </outline>
</glyph>
<glyph name="z" format="1">
  <advance width="429"/>
  <unicode hex="007A"/>
  <outline>
    <contour>
      <point x="394" y="0" type="line"/>
      <point x="35" y="0" type="line"/>
      <point x="35" y="14" type="line"/>
      <point x="119" y="102"/>
      <point x="275" y="273"/>
      <point x="359" y="361" type="qcurve"/>
      <point x="47" y="361" type="line"/>
      <point x="47" y="410" type="line"/>
      <point x="61" y="410" type="line"/>
      <point x="61" y="375" type="line"/>
      <point x="377" y="375" type="line"/>
      <point x="377" y="361" type="line"/>
      <point x="293" y="273"/>
      <point x="137" y="102"/>
      <point x="53" y="14" type="qcurve"/>
      <point x="380" y="14" type="line"/>
      <point x="380" y="65" type="line"/>
      <point x="394" y="65" type="line"/>
    </contour>
  </outline>
</glyph>
<glyph name="braceleft" format="2">
  <advance width="272"/>
  <unicode hex="007B"/>
  <outline>
    <contour>
      <point x="232" y="-148" type="line"/>
      <point x="195" y="-148" type="line" smooth="yes"/>
      <point x="175" y="-148"/>
      <point x="140" y="-144"/>
      <point x="129" y="-130" type="qcurve" smooth="yes" name="inserted"/>
      <point x="118" y="-116"/>
      <point x="109" y="-53"/>
      <point x="109" y="6" type="qcurve" smooth="yes"/>
      <point x="109" y="152" type="line" smooth="yes"/>
      <point x="109" y="172"/>
      <point x="103" y="219"/>
      <point x="94" y="239" type="qcurve" smooth="yes" name="inserted"/>
      <point x="85" y="259"/>
      <point x="54" y="286"/>
      <point x="30" y="287" type="qcurve"/>
      <point x="30" y="311" type="line"/>
      <point x="54" y="312"/>
      <point x="85" y="339"/>
      <point x="94" y="359" type="qcurve" smooth="yes" name="inserted"/>
      <point x="103" y="379"/>
      <point x="109" y="426"/>
      <point x="109" y="446" type="qcurve" smooth="yes"/>
      <point x="109" y="628" type="line" smooth="yes"/>
      <point x="109" y="673"/>
      <point x="124" y="722"/>
      <point x="136" y="732" type="qcurve" smooth="yes" name="inserted"/>
      <point x="148" y="743"/>
      <point x="179" y="746"/>
      <point x="195" y="746" type="qcurve" smooth="yes"/>
      <point x="232" y="746" type="line"/>
      <point x="232" y="732" type="line"/>
      <point x="175" y="732" type="line" smooth="yes"/>
      <point x="164" y="732"/>
      <point x="147" y="726"/>
      <point x="141" y="719" type="qcurve" smooth="yes"/>
      <point x="131" y="707"/>
      <point x="123" y="658"/>
      <point x="123" y="620" type="qcurve" smooth="yes"/>
      <point x="123" y="470" type="line" smooth="yes"/>
      <point x="123" y="423"/>
      <point x="112" y="363"/>
      <point x="103" y="344" type="qcurve" smooth="yes" name="inserted"/>
      <point x="94" y="326"/>
      <point x="70" y="306"/>
      <point x="57" y="299" type="qcurve"/>
      <point x="70" y="291"/>
      <point x="94" y="271"/>
      <point x="103" y="252" type="qcurve" smooth="yes" name="inserted"/>
      <point x="112" y="233"/>
      <point x="123" y="174"/>
      <point x="123" y="128" type="qcurve" smooth="yes"/>
      <point x="123" y="-22" type="line" smooth="yes"/>
      <point x="123" y="-57"/>
      <point x="129" y="-104"/>
      <point x="138" y="-117" type="qcurve" smooth="yes"/>
      <point x="144" y="-126"/>
      <point x="162" y="-134"/>
      <point x="175" y="-134" type="qcurve" smooth="yes"/>
      <point x="232" y="-134" type="line"/>
    </contour>
  </outline>
</glyph>
<glyph name="bar" format="2">
  <advance width="219"/>
  <unicode hex="007C"/>
  <outline>
    <contour>
      <point x="113" y="-232" type="line"/>
      <point x="99" y="-232" type="line"/>
      <point x="99" y="700" type="line"/>
      <point x="113" y="700" type="line"/>
    </contour>
  </outline>
</glyph>
<glyph name="asciitilde" format="2">
  <advance width="489"/>
  <unicode hex="007E"/>
  <outline>
    <contour>
      <point x="387.5" y="474.0" type="qcurve" smooth="yes" name="inserted"/>
      <point x="376" y="466"/>
      <point x="348" y="459"/>
      <point x="334" y="459" type="qcurve" smooth="yes"/>
      <point x="314" y="459"/>
      <point x="281" y="480"/>
      <point x="265" y="497" type="qcurve" smooth="yes"/>
      <point x="249" y="515"/>
      <point x="225" y="527"/>
      <point x="211" y="527" type="qcurve" smooth="yes"/>
      <point x="203" y="527"/>
      <point x="182" y="522"/>
      <point x="172.0" y="516.0" type="qcurve" smooth="yes" name="inserted"/>
      <point x="162" y="510"/>
      <point x="147" y="489"/>
      <point x="145" y="472" type="qcurve"/>
      <point x="132" y="474" type="line"/>
      <point x="133" y="492"/>
      <point x="149" y="518"/>
      <point x="160.5" y="526.0" type="qcurve" smooth="yes" name="inserted"/>
      <point x="172" y="534"/>
      <point x="200" y="541"/>
      <point x="214" y="541" type="qcurve" smooth="yes"/>
      <point x="234" y="541"/>
      <point x="267" y="520"/>
      <point x="283" y="503" type="qcurve" smooth="yes"/>
      <point x="299" y="485"/>
      <point x="323" y="473"/>
      <point x="337" y="473" type="qcurve" smooth="yes"/>
      <point x="345" y="473"/>
      <point x="366" y="478"/>
      <point x="376.0" y="484.0" type="qcurve" smooth="yes" name="inserted"/>
      <point x="386" y="490"/>
      <point x="401" y="511"/>
      <point x="403" y="528" type="qcurve"/>
      <point x="416" y="526" type="line"/>
      <point x="415" y="508"/>
      <point x="399" y="482"/>
    </contour>
  </outline>
</glyph>
<glyph name="sterling" format="2">
  <advance width="574"/>
  <unicode hex="00A3"/>
  <outline>
    <contour>
      <point x="486" y="0" type="line"/>
      <point x="26" y="0" type="line"/>
      <point x="26" y="14" type="line"/>
      <point x="70" y="14" type="line" smooth="yes"/>
      <point x="88" y="14"/>
      <point x="109" y="29"/>
      <point x="114" y="46" type="qcurve" smooth="yes" name="inserted"/>
      <point x="119" y="63"/>
      <point x="122" y="121"/>
      <point x="122" y="164" type="qcurve" smooth="yes"/>
      <point x="122" y="311" type="line"/>
      <point x="57" y="311" type="line"/>
      <point x="57" y="325" type="line"/>
      <point x="122" y="325" type="line"/>
      <point x="122" y="500" type="line" smooth="yes"/>
      <point x="122" y="570"/>
      <point x="209" y="634"/>
      <point x="281" y="634" type="qcurve" smooth="yes"/>
      <point x="348" y="634"/>
      <point x="417" y="585"/>
      <point x="437" y="545" type="qcurve"/>
      <point x="427" y="539" type="line"/>
      <point x="414" y="563"/>
      <point x="388" y="594"/>
      <point x="371" y="603" type="qcurve" smooth="yes" name="inserted"/>
      <point x="354" y="612"/>
      <point x="311" y="620"/>
      <point x="281" y="620" type="qcurve" smooth="yes"/>
      <point x="239" y="620"/>
      <point x="183" y="601"/>
      <point x="166.5" y="585" type="qcurve" smooth="yes" name="inserted"/>
      <point x="150" y="569"/>
      <point x="136" y="527"/>
      <point x="136" y="504" type="qcurve" smooth="yes"/>
      <point x="136" y="325" type="line"/>
      <point x="265" y="325" type="line"/>
      <point x="265" y="311" type="line"/>
      <point x="136" y="311" type="line"/>
      <point x="136" y="109" type="line" smooth="yes"/>
      <point x="136" y="80"/>
      <point x="127" y="28"/>
      <point x="113" y="14" type="qcurve"/>
      <point x="472" y="14" type="line"/>
      <point x="472" y="123" type="line"/>
      <point x="486" y="123" type="line"/>
    </contour>
  </outline>
</glyph>
<glyph name="currency" format="2">
  <advance width="500"/>
  <unicode hex="00A4"/>
  <outline>
    <contour>
      <point x="129" y="361" type="qcurve" smooth="yes"/>
      <point x="129" y="336"/>
      <point x="148" y="293"/>
      <point x="164" y="277" type="qcurve" smooth="yes" name="inserted"/>
      <point x="180" y="261"/>
      <point x="223" y="242"/>
      <point x="247" y="242" type="qcurve" smooth="yes"/>
      <point x="271" y="242"/>
      <point x="314" y="261"/>
      <point x="330" y="277" type="qcurve" smooth="yes" name="inserted"/>
      <point x="346" y="293"/>
      <point x="365" y="336"/>
      <point x="365" y="361" type="qcurve" smooth="yes"/>
      <point x="365" y="386"/>
      <point x="346" y="429"/>
      <point x="330" y="445" type="qcurve" smooth="yes" name="inserted"/>
      <point x="314" y="461"/>
      <point x="271" y="480"/>
      <point x="247" y="480" type="qcurve" smooth="yes"/>
      <point x="223" y="480"/>
      <point x="180" y="461"/>
      <point x="164" y="445" type="qcurve" smooth="yes" name="inserted"/>
      <point x="148" y="429"/>
      <point x="129" y="386"/>
    </contour>
    <contour>
      <point x="160" y="260" type="qcurve"/>
      <point x="119" y="219" type="line"/>
      <point x="109" y="229" type="line"/>
      <point x="150" y="270" type="line"/>
      <point x="132.5" y="289" name="inserted"/>
      <point x="115" y="334.5"/>
      <point x="115" y="361" type="qcurve" smooth="yes"/>
      <point x="115" y="386"/>
      <point x="132" y="430"/>
      <point x="147" y="448" type="qcurve"/>
      <point x="109" y="486" type="line"/>
      <point x="119" y="496" type="line"/>
      <point x="157" y="458" type="line"/>
      <point x="174" y="475"/>
      <point x="221" y="494"/>
      <point x="247" y="494" type="qcurve" smooth="yes"/>
      <point x="273" y="494"/>
      <point x="320" y="474"/>
      <point x="337" y="457" type="qcurve"/>
      <point x="375" y="495" type="line"/>
      <point x="385" y="485" type="line"/>
      <point x="347" y="447" type="line"/>
      <point x="362" y="430"/>
      <point x="379" y="386"/>
      <point x="379" y="361" type="qcurve" smooth="yes"/>
      <point x="379" y="335"/>
      <point x="360" y="289"/>
      <point x="344" y="271" type="qcurve"/>
      <point x="385" y="230" type="line"/>
      <point x="375" y="220" type="line"/>
      <point x="334" y="261" type="line"/>
      <point x="316" y="244.5" name="inserted"/>
      <point x="272.5" y="228"/>
      <point x="247" y="228" type="qcurve" smooth="yes"/>
      <point x="222" y="228"/>
      <point x="177" y="245"/>
    </contour>
  </outline>
</glyph>
<glyph name="yen" format="1">
  <advance width="638"/>
  <unicode hex="00A5"/>
  <outline>
    <contour>
      <point x="425" y="0" type="line"/>
      <point x="251" y="0" type="line"/>
      <point x="251" y="14" type="line"/>
      <point x="330" y="14" type="line"/>
      <point x="330" y="100" type="line"/>
      <point x="170" y="100" type="line"/>
      <point x="170" y="114" type="line"/>
      <point x="330" y="114" type="line"/>
      <point x="330" y="262" type="line"/>
      <point x="329.5" y="262.0" name="inserted"/>
      <point x="329.0" y="262.5"/>
      <point x="329" y="263" type="qcurve"/>
      <point x="170" y="263" type="line"/>
      <point x="170" y="277" type="line"/>
      <point x="321" y="277" type="line"/>
      <point x="75" y="686" type="line"/>
      <point x="13" y="686" type="line"/>
      <point x="13" y="700" type="line"/>
      <point x="187" y="700" type="line"/>
      <point x="187" y="686" type="line"/>
      <point x="92" y="686" type="line"/>
      <point x="150" y="589"/>
      <point x="271" y="398"/>
      <point x="325" y="298" type="qcurve"/>
      <point x="337" y="272" type="line"/>
      <point x="338" y="272" type="line"/>
      <point x="349" y="298" type="line"/>
      <point x="580" y="686" type="line"/>
      <point x="487" y="686" type="line"/>
      <point x="487" y="700" type="line"/>
      <point x="661" y="700" type="line"/>
      <point x="661" y="686" type="line"/>
      <point x="597" y="686" type="line"/>
      <point x="536" y="583"/>
      <point x="414" y="380"/>
      <point x="353" y="277" type="qcurve"/>
      <point x="503" y="277" type="line"/>
      <point x="503" y="263" type="line"/>
      <point x="344" y="263" type="line"/>
      <point x="344" y="262" type="line"/>
      <point x="344" y="114" type="line"/>
      <point x="503" y="114" type="line"/>
      <point x="503" y="100" type="line"/>
      <point x="344" y="100" type="line"/>
      <point x="344" y="14" type="line"/>
      <point x="425" y="14" type="line"/>
    </contour>
  </outline>
</glyph>
<glyph name="section" format="2">
  <advance width="500"/>
  <unicode hex="00A7"/>
  <outline>
    <contour>
      <point x="173" y="311" type="qcurve" smooth="yes"/>
      <point x="187" y="286"/>
      <point x="234" y="262"/>
      <point x="261" y="262" type="qcurve" smooth="yes"/>
      <point x="281" y="262"/>
      <point x="316" y="278"/>
      <point x="328.5" y="291.5" type="qcurve" smooth="yes" name="inserted"/>
      <point x="341" y="305"/>
      <point x="355" y="340"/>
      <point x="355" y="358" type="qcurve" smooth="yes"/>
      <point x="355" y="382"/>
      <point x="336" y="420"/>
      <point x="321.0" y="432.5" type="qcurve" smooth="yes" name="inserted"/>
      <point x="306" y="445"/>
      <point x="269" y="459"/>
      <point x="250" y="459" type="qcurve" smooth="yes"/>
      <point x="228" y="459"/>
      <point x="194" y="442"/>
      <point x="182.5" y="428.0" type="qcurve" smooth="yes" name="inserted"/>
      <point x="171" y="414"/>
      <point x="159" y="380"/>
      <point x="159" y="363" type="qcurve" smooth="yes"/>
      <point x="159.0" y="349.5" name="inserted"/>
      <point x="166.0" y="323.5"/>
    </contour>
    <contour>
      <point x="268.5" y="18.0" type="qcurve" smooth="yes" name="inserted"/>
      <point x="257" y="9"/>
      <point x="229" y="-4"/>
      <point x="216" y="-10" type="qcurve"/>
      <point x="214" y="-7"/>
      <point x="211" y="-1"/>
      <point x="209" y="2" type="qcurve"/>
      <point x="220" y="9"/>
      <point x="245" y="22"/>
      <point x="256.0" y="29.0" type="qcurve" smooth="yes" name="inserted"/>
      <point x="267" y="36"/>
      <point x="282" y="55"/>
      <point x="282" y="68" type="qcurve" smooth="yes"/>
      <point x="282" y="83"/>
      <point x="265" y="125"/>
      <point x="248" y="154" type="qcurve" smooth="yes"/>
      <point x="161" y="304" type="line" smooth="yes"/>
      <point x="153.0" y="317.0" name="inserted"/>
      <point x="145.0" y="346.0"/>
      <point x="145" y="362" type="qcurve" smooth="yes"/>
      <point x="145" y="382"/>
      <point x="160" y="422"/>
      <point x="174.0" y="437.5" type="qcurve" smooth="yes" name="inserted"/>
      <point x="188" y="453"/>
      <point x="228" y="472"/>
      <point x="252" y="472" type="qcurve" smooth="yes"/>
      <point x="268.5" y="472.0" name="inserted"/>
      <point x="299.0" y="464.0"/>
      <point x="313" y="456" type="qcurve"/>
      <point x="296" y="483"/>
      <point x="262" y="542"/>
      <point x="248.5" y="569.0" type="qcurve" smooth="yes" name="inserted"/>
      <point x="235" y="596"/>
      <point x="218" y="641"/>
      <point x="218" y="653" type="qcurve" smooth="yes"/>
      <point x="218" y="668"/>
      <point x="233" y="691"/>
      <point x="245.0" y="700.0" type="qcurve" smooth="yes" name="inserted"/>
      <point x="257" y="709"/>
      <point x="285" y="723"/>
      <point x="298" y="730" type="qcurve"/>
      <point x="300" y="727"/>
      <point x="303" y="721"/>
      <point x="305" y="718" type="qcurve"/>
      <point x="294" y="711"/>
      <point x="269" y="698"/>
      <point x="258.0" y="691.0" type="qcurve" smooth="yes" name="inserted"/>
      <point x="247" y="684"/>
      <point x="232" y="665"/>
      <point x="232" y="652" type="qcurve" smooth="yes"/>
      <point x="232" y="637"/>
      <point x="249" y="595"/>
      <point x="266" y="566" type="qcurve" smooth="yes"/>
      <point x="353" y="415" type="line" smooth="yes"/>
      <point x="360.5" y="401.5" name="inserted"/>
      <point x="368.0" y="373.5"/>
      <point x="368" y="359" type="qcurve" smooth="yes"/>
      <point x="368" y="338"/>
      <point x="352" y="298"/>
      <point x="337.5" y="282.0" type="qcurve" smooth="yes" name="inserted"/>
      <point x="323" y="266"/>
      <point x="283" y="247"/>
      <point x="259" y="247" type="qcurve" smooth="yes"/>
      <point x="243.5" y="247.0" name="inserted"/>
      <point x="214.0" y="255.5"/>
      <point x="200" y="264" type="qcurve"/>
      <point x="264" y="154" type="line" smooth="yes"/>
      <point x="281" y="124"/>
      <point x="295" y="82"/>
      <point x="295" y="68" type="qcurve" smooth="yes"/>
      <point x="295" y="51"/>
      <point x="280" y="27"/>
    </contour>
  </outline>
</glyph>
<glyph name="dieresis" format="1">
  <advance width="370"/>
  <unicode hex="00A8"/>
  <outline>
    <contour>
      <point x="287" y="500" type="qcurve" smooth="yes"/>
      <point x="287" y="492"/>
      <point x="275" y="480"/>
      <point x="267" y="480" type="qcurve" smooth="yes"/>
      <point x="259" y="480"/>
      <point x="247" y="492"/>
      <point x="247" y="500" type="qcurve" smooth="yes"/>
      <point x="247" y="508"/>
      <point x="259" y="520"/>
      <point x="267" y="520" type="qcurve" smooth="yes"/>
      <point x="275" y="520"/>
      <point x="287" y="508"/>
    </contour>
    <contour>
      <point x="122" y="500" type="qcurve" smooth="yes"/>
      <point x="122" y="492"/>
      <point x="110" y="480"/>
      <point x="102" y="480" type="qcurve" smooth="yes"/>
      <point x="94" y="480"/>
      <point x="82" y="492"/>
      <point x="82" y="500" type="qcurve" smooth="yes"/>
      <point x="82" y="508"/>
      <point x="94" y="520"/>
      <point x="102" y="520" type="qcurve" smooth="yes"/>
      <point x="110" y="520"/>
      <point x="122" y="508"/>
    </contour>
  </outline>
</glyph>
<glyph name="ordfeminine" format="2">
  <advance width="585"/>
  <unicode hex="00AA"/>
  <outline>
    <contour>
      <point x="304.0" y="326.5" type="qcurve" smooth="yes" name="inserted"/>
      <point x="287" y="315"/>
      <point x="246" y="302"/>
      <point x="223" y="302" type="qcurve" smooth="yes"/>
      <point x="194" y="302"/>
      <point x="143" y="323"/>
      <point x="124.0" y="342.5" type="qcurve" smooth="yes" name="inserted"/>
      <point x="105" y="362"/>
      <point x="83" y="412"/>
      <point x="83" y="442" type="qcurve" smooth="yes"/>
      <point x="83" y="470"/>
      <point x="105" y="522"/>
      <point x="124.0" y="541.0" type="qcurve" smooth="yes" name="inserted"/>
      <point x="143" y="560"/>
      <point x="194" y="582"/>
      <point x="223" y="582" type="qcurve" smooth="yes"/>
      <point x="268" y="582"/>
      <point x="338" y="532"/>
      <point x="354" y="494" type="qcurve"/>
      <point x="354" y="514"/>
      <point x="355" y="556"/>
      <point x="357" y="576" type="qcurve"/>
      <point x="364" y="576" type="line"/>
      <point x="364" y="316" type="line"/>
      <point x="417" y="316" type="line"/>
      <point x="417" y="306" type="line"/>
      <point x="354" y="306" type="line"/>
      <point x="354" y="345" type="line" smooth="yes"/>
      <point x="354" y="356"/>
      <point x="354" y="379"/>
      <point x="354" y="390" type="qcurve"/>
      <point x="347" y="371"/>
      <point x="321" y="338"/>
    </contour>
    <contour>
      <point x="131.5" y="349.5" type="qcurve" smooth="yes" name="inserted"/>
      <point x="149" y="332"/>
      <point x="196" y="312"/>
      <point x="223" y="312" type="qcurve" smooth="yes"/>
      <point x="250" y="312"/>
      <point x="297" y="332"/>
      <point x="315.5" y="349.5" type="qcurve" smooth="yes" name="inserted"/>
      <point x="334" y="367"/>
      <point x="354" y="414"/>
      <point x="354" y="442" type="qcurve" smooth="yes"/>
      <point x="354" y="468"/>
      <point x="334" y="516"/>
      <point x="315.5" y="534.0" type="qcurve" smooth="yes" name="inserted"/>
      <point x="297" y="552"/>
      <point x="250" y="572"/>
      <point x="223" y="572" type="qcurve" smooth="yes"/>
      <point x="196" y="572"/>
      <point x="149" y="552"/>
      <point x="131.5" y="534.0" type="qcurve" smooth="yes" name="inserted"/>
      <point x="114" y="516"/>
      <point x="93" y="468"/>
      <point x="93" y="442" type="qcurve" smooth="yes"/>
      <point x="93" y="414"/>
      <point x="114" y="367"/>
    </contour>
  </outline>
</glyph>
<glyph name="guillemotleft" format="2">
  <advance width="601"/>
  <unicode hex="00AB"/>
  <outline>
    <contour>
      <point x="288" y="239" type="line"/>
      <point x="331" y="280"/>
      <point x="416" y="359"/>
      <point x="459" y="400" type="qcurve"/>
      <point x="459" y="383" type="line"/>
      <point x="424" y="347"/>
      <point x="352" y="275"/>
      <point x="317" y="239" type="qcurve"/>
      <point x="352" y="202"/>
      <point x="424" y="130"/>
      <point x="459" y="93" type="qcurve"/>
      <point x="459" y="77" type="line"/>
    </contour>
    <contour>
      <point x="117" y="239" type="line"/>
      <point x="160" y="280"/>
      <point x="245" y="359"/>
      <point x="288" y="400" type="qcurve"/>
      <point x="288" y="383" type="line"/>
      <point x="253" y="347"/>
      <point x="181" y="275"/>
      <point x="146" y="239" type="qcurve"/>
      <point x="181" y="202"/>
      <point x="253" y="130"/>
      <point x="288" y="93" type="qcurve"/>
      <point x="288" y="77" type="line"/>
    </contour>
  </outline>
</glyph>
<glyph name="logicalnot" format="2">
  <advance width="559"/>
  <unicode hex="00AC"/>
  <outline>
    <contour>
      <point x="460" y="148" type="line"/>
      <point x="446" y="148" type="line"/>
      <point x="446" y="227" type="line"/>
      <point x="100" y="227" type="line"/>
      <point x="100" y="241" type="line"/>
      <point x="460" y="241" type="line"/>
    </contour>
  </outline>
</glyph>
<glyph name="uni00AD" format="1">
  <advance width="300"/>
  <unicode hex="00AD"/>
  <outline>
    <contour>
      <point x="237" y="184" type="line"/>
      <point x="53" y="184" type="line"/>
      <point x="53" y="198" type="line"/>
      <point x="237" y="198" type="line"/>
    </contour>
  </outline>
</glyph>
<glyph name="registered" format="2">
  <advance width="801"/>
  <unicode hex="00AE"/>
  <outline>
    <contour>
      <point x="230.0" y="200.5" type="qcurve" smooth="yes" name="inserted"/>
      <point x="263" y="168"/>
      <point x="350" y="132"/>
      <point x="399" y="132" type="qcurve" smooth="yes"/>
      <point x="449" y="132"/>
      <point x="537" y="168"/>
      <point x="570.0" y="200.5" type="qcurve" smooth="yes" name="inserted"/>
      <point x="603" y="233"/>
      <point x="641" y="320"/>
      <point x="641" y="371" type="qcurve" smooth="yes"/>
      <point x="641" y="423"/>
      <point x="603" y="512"/>
      <point x="570.0" y="544.5" type="qcurve" smooth="yes" name="inserted"/>
      <point x="537" y="577"/>
      <point x="449" y="613"/>
      <point x="399" y="613" type="qcurve" smooth="yes"/>
      <point x="350" y="613"/>
      <point x="263" y="577"/>
      <point x="230.0" y="544.5" type="qcurve" smooth="yes" name="inserted"/>
      <point x="197" y="512"/>
      <point x="159" y="423"/>
      <point x="159" y="371" type="qcurve" smooth="yes"/>
      <point x="159" y="320"/>
      <point x="197" y="233"/>
    </contour>
    <contour>
      <point x="581.5" y="190.0" type="qcurve" smooth="yes" name="inserted"/>
      <point x="547" y="156"/>
      <point x="454" y="118"/>
      <point x="400" y="118" type="qcurve" smooth="yes"/>
      <point x="346" y="118"/>
      <point x="253" y="156"/>
      <point x="218.5" y="190.0" type="qcurve" smooth="yes" name="inserted"/>
      <point x="184" y="224"/>
      <point x="145" y="317"/>
      <point x="145" y="372" type="qcurve" smooth="yes"/>
      <point x="145" y="427"/>
      <point x="184" y="521"/>
      <point x="218.5" y="555.0" type="qcurve" smooth="yes" name="inserted"/>
      <point x="253" y="589"/>
      <point x="346" y="627"/>
      <point x="400" y="627" type="qcurve" smooth="yes"/>
      <point x="454" y="627"/>
      <point x="547" y="589"/>
      <point x="581.5" y="555.0" type="qcurve" smooth="yes" name="inserted"/>
      <point x="616" y="521"/>
      <point x="655" y="427"/>
      <point x="655" y="372" type="qcurve" smooth="yes"/>
      <point x="655" y="317"/>
      <point x="616" y="224"/>
    </contour>
    <contour>
      <point x="393" y="210" type="line"/>
      <point x="311" y="210" type="line"/>
      <point x="311" y="217" type="line"/>
      <point x="344" y="217" type="line"/>
      <point x="344" y="534" type="line"/>
      <point x="311" y="534" type="line"/>
      <point x="311" y="541" type="line"/>
      <point x="410" y="541" type="line" smooth="yes"/>
      <point x="423" y="541"/>
      <point x="456" y="532"/>
      <point x="470.5" y="521.5" type="qcurve" smooth="yes" name="inserted"/>
      <point x="485" y="511"/>
      <point x="504" y="479"/>
      <point x="504" y="457" type="qcurve" smooth="yes"/>
      <point x="504" y="424"/>
      <point x="468" y="381"/>
      <point x="433" y="374" type="qcurve"/>
      <point x="506" y="217" type="line"/>
      <point x="546" y="217" type="line"/>
      <point x="546" y="210" type="line"/>
      <point x="503" y="210" type="line"/>
      <point x="426" y="373" type="line"/>
      <point x="421" y="372"/>
      <point x="409" y="371"/>
      <point x="403" y="371" type="qcurve" smooth="yes"/>
      <point x="351" y="371" type="line"/>
      <point x="351" y="217" type="line"/>
      <point x="393" y="217" type="line"/>
    </contour>
    <contour>
      <point x="351" y="534" type="line"/>
      <point x="351" y="378" type="line"/>
      <point x="405" y="378" type="line" smooth="yes"/>
      <point x="432" y="378"/>
      <point x="468" y="393"/>
      <point x="478.5" y="404.5" type="qcurve" smooth="yes" name="inserted"/>
      <point x="489" y="416"/>
      <point x="498" y="444"/>
      <point x="498" y="457" type="qcurve" smooth="yes"/>
      <point x="498" y="488"/>
      <point x="445" y="534"/>
      <point x="405" y="534" type="qcurve" smooth="yes"/>
    </contour>
  </outline>
</glyph>
<glyph name="degree" format="1">
  <advance width="282"/>
  <unicode hex="00B0"/>
  <outline>
    <contour>
      <point x="75" y="560" type="qcurve" smooth="yes"/>
      <point x="75" y="534"/>
      <point x="112" y="498"/>
      <point x="138" y="498" type="qcurve" smooth="yes"/>
      <point x="164" y="498"/>
      <point x="200" y="534"/>
      <point x="200" y="560" type="qcurve" smooth="yes"/>
      <point x="200" y="586"/>
      <point x="164" y="622"/>
      <point x="138" y="622" type="qcurve" smooth="yes"/>
      <point x="112" y="622"/>
      <point x="75" y="586"/>
    </contour>
    <contour>
      <point x="214" y="559" type="qcurve" smooth="yes"/>
      <point x="214" y="527"/>
      <point x="170" y="484"/>
      <point x="138" y="484" type="qcurve" smooth="yes"/>
      <point x="105" y="484"/>
      <point x="61" y="527"/>
      <point x="61" y="559" type="qcurve" smooth="yes"/>
      <point x="61" y="592"/>
      <point x="105" y="636"/>
      <point x="138" y="636" type="qcurve" smooth="yes"/>
      <point x="170" y="636"/>
      <point x="214" y="592"/>
    </contour>
  </outline>
</glyph>
<glyph name="twosuperior" format="1">
  <advance width="398"/>
  <unicode hex="00B2"/>
  <outline>
    <contour>
      <point x="298" y="375" type="line"/>
      <point x="102" y="375" type="line"/>
      <point x="134" y="406"/>
      <point x="194" y="465"/>
      <point x="217.0" y="493.5" type="qcurve" smooth="yes" name="inserted"/>
      <point x="240" y="522"/>
      <point x="269" y="575"/>
      <point x="269" y="598" type="qcurve" smooth="yes"/>
      <point x="269" y="626"/>
      <point x="253" y="662"/>
      <point x="241.0" y="673.0" type="qcurve" smooth="yes" name="inserted"/>
      <point x="229" y="684"/>
      <point x="201" y="693"/>
      <point x="189" y="693" type="qcurve" smooth="yes"/>
      <point x="164" y="693"/>
      <point x="133" y="676"/>
      <point x="124.0" y="663.0" type="qcurve" smooth="yes" name="inserted"/>
      <point x="115" y="650"/>
      <point x="108" y="619"/>
      <point x="108" y="607" type="qcurve" smooth="yes"/>
      <point x="108.0" y="589.5" name="inserted"/>
      <point x="118.0" y="561.0"/>
      <point x="128" y="550" type="qcurve"/>
      <point x="123" y="546" type="line"/>
      <point x="113" y="558"/>
      <point x="101" y="586"/>
      <point x="101" y="607" type="qcurve" smooth="yes"/>
      <point x="101" y="626"/>
      <point x="112" y="660"/>
      <point x="123.0" y="673.0" type="qcurve" smooth="yes" name="inserted"/>
      <point x="134" y="686"/>
      <point x="168" y="700"/>
      <point x="189" y="700" type="qcurve" smooth="yes"/>
      <point x="208" y="700"/>
      <point x="240" y="686"/>
      <point x="251.5" y="673.0" type="qcurve" smooth="yes" name="inserted"/>
      <point x="263" y="660"/>
      <point x="276" y="625"/>
      <point x="276" y="604" type="qcurve" smooth="yes"/>
      <point x="276" y="576"/>
      <point x="246" y="519"/>
      <point x="223.5" y="491.0" type="qcurve" smooth="yes" name="inserted"/>
      <point x="201" y="463"/>
      <point x="146" y="409"/>
      <point x="120" y="382" type="qcurve"/>
      <point x="292" y="382" type="line"/>
      <point x="292" y="438" type="line"/>
      <point x="298" y="438" type="line"/>
    </contour>
  </outline>
</glyph>
<glyph name="threesuperior" format="2">
  <advance width="419"/>
  <unicode hex="00B3"/>
  <outline>
    <contour>
      <point x="240.0" y="405.5" type="qcurve" smooth="yes" name="inserted"/>
      <point x="226" y="392"/>
      <point x="190" y="376"/>
      <point x="169" y="376" type="qcurve" smooth="yes"/>
      <point x="147" y="376"/>
      <point x="110" y="394"/>
      <point x="96" y="409" type="qcurve"/>
      <point x="101" y="415" type="line"/>
      <point x="113" y="401"/>
      <point x="147" y="383"/>
      <point x="168" y="383" type="qcurve" smooth="yes"/>
      <point x="187" y="383"/>
      <point x="222" y="398"/>
      <point x="235.0" y="410.5" type="qcurve" smooth="yes" name="inserted"/>
      <point x="248" y="423"/>
      <point x="263" y="457"/>
      <point x="263" y="476" type="qcurve" smooth="yes"/>
      <point x="263" y="495"/>
      <point x="248" y="529"/>
      <point x="235.0" y="541.5" type="qcurve" smooth="yes" name="inserted"/>
      <point x="222" y="554"/>
      <point x="187" y="569"/>
      <point x="168" y="569" type="qcurve" smooth="yes"/>
      <point x="160" y="569"/>
      <point x="145" y="563"/>
      <point x="138" y="558" type="qcurve"/>
      <point x="242" y="693" type="line"/>
      <point x="108" y="693" type="line"/>
      <point x="108" y="660" type="line"/>
      <point x="101" y="660" type="line"/>
      <point x="101" y="700" type="line"/>
      <point x="258" y="700" type="line"/>
      <point x="160" y="576" type="line"/>
      <point x="182" y="577"/>
      <point x="222" y="563"/>
      <point x="237.0" y="549.5" type="qcurve" smooth="yes" name="inserted"/>
      <point x="252" y="536"/>
      <point x="270" y="498"/>
      <point x="270" y="476" type="qcurve" smooth="yes"/>
      <point x="270" y="455"/>
      <point x="254" y="419"/>
    </contour>
  </outline>
</glyph>
<glyph name="acute" format="2">
  <advance width="218"/>
  <unicode hex="00B4"/>
  <outline>
    <contour>
      <point x="116" y="479" type="qcurve"/>
      <point x="100" y="479" type="line"/>
      <point x="123" y="512"/>
      <point x="167" y="579"/>
      <point x="190" y="612" type="qcurve"/>
      <point x="206" y="612" type="line"/>
      <point x="183" y="579"/>
      <point x="139" y="512"/>
    </contour>
  </outline>
</glyph>
<glyph name="mu" format="1">
  <advance width="545"/>
  <unicode hex="00B5"/>
  <outline>
    <contour>
      <point x="131" y="-201" type="line"/>
      <point x="117" y="-201" type="line"/>
      <point x="117" y="361" type="line"/>
      <point x="38" y="361" type="line"/>
      <point x="38" y="375" type="line"/>
      <point x="131" y="375" type="line"/>
      <point x="131" y="98" type="line"/>
      <point x="133" y="62"/>
      <point x="182" y="9"/>
      <point x="226" y="7" type="qcurve" smooth="yes"/>
      <point x="260" y="7"/>
      <point x="321" y="29"/>
      <point x="344.0" y="48.5" type="qcurve" smooth="yes" name="inserted"/>
      <point x="367" y="68"/>
      <point x="395" y="123"/>
      <point x="395" y="155" type="qcurve" smooth="yes"/>
      <point x="395" y="361" type="line"/>
      <point x="316" y="361" type="line"/>
      <point x="316" y="375" type="line"/>
      <point x="409" y="375" type="line"/>
      <point x="409" y="14" type="line"/>
      <point x="486" y="14" type="line"/>
      <point x="486" y="0" type="line"/>
      <point x="403" y="0" type="line"/>
      <point x="400" y="53" type="line"/>
      <point x="398" y="98" type="line"/>
      <point x="378" y="50"/>
      <point x="289" y="-7"/>
      <point x="233" y="-7" type="qcurve" smooth="yes"/>
      <point x="197" y="-7"/>
      <point x="145" y="23"/>
      <point x="131" y="49" type="qcurve"/>
    </contour>
  </outline>
</glyph>
<glyph name="paragraph" format="1">
  <advance width="525"/>
  <unicode hex="00B6"/>
  <outline>
    <contour>
      <point x="215" y="0" type="line"/>
      <point x="201" y="0" type="line"/>
      <point x="201" y="423" type="line"/>
      <point x="167" y="423"/>
      <point x="107" y="448"/>
      <point x="85.0" y="470.0" type="qcurve" smooth="yes" name="inserted"/>
      <point x="63" y="492"/>
      <point x="38" y="552"/>
      <point x="38" y="586" type="qcurve" smooth="yes"/>
      <point x="38" y="620"/>
      <point x="63" y="680"/>
      <point x="85.0" y="702.0" type="qcurve" smooth="yes" name="inserted"/>
      <point x="107" y="724"/>
      <point x="167" y="750"/>
      <point x="201" y="750" type="qcurve" smooth="yes"/>
      <point x="486" y="750" type="line"/>
      <point x="486" y="736" type="line"/>
      <point x="378" y="736" type="line"/>
      <point x="378" y="14" type="line"/>
      <point x="486" y="14" type="line"/>
      <point x="486" y="0" type="line"/>
      <point x="364" y="0" type="line"/>
      <point x="364" y="736" type="line"/>
      <point x="215" y="736" type="line"/>
    </contour>
  </outline>
</glyph>
<glyph name="cedilla" format="2">
  <advance width="452"/>
  <unicode hex="00B8"/>
  <outline>
    <contour>
      <point x="290" y="-127" type="qcurve" smooth="yes"/>
      <point x="290" y="-178"/>
      <point x="239" y="-223"/>
      <point x="206" y="-223" type="qcurve" smooth="yes"/>
      <point x="180" y="-223"/>
      <point x="135" y="-194"/>
      <point x="125" y="-165" type="qcurve"/>
      <point x="129" y="-164"/>
      <point x="136" y="-162"/>
      <point x="140" y="-161" type="qcurve"/>
      <point x="146" y="-182"/>
      <point x="181" y="-209"/>
      <point x="206" y="-209" type="qcurve" smooth="yes"/>
      <point x="237" y="-209"/>
      <point x="276" y="-168"/>
      <point x="276" y="-137" type="qcurve" smooth="yes"/>
      <point x="276" y="-109"/>
      <point x="250" y="-79"/>
      <point x="234.5" y="-68.5" type="qcurve" smooth="yes" name="inserted"/>
      <point x="219" y="-58"/>
      <point x="193" y="-36"/>
      <point x="193" y="-16" type="qcurve" smooth="yes"/>
      <point x="193" y="0" type="line"/>
      <point x="207" y="0" type="line"/>
      <point x="207" y="-6" type="line" smooth="yes"/>
      <point x="207" y="-32"/>
      <point x="235" y="-53"/>
      <point x="248" y="-61" type="qcurve" smooth="yes"/>
      <point x="271" y="-76"/>
      <point x="290" y="-113"/>
    </contour>
  </outline>
</glyph>
<glyph name="onesuperior" format="2">
  <advance width="249"/>
  <unicode hex="00B9"/>
  <outline>
    <contour>
      <point x="172" y="375" type="line"/>
      <point x="86" y="375" type="line"/>
      <point x="86" y="381" type="line"/>
      <point x="125" y="381" type="line"/>
      <point x="125" y="693" type="line"/>
      <point x="70" y="693" type="line"/>
      <point x="70" y="700" type="line"/>
      <point x="133" y="700" type="line"/>
      <point x="133" y="381" type="line"/>
      <point x="172" y="381" type="line"/>
    </contour>
  </outline>
</glyph>
<glyph name="ordmasculine" format="2">
  <advance width="469"/>
  <unicode hex="00BA"/>
  <outline>
    <contour>
      <point x="331" y="342.5" type="qcurve" smooth="yes" name="inserted"/>
      <point x="312" y="323"/>
      <point x="260" y="302"/>
      <point x="231" y="302" type="qcurve" smooth="yes"/>
      <point x="201" y="302"/>
      <point x="151" y="323"/>
      <point x="132" y="342.5" type="qcurve" smooth="yes" name="inserted"/>
      <point x="113" y="362"/>
      <point x="91" y="412"/>
      <point x="91" y="442" type="qcurve" smooth="yes"/>
      <point x="91" y="470"/>
      <point x="113" y="522"/>
      <point x="132" y="541.5" type="qcurve" smooth="yes" name="inserted"/>
      <point x="151" y="561"/>
      <point x="201" y="583"/>
      <point x="231" y="583" type="qcurve" smooth="yes"/>
      <point x="260" y="583"/>
      <point x="312" y="561"/>
      <point x="331" y="541.5" type="qcurve" smooth="yes" name="inserted"/>
      <point x="350" y="522"/>
      <point x="372" y="470"/>
      <point x="372" y="442" type="qcurve" smooth="yes"/>
      <point x="372" y="412"/>
      <point x="350" y="362"/>
    </contour>
    <contour>
      <point x="139" y="349.5" type="qcurve" smooth="yes" name="inserted"/>
      <point x="157" y="332"/>
      <point x="203" y="312"/>
      <point x="231" y="312" type="qcurve" smooth="yes"/>
      <point x="258" y="312"/>
      <point x="305" y="332"/>
      <point x="323" y="349.5" type="qcurve" smooth="yes" name="inserted"/>
      <point x="341" y="367"/>
      <point x="361" y="414"/>
      <point x="361" y="442" type="qcurve" smooth="yes"/>
      <point x="361" y="468"/>
      <point x="341" y="516"/>
      <point x="323" y="534" type="qcurve" smooth="yes" name="inserted"/>
      <point x="305" y="552"/>
      <point x="258" y="572"/>
      <point x="231" y="572" type="qcurve" smooth="yes"/>
      <point x="203" y="572"/>
      <point x="157" y="552"/>
      <point x="139" y="534" type="qcurve" smooth="yes" name="inserted"/>
      <point x="121" y="516"/>
      <point x="101" y="468"/>
      <point x="101" y="442" type="qcurve" smooth="yes"/>
      <point x="101" y="414"/>
      <point x="121" y="367"/>
    </contour>
  </outline>
</glyph>
<glyph name="onehalf" format="1">
  <advance width="1069"/>
  <unicode hex="00BD"/>
  <outline>
    <contour>
      <point x="268" y="234" type="line"/>
      <point x="145" y="234" type="line"/>
      <point x="145" y="244" type="line"/>
      <point x="201" y="244" type="line"/>
      <point x="201" y="685" type="line"/>
      <point x="121" y="685" type="line"/>
      <point x="121" y="695" type="line"/>
      <point x="211" y="695" type="line"/>
      <point x="211" y="244" type="line"/>
      <point x="268" y="244" type="line"/>
    </contour>
    <contour>
      <point x="870" y="0" type="line"/>
      <point x="590" y="0" type="line"/>
      <point x="636" y="44"/>
      <point x="722" y="129"/>
      <point x="755.0" y="170.0" type="qcurve" smooth="yes" name="inserted"/>
      <point x="788" y="211"/>
      <point x="828" y="286"/>
      <point x="828" y="319" type="qcurve" smooth="yes"/>
      <point x="828" y="359"/>
      <point x="805" y="411"/>
      <point x="788.0" y="426.5" type="qcurve" smooth="yes" name="inserted"/>
      <point x="771" y="442"/>
      <point x="732" y="455"/>
      <point x="714" y="455" type="qcurve" smooth="yes"/>
      <point x="679" y="455"/>
      <point x="634" y="430"/>
      <point x="621.0" y="411.5" type="qcurve" smooth="yes" name="inserted"/>
      <point x="608" y="393"/>
      <point x="598" y="350"/>
      <point x="598" y="331" type="qcurve" smooth="yes"/>
      <point x="598.0" y="306.0" name="inserted"/>
      <point x="612.5" y="266.0"/>
      <point x="627" y="251" type="qcurve"/>
      <point x="620" y="245" type="line"/>
      <point x="605" y="262"/>
      <point x="588" y="302"/>
      <point x="588" y="331" type="qcurve" smooth="yes"/>
      <point x="588" y="360"/>
      <point x="605" y="408"/>
      <point x="620.5" y="426.0" type="qcurve" smooth="yes" name="inserted"/>
      <point x="636" y="444"/>
      <point x="684" y="465"/>
      <point x="714" y="465" type="qcurve" smooth="yes"/>
      <point x="742" y="465"/>
      <point x="787" y="444"/>
      <point x="803.5" y="426.0" type="qcurve" smooth="yes" name="inserted"/>
      <point x="820" y="408"/>
      <point x="838" y="358"/>
      <point x="838" y="328" type="qcurve" smooth="yes"/>
      <point x="838" y="287"/>
      <point x="796" y="206"/>
      <point x="763.5" y="166.0" type="qcurve" smooth="yes" name="inserted"/>
      <point x="731" y="126"/>
      <point x="653" y="48"/>
      <point x="616" y="10" type="qcurve"/>
      <point x="860" y="10" type="line"/>
      <point x="860" y="90" type="line"/>
      <point x="870" y="90" type="line"/>
    </contour>
    <contour>
      <point x="309" y="-19" type="qcurve"/>
      <point x="295" y="-19" type="line"/>
      <point x="365" y="171"/>
      <point x="503" y="545"/>
      <point x="573" y="735" type="qcurve"/>
      <point x="587" y="735" type="line"/>
      <point x="517" y="545"/>
      <point x="379" y="171"/>
    </contour>
  </outline>
</glyph>
<glyph name="threequarters" format="2">
  <advance width="1276"/>
  <unicode hex="00BE"/>
  <outline>
    <contour>
      <point x="379.5" y="246.0" type="qcurve" smooth="yes" name="inserted"/>
      <point x="358" y="225"/>
      <point x="301" y="200"/>
      <point x="268" y="200" type="qcurve" smooth="yes"/>
      <point x="234" y="200"/>
      <point x="175" y="228"/>
      <point x="154" y="251" type="qcurve"/>
      <point x="161" y="261" type="line"/>
      <point x="180" y="238"/>
      <point x="234" y="211"/>
      <point x="266" y="211" type="qcurve" smooth="yes"/>
      <point x="296" y="211"/>
      <point x="351" y="234"/>
      <point x="371.0" y="254.0" type="qcurve" smooth="yes" name="inserted"/>
      <point x="391" y="274"/>
      <point x="415" y="327"/>
      <point x="415" y="357" type="qcurve" smooth="yes"/>
      <point x="415" y="387"/>
      <point x="391" y="440"/>
      <point x="371.0" y="459.5" type="qcurve" smooth="yes" name="inserted"/>
      <point x="351" y="479"/>
      <point x="296" y="502"/>
      <point x="266" y="502" type="qcurve" smooth="yes"/>
      <point x="254" y="502"/>
      <point x="230" y="493"/>
      <point x="219" y="485" type="qcurve"/>
      <point x="382" y="697" type="line"/>
      <point x="172" y="697" type="line"/>
      <point x="172" y="645" type="line"/>
      <point x="161" y="645" type="line"/>
      <point x="161" y="708" type="line"/>
      <point x="407" y="708" type="line"/>
      <point x="254" y="513" type="line"/>
      <point x="288" y="515"/>
      <point x="351" y="492"/>
      <point x="374.5" y="471.5" type="qcurve" smooth="yes" name="inserted"/>
      <point x="398" y="451"/>
      <point x="426" y="391"/>
      <point x="426" y="357" type="qcurve" smooth="yes"/>
      <point x="426" y="324"/>
      <point x="401" y="267"/>
    </contour>
    <contour>
      <point x="474" y="-19" type="qcurve"/>
      <point x="460" y="-19" type="line"/>
      <point x="530" y="171"/>
      <point x="668" y="546"/>
      <point x="738" y="736" type="qcurve"/>
      <point x="752" y="736" type="line"/>
      <point x="682" y="546"/>
      <point x="544" y="171"/>
    </contour>
    <contour>
      <point x="1034" y="0" type="line"/>
      <point x="904" y="0" type="line"/>
      <point x="904" y="10" type="line"/>
      <point x="962" y="10" type="line"/>
      <point x="962" y="136" type="line"/>
      <point x="700" y="136" type="line"/>
      <point x="972" y="490" type="line"/>
      <point x="972" y="147" type="line"/>
      <point x="1045" y="147" type="line"/>
      <point x="1045" y="136" type="line"/>
      <point x="972" y="136" type="line"/>
      <point x="972" y="10" type="line"/>
      <point x="1034" y="10" type="line"/>
    </contour>
    <contour>
      <point x="962" y="459" type="line"/>
      <point x="722" y="147" type="line"/>
      <point x="962" y="147" type="line"/>
    </contour>
  </outline>
</glyph>
<glyph name="AE" format="1">
  <advance width="775"/>
  <unicode hex="00C6"/>
  <outline>
    <contour>
      <point x="209" y="0" type="line"/>
      <point x="35" y="0" type="line"/>
      <point x="35" y="14" type="line"/>
      <point x="112" y="14" type="line"/>
      <point x="185" y="186"/>
      <point x="329" y="527"/>
      <point x="402" y="700" type="qcurve"/>
      <point x="726" y="700" type="line"/>
      <point x="726" y="546" type="line"/>
      <point x="712" y="546" type="line"/>
      <point x="712" y="686" type="line"/>
      <point x="416" y="686" type="line"/>
      <point x="416" y="360" type="line"/>
      <point x="687" y="360" type="line"/>
      <point x="687" y="346" type="line"/>
      <point x="416" y="346" type="line"/>
      <point x="416" y="14" type="line"/>
      <point x="726" y="14" type="line"/>
      <point x="726" y="154" type="line"/>
      <point x="740" y="154" type="line"/>
      <point x="740" y="0" type="line"/>
      <point x="402" y="0" type="line"/>
      <point x="402" y="316" type="line"/>
      <point x="255" y="316" type="line"/>
      <point x="223" y="240"/>
      <point x="159" y="89"/>
      <point x="127" y="14" type="qcurve"/>
      <point x="209" y="14" type="line"/>
    </contour>
    <contour>
      <point x="402" y="666" type="line"/>
      <point x="370" y="580"/>
      <point x="296" y="415"/>
      <point x="261" y="330" type="qcurve"/>
      <point x="402" y="330" type="line"/>
    </contour>
  </outline>
</glyph>
<glyph name="Ccedilla" format="1">
  <advance width="610"/>
  <unicode hex="00C7"/>
  <outline>
    <contour>
      <point x="475" y="-127" type="qcurve" smooth="yes"/>
      <point x="475" y="-178"/>
      <point x="424" y="-223"/>
      <point x="391" y="-223" type="qcurve" smooth="yes"/>
      <point x="365" y="-223"/>
      <point x="320" y="-194"/>
      <point x="310" y="-165" type="qcurve"/>
      <point x="325" y="-161" type="line"/>
      <point x="331" y="-182"/>
      <point x="366" y="-209"/>
      <point x="391" y="-209" type="qcurve" smooth="yes"/>
      <point x="422" y="-209"/>
      <point x="461" y="-168"/>
      <point x="461" y="-137" type="qcurve" smooth="yes"/>
      <point x="461" y="-109"/>
      <point x="435" y="-79"/>
      <point x="419.5" y="-68.5" type="qcurve" smooth="yes" name="inserted"/>
      <point x="404" y="-58"/>
      <point x="378" y="-36"/>
      <point x="378" y="-16" type="qcurve" smooth="yes"/>
      <point x="378" y="-7" type="line"/>
      <point x="306" y="-4"/>
      <point x="181" y="53"/>
      <point x="134.5" y="101.0" type="qcurve" smooth="yes" name="inserted"/>
      <point x="88" y="149"/>
      <point x="35" y="277"/>
      <point x="35" y="349" type="qcurve" smooth="yes"/>
      <point x="35" y="423"/>
      <point x="91" y="554"/>
      <point x="139.5" y="602.5" type="qcurve" smooth="yes" name="inserted"/>
      <point x="188" y="651"/>
      <point x="318" y="708"/>
      <point x="392" y="708" type="qcurve" smooth="yes"/>
      <point x="443" y="708"/>
      <point x="534" y="682"/>
      <point x="575" y="658" type="qcurve"/>
      <point x="575" y="484" type="line"/>
      <point x="561" y="484" type="line"/>
      <point x="561" y="649" type="line"/>
      <point x="523" y="671"/>
      <point x="437" y="694"/>
      <point x="392" y="694" type="qcurve" smooth="yes"/>
      <point x="321" y="694"/>
      <point x="196" y="639"/>
      <point x="149.5" y="592.0" type="qcurve" smooth="yes" name="inserted"/>
      <point x="103" y="545"/>
      <point x="49" y="419"/>
      <point x="49" y="348" type="qcurve" smooth="yes"/>
      <point x="49" y="277"/>
      <point x="103" y="153"/>
      <point x="149.0" y="106.5" type="qcurve" smooth="yes" name="inserted"/>
      <point x="195" y="60"/>
      <point x="319" y="6"/>
      <point x="389" y="6" type="qcurve" smooth="yes"/>
      <point x="437" y="6"/>
      <point x="526" y="31"/>
      <point x="565" y="54" type="qcurve"/>
      <point x="574" y="42" type="line"/>
      <point x="534" y="19"/>
      <point x="443" y="-8"/>
      <point x="392" y="-8" type="qcurve"/>
      <point x="392.0" y="-12.5" name="inserted"/>
      <point x="393.0" y="-19.0"/>
      <point x="394" y="-21" type="qcurve"/>
      <point x="399" y="-38"/>
      <point x="422" y="-54"/>
      <point x="433" y="-61" type="qcurve" smooth="yes"/>
      <point x="456" y="-76"/>
      <point x="475" y="-113"/>
    </contour>
  </outline>
</glyph>
<glyph name="multiply" format="1">
  <advance width="500"/>
  <unicode hex="00D7"/>
  <outline>
    <contour>
      <point x="262" y="123" type="line"/>
      <point x="231" y="92"/>
      <point x="171" y="31"/>
      <point x="140" y="0" type="qcurve"/>
      <point x="130" y="10" type="line"/>
      <point x="161" y="41"/>
      <point x="221" y="102"/>
      <point x="252" y="133" type="qcurve"/>
      <point x="131" y="254" type="line"/>
      <point x="141" y="264" type="line"/>
      <point x="262" y="143" type="line"/>
      <point x="293" y="174"/>
      <point x="354" y="234"/>
      <point x="385" y="265" type="qcurve"/>
      <point x="395" y="255" type="line"/>
      <point x="364" y="224"/>
      <point x="303" y="164"/>
      <point x="272" y="133" type="qcurve"/>
      <point x="395" y="10" type="line"/>
      <point x="385" y="0" type="line"/>
    </contour>
  </outline>
</glyph>
<glyph name="Oslash" format="2">
  <advance width="786"/>
  <unicode hex="00D8"/>
  <outline>
    <contour>
      <point x="49" y="348" type="qcurve" smooth="yes"/>
      <point x="49" y="272"/>
      <point x="109" y="142"/>
      <point x="160" y="95" type="qcurve"/>
      <point x="271" y="228"/>
      <point x="490" y="489"/>
      <point x="601" y="622" type="qcurve"/>
      <point x="557" y="656"/>
      <point x="451" y="694"/>
      <point x="392" y="694" type="qcurve" smooth="yes"/>
      <point x="321" y="694"/>
      <point x="196" y="639"/>
      <point x="149.5" y="592" type="qcurve" smooth="yes" name="inserted"/>
      <point x="103" y="545"/>
      <point x="49" y="419"/>
    </contour>
    <contour>
      <point x="169" y="87" type="qcurve"/>
      <point x="214" y="49"/>
      <point x="326" y="6"/>
      <point x="389" y="6" type="qcurve" smooth="yes"/>
      <point x="460" y="6"/>
      <point x="587" y="60"/>
      <point x="634.5" y="106.5" type="qcurve" smooth="yes" name="inserted"/>
      <point x="682" y="153"/>
      <point x="737" y="278"/>
      <point x="737" y="349" type="qcurve" smooth="yes"/>
      <point x="737" y="429"/>
      <point x="668" y="567"/>
      <point x="610" y="615" type="qcurve"/>
      <point x="463" y="439"/>
      <point x="316" y="263"/>
    </contour>
    <contour>
      <point x="161" y="77" type="qcurve"/>
      <point x="143" y="56"/>
      <point x="108" y="13"/>
      <point x="90" y="-8" type="qcurve"/>
      <point x="88" y="-6"/>
      <point x="83" y="-2"/>
      <point x="81" y="0" type="qcurve"/>
      <point x="99" y="21"/>
      <point x="134" y="64"/>
      <point x="152" y="85" type="qcurve"/>
      <point x="98" y="134"/>
      <point x="35" y="270"/>
      <point x="35" y="349" type="qcurve" smooth="yes"/>
      <point x="35" y="423"/>
      <point x="91" y="554"/>
      <point x="139.5" y="602.5" type="qcurve" smooth="yes" name="inserted"/>
      <point x="188" y="651"/>
      <point x="318" y="708"/>
      <point x="392" y="708" type="qcurve" smooth="yes"/>
      <point x="454" y="708"/>
      <point x="565" y="668"/>
      <point x="611" y="633" type="qcurve"/>
      <point x="627" y="652"/>
      <point x="657" y="689"/>
      <point x="673" y="708" type="qcurve"/>
      <point x="675" y="706"/>
      <point x="680" y="702"/>
      <point x="682" y="700" type="qcurve"/>
      <point x="666" y="681"/>
      <point x="636" y="645"/>
      <point x="620" y="626" type="qcurve"/>
      <point x="680" y="576"/>
      <point x="751" y="433"/>
      <point x="751" y="349" type="qcurve" smooth="yes"/>
      <point x="751" y="275"/>
      <point x="694" y="145"/>
      <point x="645.5" y="96.5" type="qcurve" smooth="yes" name="inserted"/>
      <point x="597" y="48"/>
      <point x="466" y="-8"/>
      <point x="392" y="-8" type="qcurve" smooth="yes"/>
      <point x="326" y="-8"/>
      <point x="208" y="37"/>
    </contour>
  </outline>
</glyph>
<glyph name="Thorn" format="1">
  <advance width="481"/>
  <unicode hex="00DE"/>
  <outline>
    <contour>
      <point x="209" y="0" type="line"/>
      <point x="35" y="0" type="line"/>
      <point x="35" y="14" type="line"/>
      <point x="106" y="14" type="line"/>
      <point x="106" y="686" type="line"/>
      <point x="35" y="686" type="line"/>
      <point x="35" y="700" type="line"/>
      <point x="209" y="700" type="line"/>
      <point x="209" y="686" type="line"/>
      <point x="120" y="686" type="line"/>
      <point x="120" y="535" type="line"/>
      <point x="246" y="535" type="line" smooth="yes"/>
      <point x="275" y="535"/>
      <point x="345" y="515"/>
      <point x="375.0" y="494.0" type="qcurve" smooth="yes" name="inserted"/>
      <point x="405" y="473"/>
      <point x="446" y="405"/>
      <point x="446" y="357" type="qcurve" smooth="yes"/>
      <point x="446" y="274"/>
      <point x="335" y="176"/>
      <point x="232" y="176" type="qcurve" smooth="yes"/>
      <point x="120" y="176" type="line"/>
      <point x="120" y="14" type="line"/>
      <point x="209" y="14" type="line"/>
    </contour>
    <contour>
      <point x="120" y="521" type="line"/>
      <point x="120" y="190" type="line"/>
      <point x="235" y="190" type="line" smooth="yes"/>
      <point x="293" y="190"/>
      <point x="369" y="222"/>
      <point x="391.5" y="246.5" type="qcurve" smooth="yes" name="inserted"/>
      <point x="414" y="271"/>
      <point x="432" y="330"/>
      <point x="432" y="357" type="qcurve" smooth="yes"/>
      <point x="432" y="390"/>
      <point x="402" y="449"/>
      <point x="375.5" y="471.5" type="qcurve" smooth="yes" name="inserted"/>
      <point x="349" y="494"/>
      <point x="278" y="521"/>
      <point x="236" y="521" type="qcurve" smooth="yes"/>
    </contour>
  </outline>
</glyph>
<glyph name="germandbls" format="2">
  <advance width="542"/>
  <unicode hex="00DF"/>
  <outline>
    <contour>
      <point x="446.5" y="51.5" type="qcurve" smooth="yes" name="inserted"/>
      <point x="419" y="24"/>
      <point x="344" y="-8"/>
      <point x="302" y="-8" type="qcurve" smooth="yes"/>
      <point x="273" y="-8"/>
      <point x="219" y="8"/>
      <point x="196" y="22" type="qcurve"/>
      <point x="202" y="33" type="line"/>
      <point x="224" y="19" name="inserted"/>
      <point x="273" y="5"/>
      <point x="300" y="5" type="qcurve" smooth="yes"/>
      <point x="340" y="5"/>
      <point x="410" y="36"/>
      <point x="436" y="62" type="qcurve" smooth="yes" name="inserted"/>
      <point x="462" y="88"/>
      <point x="493" y="157"/>
      <point x="493" y="195" type="qcurve" smooth="yes"/>
      <point x="493" y="233"/>
      <point x="463" y="300"/>
      <point x="437" y="325.5" type="qcurve" smooth="yes" name="inserted"/>
      <point x="411" y="351"/>
      <point x="342" y="381"/>
      <point x="303" y="381" type="qcurve"/>
      <point x="303" y="396" type="line"/>
      <point x="354.24973" y="396"/>
      <point x="429" y="460.25715"/>
      <point x="429" y="511" type="qcurve" smooth="yes"/>
      <point x="429" y="537"/>
      <point x="410" y="585"/>
      <point x="393.5" y="603.5" type="qcurve" smooth="yes" name="inserted"/>
      <point x="377" y="622"/>
      <point x="330" y="644"/>
      <point x="303" y="644" type="qcurve" smooth="yes"/>
      <point x="269" y="644"/>
      <point x="207" y="614"/>
      <point x="183.5" y="586" type="qcurve" smooth="yes" name="inserted"/>
      <point x="160" y="558"/>
      <point x="132" y="479"/>
      <point x="132" y="430" type="qcurve" smooth="yes"/>
      <point x="132" y="0" type="line"/>
      <point x="35" y="0" type="line"/>
      <point x="35" y="14" type="line"/>
      <point x="118" y="14" type="line"/>
      <point x="118" y="370" type="line"/>
      <point x="53" y="370" type="line"/>
      <point x="53" y="384" type="line"/>
      <point x="118" y="384" type="line"/>
      <point x="118" y="426" type="line" smooth="yes"/>
      <point x="118" y="481"/>
      <point x="147" y="567"/>
      <point x="172.5" y="596" type="qcurve" smooth="yes" name="inserted"/>
      <point x="198" y="625"/>
      <point x="265" y="656"/>
      <point x="303" y="658" type="qcurve"/>
      <point x="332" y="657"/>
      <point x="383" y="634"/>
      <point x="402" y="614.5" type="qcurve" smooth="yes" name="inserted"/>
      <point x="421" y="595"/>
      <point x="443" y="543"/>
      <point x="443" y="514" type="qcurve" smooth="yes"/>
      <point x="443" y="470"/>
      <point x="392" y="403"/>
      <point x="351" y="389" type="qcurve"/>
      <point x="384" y="381"/>
      <point x="441" y="345"/>
      <point x="462" y="319.5" type="qcurve" smooth="yes" name="inserted"/>
      <point x="483" y="294"/>
      <point x="507" y="231"/>
      <point x="507" y="195" type="qcurve" smooth="yes"/>
      <point x="507" y="153"/>
      <point x="474" y="79"/>
    </contour>
  </outline>
</glyph>
<glyph name="ae" format="1">
  <advance width="580"/>
  <unicode hex="00E6"/>
  <outline>
    <contour>
      <point x="346" y="241" type="qcurve" smooth="yes"/>
      <point x="346" y="191" type="line"/>
      <point x="391" y="209"/>
      <point x="482" y="246"/>
      <point x="527" y="264" type="qcurve"/>
      <point x="507" y="310"/>
      <point x="426" y="367"/>
      <point x="376" y="367" type="qcurve" smooth="yes"/>
      <point x="359.0" y="367.0" name="inserted"/>
      <point x="326.0" y="360.5"/>
      <point x="310" y="354" type="qcurve"/>
      <point x="330" y="338"/>
      <point x="346" y="283"/>
    </contour>
    <contour>
      <point x="98.5" y="21.0" type="qcurve" smooth="yes" name="inserted"/>
      <point x="120" y="11"/>
      <point x="171" y="4"/>
      <point x="194" y="4" type="qcurve" smooth="yes"/>
      <point x="219" y="4"/>
      <point x="269" y="13"/>
      <point x="288.5" y="24.5" type="qcurve" smooth="yes" name="inserted"/>
      <point x="308" y="36"/>
      <point x="332" y="75"/>
      <point x="332" y="105" type="qcurve" smooth="yes"/>
      <point x="332" y="177" type="line"/>
      <point x="238" y="177" type="line" smooth="yes"/>
      <point x="222" y="177"/>
      <point x="159" y="178"/>
      <point x="127.5" y="171.5" type="qcurve" smooth="yes" name="inserted"/>
      <point x="96" y="165"/>
      <point x="49" y="131"/>
      <point x="49" y="97" type="qcurve" smooth="yes"/>
      <point x="49" y="68"/>
      <point x="77" y="31"/>
    </contour>
    <contour>
      <point x="292" y="10" type="qcurve"/>
      <point x="273.5" y="0.0" name="inserted"/>
      <point x="223.5" y="-10.0"/>
      <point x="192" y="-10" type="qcurve" smooth="yes"/>
      <point x="157" y="-10"/>
      <point x="99" y="0"/>
      <point x="78.5" y="12.0" type="qcurve" smooth="yes" name="inserted"/>
      <point x="58" y="24"/>
      <point x="35" y="65"/>
      <point x="35" y="96" type="qcurve" smooth="yes"/>
      <point x="35" y="123"/>
      <point x="61" y="159"/>
      <point x="82.0" y="170.5" type="qcurve" smooth="yes" name="inserted"/>
      <point x="103" y="182"/>
      <point x="157" y="191"/>
      <point x="186" y="191" type="qcurve" smooth="yes"/>
      <point x="332" y="191" type="line"/>
      <point x="332" y="243" type="line" smooth="yes"/>
      <point x="332" y="274"/>
      <point x="322" y="321"/>
      <point x="307.0" y="336.5" type="qcurve" smooth="yes" name="inserted"/>
      <point x="292" y="352"/>
      <point x="236" y="367"/>
      <point x="190" y="367" type="qcurve" smooth="yes"/>
      <point x="176" y="367"/>
      <point x="144" y="361"/>
      <point x="129.0" y="356.0" type="qcurve" smooth="yes" name="inserted"/>
      <point x="114" y="351"/>
      <point x="88" y="338"/>
      <point x="80" y="332" type="qcurve"/>
      <point x="77" y="335"/>
      <point x="70" y="341"/>
      <point x="67" y="344" type="qcurve"/>
      <point x="76" y="352"/>
      <point x="105" y="365"/>
      <point x="122.0" y="370.0" type="qcurve" smooth="yes" name="inserted"/>
      <point x="139" y="375"/>
      <point x="175" y="381"/>
      <point x="191" y="381" type="qcurve" smooth="yes"/>
      <point x="226.5" y="381.0" name="inserted"/>
      <point x="279.0" y="372.5"/>
      <point x="296" y="364" type="qcurve"/>
      <point x="314.5" y="372.5" name="inserted"/>
      <point x="354.5" y="381.0"/>
      <point x="376" y="381" type="qcurve" smooth="yes"/>
      <point x="434" y="381"/>
      <point x="525" y="312"/>
      <point x="545" y="257" type="qcurve"/>
      <point x="495" y="237"/>
      <point x="396" y="196"/>
      <point x="346" y="176" type="qcurve"/>
      <point x="346" y="128" type="line" smooth="yes"/>
      <point x="346" y="89"/>
      <point x="328" y="38"/>
      <point x="305" y="20" type="qcurve"/>
      <point x="322.0" y="13.0" name="inserted"/>
      <point x="357.5" y="6.0"/>
      <point x="376" y="6" type="qcurve" smooth="yes"/>
      <point x="412" y="6"/>
      <point x="476" y="32"/>
      <point x="500" y="55" type="qcurve"/>
      <point x="502" y="52"/>
      <point x="507" y="47"/>
      <point x="509" y="44" type="qcurve"/>
      <point x="483" y="20"/>
      <point x="415" y="-8"/>
      <point x="376" y="-8" type="qcurve" smooth="yes"/>
      <point x="352.5" y="-8.0" name="inserted"/>
      <point x="310.5" y="1.0"/>
    </contour>
  </outline>
</glyph>
<glyph name="ccedilla" format="2">
  <advance width="387"/>
  <unicode hex="00E7"/>
  <outline>
    <contour>
      <point x="322" y="-127" type="qcurve" smooth="yes"/>
      <point x="322" y="-178"/>
      <point x="271" y="-223"/>
      <point x="238" y="-223" type="qcurve" smooth="yes"/>
      <point x="210.60367815202596" y="-223.0"/>
      <point x="167.4245976190582" y="-194.78456462588056"/>
      <point x="157" y="-165" type="qcurve"/>
      <point x="172" y="-161" type="line"/>
      <point x="178" y="-183"/>
      <point x="214" y="-209"/>
      <point x="238" y="-209" type="qcurve" smooth="yes"/>
      <point x="269" y="-209"/>
      <point x="308" y="-168"/>
      <point x="308" y="-137" type="qcurve" smooth="yes"/>
      <point x="308" y="-109"/>
      <point x="282" y="-79"/>
      <point x="266.5" y="-68.5" type="qcurve" smooth="yes" name="inserted"/>
      <point x="251" y="-58"/>
      <point x="225.0" y="-32.0"/>
      <point x="225" y="-12" type="qcurve" smooth="yes"/>
      <point x="225" y="-6" type="line"/>
      <point x="185" y="-5"/>
      <point x="116" y="25"/>
      <point x="90.5" y="51.5" type="qcurve" smooth="yes" name="inserted"/>
      <point x="65" y="78"/>
      <point x="35" y="148"/>
      <point x="35" y="188" type="qcurve" smooth="yes"/>
      <point x="35" y="228"/>
      <point x="65" y="300"/>
      <point x="91.5" y="326.0" type="qcurve" smooth="yes" name="inserted"/>
      <point x="118" y="352"/>
      <point x="188" y="383"/>
      <point x="229" y="383" type="qcurve" smooth="yes"/>
      <point x="264" y="383"/>
      <point x="327" y="360"/>
      <point x="352" y="340" type="qcurve"/>
      <point x="352" y="252" type="line"/>
      <point x="338" y="252" type="line"/>
      <point x="338" y="332" type="line"/>
      <point x="315" y="349"/>
      <point x="260" y="369"/>
      <point x="229" y="369" type="qcurve" smooth="yes"/>
      <point x="191" y="369"/>
      <point x="126" y="341"/>
      <point x="101.5" y="316.0" type="qcurve" smooth="yes" name="inserted"/>
      <point x="77" y="291"/>
      <point x="49" y="225"/>
      <point x="49" y="188" type="qcurve" smooth="yes"/>
      <point x="49" y="150"/>
      <point x="77" y="85"/>
      <point x="101.5" y="60.5" type="qcurve" smooth="yes" name="inserted"/>
      <point x="126" y="36"/>
      <point x="191" y="8"/>
      <point x="229" y="8" type="qcurve" smooth="yes"/>
      <point x="261" y="8"/>
      <point x="319" y="29"/>
      <point x="342" y="47" type="qcurve"/>
      <point x="352" y="37" type="line"/>
      <point x="333.0" y="20"/>
      <point x="269.0" y="-6.0"/>
      <point x="239" y="-6" type="qcurve"/>
      <point x="240" y="-28"/>
      <point x="268" y="-53"/>
      <point x="280" y="-61" type="qcurve" smooth="yes"/>
      <point x="303" y="-76"/>
      <point x="322" y="-113"/>
    </contour>
  </outline>
</glyph>
<glyph name="eth" format="2">
  <advance width="459"/>
  <unicode hex="00F0"/>
  <outline>
    <contour>
      <point x="101.5" y="60.5" type="qcurve" smooth="yes" name="inserted"/>
      <point x="126" y="36"/>
      <point x="191" y="8"/>
      <point x="229" y="8" type="qcurve" smooth="yes"/>
      <point x="266" y="8"/>
      <point x="332" y="36"/>
      <point x="357" y="60.5" type="qcurve" smooth="yes" name="inserted"/>
      <point x="382" y="85"/>
      <point x="410" y="150"/>
      <point x="410" y="188" type="qcurve" smooth="yes"/>
      <point x="410" y="225"/>
      <point x="382" y="291"/>
      <point x="357" y="316" type="qcurve" smooth="yes" name="inserted"/>
      <point x="332" y="341"/>
      <point x="266" y="369"/>
      <point x="229" y="369" type="qcurve" smooth="yes"/>
      <point x="191" y="369"/>
      <point x="126" y="341"/>
      <point x="101.5" y="316" type="qcurve" smooth="yes" name="inserted"/>
      <point x="77" y="291"/>
      <point x="49" y="225"/>
      <point x="49" y="188" type="qcurve" smooth="yes"/>
      <point x="49" y="150"/>
      <point x="77" y="85"/>
    </contour>
    <contour>
      <point x="367" y="50.5" type="qcurve" smooth="yes" name="inserted"/>
      <point x="341" y="24"/>
      <point x="269" y="-6"/>
      <point x="229" y="-6" type="qcurve" smooth="yes"/>
      <point x="188" y="-6"/>
      <point x="118" y="24"/>
      <point x="91.5" y="50.5" type="qcurve" smooth="yes" name="inserted"/>
      <point x="65" y="77"/>
      <point x="35" y="147"/>
      <point x="35" y="188" type="qcurve" smooth="yes"/>
      <point x="35" y="228"/>
      <point x="65" y="300"/>
      <point x="91.5" y="326" type="qcurve" smooth="yes" name="inserted"/>
      <point x="118" y="352"/>
      <point x="188" y="383"/>
      <point x="229" y="383" type="qcurve" smooth="yes"/>
      <point x="280" y="383"/>
      <point x="366" y="335"/>
      <point x="392" y="295" type="qcurve"/>
      <point x="386" y="323"/>
      <point x="359" y="396"/>
      <point x="337" y="438" type="qcurve" smooth="yes" name="inserted"/>
      <point x="315" y="480"/>
      <point x="254" y="572"/>
      <point x="212" y="620" type="qcurve"/>
      <point x="137" y="539" type="line"/>
      <point x="129" y="547" type="line"/>
      <point x="148" y="567"/>
      <point x="186" y="609"/>
      <point x="205" y="629" type="qcurve"/>
      <point x="183" y="652"/>
      <point x="137" y="697"/>
      <point x="111" y="717" type="qcurve"/>
      <point x="117" y="726" type="line"/>
      <point x="141" y="708" name="inserted"/>
      <point x="189" y="663.5"/>
      <point x="213" y="637" type="qcurve"/>
      <point x="230" y="657"/>
      <point x="266" y="694"/>
      <point x="283" y="714" type="qcurve"/>
      <point x="285" y="712"/>
      <point x="289" y="709"/>
      <point x="291" y="707" type="qcurve"/>
      <point x="273" y="687"/>
      <point x="238" y="649"/>
      <point x="220" y="629" type="qcurve"/>
      <point x="261" y="581"/>
      <point x="335" y="471"/>
      <point x="363" y="414" type="qcurve" smooth="yes" name="inserted"/>
      <point x="391" y="357"/>
      <point x="424" y="242"/>
      <point x="424" y="188" type="qcurve" smooth="yes"/>
      <point x="424" y="147"/>
      <point x="393" y="77"/>
    </contour>
  </outline>
</glyph>
<glyph name="thorn" format="2">
  <advance width="498"/>
  <unicode hex="00FE"/>
  <outline>
    <contour>
      <point x="190" y="-250" type="line"/>
      <point x="16" y="-250" type="line"/>
      <point x="16" y="-236" type="line"/>
      <point x="93" y="-236" type="line"/>
      <point x="93" y="736" type="line"/>
      <point x="16" y="736" type="line"/>
      <point x="16" y="750" type="line"/>
      <point x="190" y="750" type="line"/>
      <point x="190" y="736" type="line"/>
      <point x="107" y="736" type="line"/>
      <point x="107" y="321" type="line" smooth="yes"/>
      <point x="107" y="305"/>
      <point x="106" y="273"/>
      <point x="106" y="257" type="qcurve"/>
      <point x="127" y="312"/>
      <point x="225" y="381"/>
      <point x="288" y="381" type="qcurve" smooth="yes"/>
      <point x="328" y="381"/>
      <point x="399" y="351"/>
      <point x="425.5" y="324.5" type="qcurve" smooth="yes" name="inserted"/>
      <point x="452" y="298"/>
      <point x="482" y="227"/>
      <point x="482" y="187" type="qcurve" smooth="yes"/>
      <point x="482" y="146"/>
      <point x="452" y="75"/>
      <point x="425.5" y="49.0" type="qcurve" smooth="yes" name="inserted"/>
      <point x="399" y="23"/>
      <point x="328" y="-8"/>
      <point x="288" y="-8" type="qcurve" smooth="yes"/>
      <point x="257" y="-8"/>
      <point x="200" y="10"/>
      <point x="176.5" y="26.5" type="qcurve" smooth="yes" name="inserted"/>
      <point x="153" y="43"/>
      <point x="117" y="88"/>
      <point x="107" y="115" type="qcurve"/>
      <point x="107" y="101"/>
      <point x="108" y="75"/>
      <point x="108" y="61" type="qcurve" smooth="yes"/>
      <point x="108" y="-236" type="line"/>
      <point x="190" y="-236" type="line"/>
    </contour>
    <contour>
      <point x="288" y="367" type="qcurve" smooth="yes"/>
      <point x="250" y="367"/>
      <point x="185" y="339"/>
      <point x="160.0" y="314.5" type="qcurve" smooth="yes" name="inserted"/>
      <point x="135" y="290"/>
      <point x="107" y="224"/>
      <point x="107" y="187" type="qcurve" smooth="yes"/>
      <point x="107" y="149"/>
      <point x="135" y="84"/>
      <point x="160.0" y="59.0" type="qcurve" smooth="yes" name="inserted"/>
      <point x="185" y="34"/>
      <point x="250" y="6"/>
      <point x="288" y="6" type="qcurve" smooth="yes"/>
      <point x="325" y="6"/>
      <point x="391" y="34"/>
      <point x="415.5" y="59.0" type="qcurve" smooth="yes" name="inserted"/>
      <point x="440" y="84"/>
      <point x="468" y="149"/>
      <point x="468" y="187" type="qcurve" smooth="yes"/>
      <point x="468" y="224"/>
      <point x="440" y="290"/>
      <point x="415.5" y="314.5" type="qcurve" smooth="yes" name="inserted"/>
      <point x="391" y="339"/>
      <point x="325" y="367"/>
    </contour>
  </outline>
</glyph>
<glyph name="dotlessi" format="2">
  <advance width="244"/>
  <unicode hex="0131"/>
  <outline>
    <contour>
      <point x="209" y="0" type="line"/>
      <point x="35" y="0" type="line"/>
      <point x="35" y="14" type="line"/>
      <point x="117" y="14" type="line"/>
      <point x="117" y="361" type="line"/>
      <point x="35" y="361" type="line"/>
      <point x="35" y="375" type="line"/>
      <point x="131" y="375" type="line"/>
      <point x="131" y="14" type="line"/>
      <point x="209" y="14" type="line"/>
    </contour>
  </outline>
</glyph>
<glyph name="oe" format="2">
  <advance width="656"/>
  <unicode hex="0153"/>
  <outline>
    <contour>
      <point x="593" y="46" type="line"/>
      <point x="567" y="22"/>
      <point x="498" y="-6"/>
      <point x="459" y="-6" type="qcurve"/>
      <point x="428" y="-6"/>
      <point x="372" y="11"/>
      <point x="349" y="27" type="qcurve"/>
      <point x="326" y="11"/>
      <point x="270" y="-6"/>
      <point x="239" y="-6" type="qcurve"/>
      <point x="198" y="-6"/>
      <point x="128" y="24"/>
      <point x="102" y="51" type="qcurve" smooth="yes" name="inserted"/>
      <point x="75" y="77"/>
      <point x="45" y="147"/>
      <point x="45" y="188" type="qcurve"/>
      <point x="45" y="228"/>
      <point x="75" y="300"/>
      <point x="102" y="327" type="qcurve" smooth="yes" name="inserted"/>
      <point x="128" y="353"/>
      <point x="198" y="384"/>
      <point x="239" y="384" type="qcurve"/>
      <point x="270" y="384"/>
      <point x="326" y="366"/>
      <point x="349" y="350" type="qcurve"/>
      <point x="372" y="366"/>
      <point x="428" y="384"/>
      <point x="459" y="384" type="qcurve"/>
      <point x="491" y="384"/>
      <point x="544" y="365"/>
      <point x="565" y="348" type="qcurve" smooth="yes"/>
      <point x="586" y="331"/>
      <point x="617" y="286"/>
      <point x="628" y="259" type="qcurve"/>
      <point x="590" y="244"/>
      <point x="504" y="209"/>
      <point x="460" y="191" type="qcurve" smooth="yes" name="inserted"/>
      <point x="416" y="173"/>
      <point x="329" y="138"/>
      <point x="291" y="122" type="qcurve"/>
      <point x="311" y="71"/>
      <point x="401" y="8"/>
      <point x="459" y="8" type="qcurve"/>
      <point x="495" y="8"/>
      <point x="558" y="33"/>
      <point x="582" y="56" type="qcurve"/>
    </contour>
    <contour>
      <point x="239" y="369" type="qcurve"/>
      <point x="201" y="369"/>
      <point x="136" y="341"/>
      <point x="112" y="316" type="qcurve" smooth="yes" name="inserted"/>
      <point x="87" y="291"/>
      <point x="59" y="225"/>
      <point x="59" y="188" type="qcurve"/>
      <point x="59" y="150"/>
      <point x="87" y="85"/>
      <point x="112" y="61" type="qcurve" smooth="yes" name="inserted"/>
      <point x="136" y="36"/>
      <point x="201" y="8"/>
      <point x="239" y="8" type="qcurve"/>
      <point x="266" y="8" name="inserted"/>
      <point x="315" y="22"/>
      <point x="337" y="36" type="qcurve"/>
      <point x="304" y="63"/>
      <point x="265" y="141"/>
      <point x="265" y="188" type="qcurve"/>
      <point x="265" y="234"/>
      <point x="304" y="313"/>
      <point x="337" y="340" type="qcurve"/>
      <point x="316" y="354"/>
      <point x="266" y="369"/>
    </contour>
    <contour>
      <point x="609" y="266" type="qcurve"/>
      <point x="588" y="311"/>
      <point x="513" y="369"/>
      <point x="459" y="369" type="qcurve"/>
      <point x="421" y="369"/>
      <point x="356" y="341"/>
      <point x="332" y="316" type="qcurve" smooth="yes" name="inserted"/>
      <point x="307" y="291"/>
      <point x="279" y="225"/>
      <point x="279" y="188" type="qcurve"/>
      <point x="279" y="174" name="inserted"/>
      <point x="283" y="147"/>
      <point x="286" y="135" type="qcurve"/>
      <point x="323" y="150"/>
      <point x="405" y="184"/>
      <point x="447" y="201" type="qcurve" smooth="yes" name="inserted"/>
      <point x="489" y="217"/>
      <point x="572" y="251"/>
    </contour>
  </outline>
</glyph>
<glyph name="ring" format="2">
  <advance width="400"/>
  <unicode hex="02DA"/>
  <outline>
    <contour>
      <point x="151" y="540" type="qcurve" smooth="yes"/>
      <point x="151" y="522.01772"/>
      <point x="177.47225" y="491"/>
      <point x="200" y="491" type="qcurve" smooth="yes"/>
      <point x="220" y="491"/>
      <point x="249" y="520"/>
      <point x="249" y="540" type="qcurve" smooth="yes"/>
      <point x="249" y="558.57143"/>
      <point x="221.66667" y="589"/>
      <point x="200" y="589" type="qcurve" smooth="yes"/>
      <point x="179.26249" y="589"/>
      <point x="151" y="559.31315"/>
    </contour>
    <contour>
      <point x="263" y="540" type="qcurve" smooth="yes"/>
      <point x="263" y="525"/>
      <point x="252" y="501"/>
      <point x="242" y="492" type="qcurve" smooth="yes"/>
      <point x="234" y="485"/>
      <point x="212" y="477"/>
      <point x="200" y="477" type="qcurve" smooth="yes"/>
      <point x="188" y="477"/>
      <point x="166" y="485"/>
      <point x="158" y="492" type="qcurve" smooth="yes"/>
      <point x="148" y="501"/>
      <point x="137" y="525"/>
      <point x="137" y="540" type="qcurve" smooth="yes"/>
      <point x="137" y="552"/>
      <point x="145" y="574"/>
      <point x="152" y="582" type="qcurve" smooth="yes"/>
      <point x="161" y="592"/>
      <point x="185" y="603"/>
      <point x="200" y="603" type="qcurve" smooth="yes"/>
      <point x="212" y="603"/>
      <point x="234" y="595"/>
      <point x="242" y="588" type="qcurve" smooth="yes"/>
      <point x="252" y="579"/>
      <point x="263" y="555"/>
    </contour>
  </outline>
</glyph>
<glyph name="endash" format="2">
  <advance width="509"/>
  <unicode hex="2013"/>
  <outline>
    <contour>
      <point x="401" y="179" type="line"/>
      <point x="100" y="179" type="line"/>
      <point x="100" y="193" type="line"/>
      <point x="401" y="193" type="line"/>
    </contour>
  </outline>
</glyph>
<glyph name="quoteleft" format="2">
  <advance width="164"/>
  <unicode hex="2018"/>
  <outline>
    <contour>
      <point x="92" y="590" type="qcurve"/>
      <point x="86" y="572" type="line"/>
      <point x="57" y="598"/>
      <point x="32" y="671"/>
      <point x="40" y="711" type="qcurve"/>
      <point x="45" y="709"/>
      <point x="54" y="706"/>
      <point x="59" y="704" type="qcurve"/>
      <point x="52" y="669"/>
      <point x="71" y="610"/>
    </contour>
  </outline>
</glyph>
<glyph name="quoteright" format="2">
  <advance width="164"/>
  <unicode hex="2019"/>
  <outline>
    <contour>
      <point x="111" y="711" type="qcurve"/>
      <point x="119" y="671"/>
      <point x="94" y="598"/>
      <point x="65" y="572" type="qcurve"/>
      <point x="59" y="590" type="line"/>
      <point x="80" y="610"/>
      <point x="99" y="669"/>
      <point x="92" y="704" type="qcurve"/>
      <point x="97" y="706"/>
      <point x="106" y="709"/>
    </contour>
  </outline>
</glyph>
<glyph name="quotedblleft" format="2">
  <advance width="249"/>
  <unicode hex="201C"/>
  <outline>
    <contour>
      <point x="187" y="590" type="qcurve"/>
      <point x="181" y="572" type="line"/>
      <point x="152" y="598"/>
      <point x="127" y="671"/>
      <point x="135" y="711" type="qcurve"/>
      <point x="140" y="709"/>
      <point x="149" y="706"/>
      <point x="154" y="704" type="qcurve"/>
      <point x="147" y="669"/>
      <point x="166" y="610"/>
    </contour>
    <contour>
      <point x="83" y="590" type="qcurve"/>
      <point x="77" y="572" type="line"/>
      <point x="48" y="598"/>
      <point x="23" y="671"/>
      <point x="31" y="711" type="qcurve"/>
      <point x="36" y="709"/>
      <point x="45" y="706"/>
      <point x="50" y="704" type="qcurve"/>
      <point x="43" y="669"/>
      <point x="62" y="610"/>
    </contour>
  </outline>
</glyph>
<glyph name="quotedblright" format="1">
  <advance width="248"/>
  <unicode hex="201D"/>
  <outline>
    <contour>
      <point x="96" y="711" type="qcurve"/>
      <point x="104" y="671"/>
      <point x="79" y="598"/>
      <point x="50" y="572" type="qcurve"/>
      <point x="44" y="590" type="line"/>
      <point x="65" y="610"/>
      <point x="84" y="669"/>
      <point x="77" y="704" type="qcurve"/>
      <point x="82" y="706"/>
      <point x="91" y="709"/>
    </contour>
    <contour>
      <point x="200" y="711" type="qcurve"/>
      <point x="208" y="671"/>
      <point x="183" y="598"/>
      <point x="154" y="572" type="qcurve"/>
      <point x="148" y="590" type="line"/>
      <point x="169" y="610"/>
      <point x="188" y="669"/>
      <point x="181" y="704" type="qcurve"/>
      <point x="186" y="706"/>
      <point x="195" y="709"/>
    </contour>
  </outline>
</glyph>
<glyph name="quotedblbase" format="1">
  <advance width="234"/>
  <unicode hex="201E"/>
  <outline>
    <contour>
      <point x="72" y="92" type="qcurve"/>
      <point x="80" y="52"/>
      <point x="55" y="-21"/>
      <point x="26" y="-47" type="qcurve"/>
      <point x="20" y="-29" type="line"/>
      <point x="41" y="-9"/>
      <point x="60" y="50"/>
      <point x="53" y="85" type="qcurve"/>
      <point x="58" y="87"/>
      <point x="67" y="90"/>
    </contour>
    <contour>
      <point x="176" y="92" type="qcurve"/>
      <point x="184" y="52"/>
      <point x="159" y="-21"/>
      <point x="130" y="-47" type="qcurve"/>
      <point x="124" y="-29" type="line"/>
      <point x="145" y="-9"/>
      <point x="164" y="50"/>
      <point x="157" y="85" type="qcurve"/>
      <point x="162" y="87"/>
      <point x="171" y="90"/>
    </contour>
  </outline>
</glyph>
<glyph name="bullet" format="1">
  <advance width="479"/>
  <unicode hex="2022"/>
  <outline>
    <contour>
      <point x="305" y="300" type="qcurve" smooth="yes"/>
      <point x="305" y="273"/>
      <point x="267" y="235"/>
      <point x="239" y="235" type="qcurve" smooth="yes"/>
      <point x="212" y="235"/>
      <point x="174" y="273"/>
      <point x="174" y="300" type="qcurve" smooth="yes"/>
      <point x="174" y="328"/>
      <point x="212" y="366"/>
      <point x="239" y="366" type="qcurve" smooth="yes"/>
      <point x="267" y="366"/>
      <point x="305" y="328"/>
    </contour>
  </outline>
</glyph>
<glyph name="guilsinglleft" format="2">
  <advance width="392"/>
  <unicode hex="2039"/>
  <outline>
    <contour>
      <point x="288" y="93" type="qcurve"/>
      <point x="288" y="77" type="line"/>
      <point x="117" y="239" type="line"/>
      <point x="160" y="280"/>
      <point x="245" y="359"/>
      <point x="288" y="400" type="qcurve"/>
      <point x="288" y="383" type="line"/>
      <point x="253" y="347"/>
      <point x="181" y="275"/>
      <point x="146" y="239" type="qcurve"/>
      <point x="181" y="202"/>
      <point x="253" y="130"/>
    </contour>
  </outline>
</glyph>
<glyph name="fraction" format="2">
  <advance width="310"/>
  <unicode hex="2044"/>
  <outline>
    <contour>
      <point x="9" y="0" type="line"/>
      <point x="287" y="755" type="line"/>
      <point x="301" y="755" type="line"/>
      <point x="23" y="0" type="line"/>
    </contour>
  </outline>
</glyph>
<glyph name="foursuperior" format="2">
  <advance width="400"/>
  <unicode hex="2074"/>
  <outline>
    <contour>
      <point x="283" y="375" type="line"/>
      <point x="197" y="375" type="line"/>
      <point x="197" y="381" type="line"/>
      <point x="235" y="381" type="line"/>
      <point x="235" y="465" type="line"/>
      <point x="68" y="465" type="line"/>
      <point x="243" y="703" type="line"/>
      <point x="243" y="472" type="line"/>
      <point x="290" y="472" type="line"/>
      <point x="290" y="465" type="line"/>
      <point x="243" y="465" type="line"/>
      <point x="243" y="381" type="line"/>
      <point x="283" y="381" type="line"/>
    </contour>
    <contour>
      <point x="235" y="681" type="line"/>
      <point x="83" y="472" type="line"/>
      <point x="235" y="472" type="line"/>
    </contour>
  </outline>
</glyph>
<glyph name="minus" format="2">
  <advance width="524"/>
  <unicode hex="2212"/>
  <outline>
    <contour>
      <point x="442" y="186" type="line"/>
      <point x="82" y="186" type="line"/>
      <point x="82" y="200" type="line"/>
      <point x="442" y="200" type="line"/>
    </contour>
  </outline>
</glyph>
<glyph name="divisionslash" format="2">
  <advance width="312"/>
  <unicode hex="2215"/>
  <outline>
    <contour>
      <point x="24" y="-19" type="line"/>
      <point x="10" y="-19" type="line"/>
      <point x="288" y="735" type="line"/>
      <point x="302" y="735" type="line"/>
    </contour>
  </outline>
</glyph>
